<svg id="809907e0-344c-4960-82e3-f5f91090b5ca" data-name="Layer 1" xmlns="http://www.w3.org/2000/svg" viewBox="0 0 686.14 740.88"><defs><style>.b95fc032-116c-411e-9166-a9e739baa597{fill:#2e2a25}</style></defs><title>fav</title><path class="b95fc032-116c-411e-9166-a9e739baa597" d="M395.17 184.07h-24.72q4.9 11.22 9.8 22.45c13.71 31.54 13.61 64.17 6.67 97-4.08 19.31-16.56 22.5-31.13 8.28-26.19-25.55-42-57-50.68-92.24-.57-2.33-1.18-4.66-1.77-7-1.66 1.88-3.31 3.76-5 5.63-29 32.38-64.51 50.12-108.63 49.83-12.51-.08-15.45-6.32-13.33-16.6 3.41-16.57 12.06-30.85 23.33-42.93 10.07-10.79 17.55-24.26 31.09-31.71 2.44-1.34 3.59-3.77 2.4-6.54-1.28-3-4.24-2.43-6.67-2.43-19.8 0-34.72-11.47-50.23-21.39-5.87-3.76-10-9.31-8.34-16.92 1.63-7.33 7-9.85 14.09-12.17 30.95-10.05 61.92-11 93.16-2.5 8.94 2.44 6.55-2 5.73-7.15a130 130 0 0 0-22.28-55.31c-13.85-19.61-7.14-28.61 14.34-38.88 8.7-4.16 17.06-2 22.37 9.26 10.53 22.26 24 43.16 29.41 67.66a57.16 57.16 0 0 0 2.59 7.19c1.2-2 2.29-4.16 3.62-6.11 20.57-29.89 48.78-46.14 85.2-48.28 12-.7 14.11 5.48 12.63 15.32-2.32 15.45-12 27.22-20.29 39.53-6.4 9.55-4.42 12.22 6.42 11.26C441 107 464.37 116 486.83 127.78c18.31 9.59 18.8 21.13.45 31.43-23.48 13.18-56.86 26.79-92.11 24.86zM292.47 171l1.46 2.13 1.19-2.32 3.34.11c-.09 2.62.3 5 3.12 6.12l1.48 4.23-1-.34.69.71 1.83-4.55c6.59-1.33 13.11-2.17 18.66 3l-.38 3.5c-2 1.28-4 2.56-5.95 3.82-1.37-1.85.5-5.61-2.84-6s-5.22 2.13-6 5.3l-.82.86.44-1.25 9.67.64a5.92 5.92 0 0 1-4.24 5.65l.34-.34c4.08.28 5.65 3.14 6.74 6.54l-.36.68.45-1 5.84-2.85c2.08 1.09-.36 9.14 5.9 3.8l5.51-2.75c-.68-1.14-.62-1.22.11-.15l-5.34 3.28-6.61-3.82c.09-1.08.17-2.17.25-3.23l.41.42c-7.61-.77-3-6.49-4-9.91 2.18-.63 3.5-1.38.41-2.78L326 174c5.36 1.11 7.65-2.34 9.52-6.41 5.47-6.22 2.55-14.8 6.09-21.57 1.63 2.44 3.26 4.87 4.81 7.27-1.25.75-4.79-1.21-3.3 2.78l3-2.9c7.6.91 13.56-.62 14.41-9.71L354 136.9l3-6.47c4.69 2 5.91 9.23 12.48 8.24l.39-.8-1 .65c-1.36-6.33-4.33-10.87-11.69-10.53l-1.91-5-2.55-3c2.61-.43 5.18-2.42 7.79-.28l.52-.55-1 .31c-2.8-3.81-5.07-1.29-7.38.62.86.94.24 3.46 2.69 2.72l-1 5.24-6.45 2.74.37-.25-3.16 6.34-3.26 3.46c-7.85-1.9-5.82 9.78-12.69 9.24 6.59-9.42-5.62-16.27-3.44-25.09-.6.49-1.62.89-1.74 1.48-1.57 7.54-2.57 15.08 1.59 22.21.26.44.57.85.85 1.27l-3.09 3.34c-2.55-.18-3.16-5.72-5.21-3.52-3.08 3.31-1.85 8.32-1 12.68-4.9-1.33-1.5-8.32-6.53-9.55 1.67-5.66 4.25-11.69-1.41-16.09-.59-.46-6.65 6.13-10.24 9.52-1.3-5.17-5.48-4.27-9.15-4.32l-.5.57 1-.3c.67 2.41 1.33 4.82 1.93 7.19v.82l.47-.52c.3-4.68 4.6-2.52 6.79-4-2.71 5.85 7.58 5 5.43 10.61-3.56-.16-7.74-2.29-9.6 3-2.66-.59-5.32-1.17-8-1.72-1.44 3.63-3.23 4.35-5.54.66-1.72 1.21-2.42 4.71-5.58 2.54l-.44.67.94-.48c1.49 2.56.24 4.45-1.67 6.33-2.93-.5-5.86-1-8.7-1.47l.4-.26-.75-.38c3.08 1.09 6 3.11 9.53 1.87.07 1.89.14 3.78.2 5.62l-2.15-.12c.37-.16.81-.52 1.09-.42s.65.61 1 .94c10-4.6 6.26 7.07 10.7 9.13l2 7.1s.21-.41.28-.34l.19 1.33-1.17.14 1.25-1.84 5.36 1.63-.29-2.15c-1.82.4-3.64.8-5.47 1.17l-2.16-6.7c1.89-3.09 3.92-3.42 6-.36l.53-.49-.92.18a36.82 36.82 0 0 1-10.46-23.4l6.18-.77c-.32 3.64.49 6.6 4.58 7.57l.16 3.16-2.36 1.47zm86.6-29.7l.51-.48-1 .23v-1.61c.23.61.42 1.25.49 1.84zM382 151l.27-.7-.91.58-2.1-.29 1.73-1.52c.33.66.68 1.31 1.01 1.93zm-103.69 36.24c-.1.51-.19 1-.32 1.54a3.49 3.49 0 0 1-.47 1.12l-.28.25h.85c-.27-.42-.83-.93-.74-1.25a11.23 11.23 0 0 1 1.1-2.16l-.8.78.22-1.16zm95.88-70.63l-1 1.87-.69-2.11 1.92.6a26.78 26.78 0 0 0-.19 3.89 18.19 18.19 0 0 0 .88 3.27c-.31-2.53-.63-5.06-.92-7.52zm-29.38 51.58l-1.28-4-1.53 1.62 3.19 2-.2 3.47c0 6.21-15.07 4.81-7.46 14.81-1.11-.7-2.2-1.44-3.34-2.07-.14-.08-.57.37-.86.58l4.19 1.49L352 177c-.82-.17-2.28-.19-2.36-.53-.45-1.93.87-2.13 2.36-1.93 2.74-7.98-3.49-5.73-7.19-6.35zm-4.17-43.11l-2.88-3.55c-.42.6-1.33 1.41-1.18 1.76a21.2 21.2 0 0 0 2.16 3.32zm22 37.25a22 22 0 0 0 2.36.91c.08 0 .65-.88.53-1.1a12.46 12.46 0 0 0-1.5-1.86zm-96.45-7.7l1.06-.15c-.07-.3-.05-.78-.23-.87s-.68 0-1 0zm71.08-20.43c.95-.32 2.57-.44 2.72-1 .77-2.68-1.52-1.81-2.73-1.92-1-.09-2.74.09-2.82.43-.51 2.24 1.41 2.11 2.79 2.49zm40.73-1.51l-2.15-.19c.34.27.66.72 1 .75s.81-.35 1.15-.56zm-103.82 45.82l-2 1.19a7.51 7.51 0 0 0 .72 1 23 23 0 0 0 2.09-1.25zm81.31-18l-2.12-.59c.12.32.22.9.38.92a6.43 6.43 0 0 0 1.73-.29zm-78.82-7l-.88.4.89.38zm41.92-12.41l-.6.9.93.13zm49.5 6.38l-.5.7.78.11z" transform="translate(-38.9 -11.53)"/><path class="b95fc032-116c-411e-9166-a9e739baa597" d="M326.45 152.76l-.32-3.53 3.44-.07-.47 3.44.48-.29h-3.52zm-31.35 5.68c3.62.56 7.46 1.77 9.3-3.08h3.47v6.59h-12.8z" transform="translate(-38.9 -11.53)"/><path class="b95fc032-116c-411e-9166-a9e739baa597" d="M266.73 133.09L267.62 132.84 267.49 133.63 266.73 133.09z"/><path class="b95fc032-116c-411e-9166-a9e739baa597" d="M311.08 152.17l-3.71 3.73zm24.74 16.01c-4 .83-8.75.47-9.37 6.29a11.94 11.94 0 0 1-6.57-6.64c5.36 1.21 7.49-2.38 9.38-6.32 3.59.84 7.13 1.73 6.56 6.67zm-6.72-15.59c4.93 2-.7 3.86-.11 5.81l.57.51v-6.61zm12.46-12.73h3.57l-3.53 3.51q-.01-1.73-.04-3.51z" transform="translate(-38.9 -11.53)"/><path class="b95fc032-116c-411e-9166-a9e739baa597" d="M341.92 142.8q0 1.88-.06 3.76l.06-3.76zm-12.3 19.27c-2.2-.17-3.38-1.23-3.11-3.56l-.4.33 3.45.07-.57-.51q.31 1.84.63 3.67zm21.59-22.22c2.06 4.37 6.28 2.32 9.51 3.21-5.23 2.68-11.14 8.15-12.93-3.17z" transform="translate(-38.9 -11.53)"/><path class="b95fc032-116c-411e-9166-a9e739baa597" d="M344.67 140.33v-3.71l3.6 3.64zm-40.33 27.82l3.16-6.72 3.56 6.82z" transform="translate(-38.9 -11.53)"/><path class="b95fc032-116c-411e-9166-a9e739baa597" d="M304.75 171.29l-6.62-.09 6.62-3.43v3.52zm12.05-3.07v-6.74c2.94 1.3 2.5 4.36 3.47 6.68z" transform="translate(-38.9 -11.53)"/><path class="b95fc032-116c-411e-9166-a9e739baa597" d="M310.54 167.83h6.73c-2.27 2.84-4.52 6.03-6.73 0zm-5.68 9.71l-3.65-.08 3.52-3.49zm-.34-3.06v-3.66 3.66zM323 152.26l3.49.49-.39-.43v6.52l.4-.33c-4.15-.39-3.5-3.51-3.5-6.25zM351.29 174v3.57c-2.55.19-3.49-1.22-3.53-3.54zm-6.63-3.14l3.68 3.68zm9.26-43.41h3.59v3.58c-2.3-.13-3.64-1.17-3.59-3.58zM292 171.31v-3.58c2.28.09 3.31 1.42 3.55 3.55zm-.12-6.13l3.72-3.72zm62.62-28.51l-3.7 3.68zm-6.58-5.87l.87.62-.51-.86z" transform="translate(-38.9 -11.53)"/><path class="b95fc032-116c-411e-9166-a9e739baa597" d="M724.69 412c2.62 56.74-9.32 115.29-37.23 170.18-28.24 55.56-71.21 96.77-126.36 125.45-27.51 14.3-56.37 25.55-85.87 34.69-15.94 4.94-33 7.18-49.71 8.53-90.79 7.31-174.65-9.51-243.26-74.39-66.82-63.19-121-135.7-138.61-227.57-16.11-84.11 6.17-184.19 106.83-232.27 3.61-1.73 7.93-5.66 11.39-2.73 4.83 4.08-.68 8.45-2.19 12.35-6.06 15.64-9 31 2.72 45.34 12 14.71 26.72 16.47 45.64 13.78 27.65-3.94 50.87-16.19 73.91-29.75 8.22-4.84 11.07-4.81 15.33 4.65 13.17 29.25 33.56 53 59.55 71.88a27.87 27.87 0 0 0 35.39-1.51c10.51-9.08 17.83-20.59 20.24-34 4.84-27 6.35-54.44-.83-81.31-2.89-10.8-1.4-14.12 10.49-15.32 31.29-3.15 59.39-15.73 85.52-33 12.86-8.48 20.5-19.56 15.86-35.19-3.34-11.25 2-12 10.59-12.11 58.34-.65 102.94 26.33 137.23 70.9 34.13 44.36 45.57 97.07 50.88 151.71 2.11 21.69 2.17 43.24 2.49 69.69zM233.3 496.24v6.11l-6.68 1.65c-1.1-1-2.17-2-3.3-3-1.75-1.48-3.53-2.92-5.3-4.37-.16.46-.5.94-.46 1.38.31 3 2.66 3.9 5 4.67 1.41.46 2.89.71 4.34 1.06-2 7.92 1.86 10.18 9 9.25 3.77 14.62 11.79 4.72 18.36 3.18 0 2.42-.57 6.75.09 6.94 4 1.17 5-2.41 5.61-5.16 1.51-6.44 6.31-6.84 11.41-6.69 1.27 0 3.37.81 3.62 1.67 1.81 6.18-5.1 5-7 8-2.39 3.78-4.16 8-6.24 11.94-2.43 0-4.87 0-7.3.11 0 0 0 .63-.05 1l7.18-1.07 8 5 3.32 3.32-6.06 3-1-.32h1.3l5.51 9.65v3.23c-.93 5.08.9 8.25 6.24 9 2.56 3.76 2.92 8.06 3.08 12.42l-.35.47.41-.7 1.45-.06 1.43.23 6.53 6.52c1.58 1.85 1.15 7.82 6 2.91l3-12.56h9.33l3.41 3.34c2.17 2.65 4.35 6.35 6.43 0-.4-.23-1.16-.5-1.13-.68a11.71 11.71 0 0 1 .65-2.18l-.31-3.57c4.76.57 5.38-2.93 6.17-6.27l.31.24-3.32-6.3 12.75 3.12a10 10 0 0 1-.31 3l-.29-.3 3.58-2.59c4.48-.15 4.16 2.67 3.54 5.69l.28-.28c-2.41 2.2-4.83 4.39-7.2 6.62v-.41c.93 2.12 1.86 4.25 2.83 6.39v.38l.14-.73c5.31.32 5.23 3.4 3.71 7.23l-4.21 2.52-8.58.83c-2-7.62-4.05-.86-6.08 0-5.61-.91-7.22 6.06-12.29 6.22l-3.37-3.35 3.07-6.12-.32.19c-3.56.39-5.34 2.42-5.48 6l-3.23 3.28-.28-.22 3.3-.15 3.34 3.36q4.79 7.55 9.56 15.11-1.6 1.62-3.2 3.26l-.24.35.25-.68 3.09-3.35c3 .35 6 .7 9.06 1l3.07-.09c4.65-1.11 9.55-1.75 12.25-6.52l3.38-3.31c2 .92 3.93 1.83 5.92 2.78l-.27.82v-1.09l9.27-3.22c-2.72-.83-5.6-1.31-8.11-2.56-3.5-1.74-6.61-1.27-9.8.47l-12.91.16v-3.62a16.21 16.21 0 0 0 8.47-9.8l4.38.63h3c6.64-5.33 6.58 12.14 13.08 4.16 3.85-4.73 1-9.77-4-13l.07-3.58 9.48-6.27 3.29 3.4c-.47 6.93-7.27 15.87 5.85 18.51l3.31.2v-3.34l-.31-9.28c4.41-3.71 13.49 6.11 15.24-5.27l-.18.33 7 1.94c-3.2 3.78-2.79 8.46-3.25 12.91a12.38 12.38 0 0 1-1.77-1.62l-5.54.17c-.62.67-2.83-.75-2.15 1.63.64-.54 1.29-1.08 2-1.59l6-.22c-1.55 6.06-7.55 8.47-10.77 13.18l-6.41 3.57c-1.95-2-3.89-4.06-5.86-6.07l-.49-.29.78.2c-1.8 4.59 1.32 8.05 2.72 11.94-1.65 2.5-3.3 5-5 7.47l-5.42-.32a2.44 2.44 0 0 0 .3-.14l5 .54q2.36-2.33 4.74-4.64l3.76 4c.45 1.7-.16 4.54 2.58 4.11 1.14-.18 1.89-2.81 2.83-4.34l3.61-4 .68-2.15c-.14.81-.29 1.62-.44 2.45l-3.78 3.91c-2 .08-3.92.16-5.88.22l-3.76-4 .33-3.51 6.27-2.35 3-7c5.44-2.42 13.85-1.67 12.28-11.54l6.49-.49a8.28 8.28 0 0 0 6.18 6.76h3.2c8.27 9-4 8.2-5.88 12.35h-3.63c-1.18-1.68-.24-5.64-4-4.52s-3.23 4.18-2.09 7.11l3.52 3.53v2.79c-3.28 2-6.57 4-9.82 6l-.05-.4a17.33 17.33 0 0 0 9.64-5.86c9 1.77 4.91-5.42 6.13-9l9.19 3 3.5 3-.25 3.66a14.78 14.78 0 0 0-1.38.61 8.24 8.24 0 0 0-1 .75l2-1.72 3.33.15h3.23c5.83-4.11 11.72-9.74 16.92.65l-9 1.8c-1.46 1.72-2.37 3.35.78 4.22l-.4.07c-.23-1.44-.46-2.87-.62-4.29l9.06-1.74a2.25 2.25 0 0 1 1.87-.91c0 2.06-.07 4.11-.1 6.18l-.42.43.49-.64 2.71-5.72 3.41-3.38c3-2.18 2.26-4.34 0-6.47-1 1.5-2 1.47-3 0l-6.38-2.52 6.48-6.12-.2.22a5.68 5.68 0 0 1 2.92-.53l6.57-.07 3 .06-.25.29 6-10 3.91 4a20.42 20.42 0 0 1-.43 2.3l-.11-.37a5 5 0 0 1 .28-1.72l-3.93-4 6.88-9.17c1.61 3.54 3.21 7.08 4.86 10.61h5.72l.72-.85a5.8 5.8 0 0 1-.54.75l-6.12.06-1.8-10.38c3.63-.89 3-3.84 3.15-6.45 4.42-1.29 8.84-2.58 13.23-3.83l.43 5.73c-2.49 2.31-4 4.87-2.05 8.25l4.24 2.6a2.53 2.53 0 0 1-1.33 1.7l.06 5.83 5.64 1.18c.13 2.59.26 5.19.45 7.75l5.7.16-.38-.95c.18.28.36.56.52.82l-6.15-.07c-.17-2.55-.34-5.11-.57-7.62-1.69-.37-3.39-.75-5.06-1.15l-.12-6.13 7.14 1.62a18.55 18.55 0 0 1 3-.19l4.65-.68.47.71a4.67 4.67 0 0 0-.89-.44l-4-2.43-3.31-3.28v-2.84l.27-.53-.25.83-5.86 2.67-4.7.69c.86-2.9 1.71-5.81 2.55-8.76l-.51-5.26c2-2.07 4-4.15 6-6.18.8 2.42 1.59 4.84 2.41 7.21l-.34.18c1.18-3 0-5.25-2.31-7.14l-6.53-5.67 9.59-6.47a12 12 0 0 0 6.12 9.76l-.27-.3 3.29 6.19c5.77 7.7 16.06-.36 22.12 6.33a3.58 3.58 0 0 1-1.6 1.77c1.43 1.76 4.19 3 2.29 6.05l-.19 5.9a1 1 0 0 0 0-.32l.34-5.49-2.31-6.37c4.87-2.21 9.7-4.43 4.09-10.67l-.1-3.56c4.1-.65 7.72-2.06 9.58-6.18h1.37s1.37.06 1.39 0l-.31.17q.19-4.57.37-9.14c.31-.34.9-.69.87-1a8.78 8.78 0 0 0-.64-2.07l-3.32-3.14L536 535v-15.45l3.25-3.33c4.32 3.11 1.16 9.88 6.17 12.66l-.25-.29 9.83 15.32-.3.42.22-.74-6.22-27.16-.17-.15c.09-3.84 2.27-5.87 5.85-6.67l4.26 3.88.13 4.35c-2.18 2.27-2.16 4.79-.87 7.46.59 2.47 1.19 4.93 1.86 7.36 1.52 0 3 0 4.54-.1l.15-.41-.18.8-4.86-.32 1.6-7.33c4.72-4.2-1.68-5.16-2.33-7.89-.11-1.24-.23-2.47-.36-3.72l-4.24-3.86a6.39 6.39 0 0 1 .61-2.83l6.35-6.32 2.8-6 6.13-3 3.3-3.55 3.31-3.06q2.78-4.63 5.57-9.26l7.39-2.53.22.2-6.69-.5-.34-.56.5.62-.76 3.09c-3.61.69-7.6 2.54-9.16-3 1.09-2 2.18-3.91 3.25-5.9l.16-.5-.22.85-6.34 2.32-9.32 6.42c.37-3.52 1.16-7.17-2.95-9.28l-3.38-3.33q-1.27.05-2.54 0l-3.3 3.32-2.84 3.17-3.76-.17q.07-4.72.13-9.45c.33-.3 1-.68.92-.89a13 13 0 0 0-.92-2.22l.29-10.3-6.47 4.32-3.09-6.49c1.1-1.86 2.2-3.73 3.28-5.62l.31-.36-.3.7c-5.63-8.41 2.2-10.51 6.64-14.17 1.27 2-2.38 9.86 5.21 4.35l4-4.05.63-.61s-.37.87-.39.89l-4 4.07-5.68-4.37C528 415 532.35 432.49 527.34 436l-3.86.14c-.69-2-1.48-2.78-2.55-.22l-9.64 3.11c-8.35-.17-.77-12.23-9.2-12.34-.46-4.7-.67-9.33 3.24-12.94l2.69 7 1.45 2.59 1.18-1.76c-1-.19-1.91-.38-2.85-.6l.41-7.2c3.37.76 6.73 1.52 10.07 2.33-.43 3.13-.86 6.27-1.23 9.46l.11 1-.21-1.39c2.55-2.68 2.41-5.72 1.21-8.91-3.31-5.62-5.43-11.5-3.89-18.16 2.57.71 7.53-2.81 6.32 4.57-.42 2.57 1.22 11.06 8.36 4.46 4.39.24 8.59-.23 12.05-3.41l8.21-2.26c4.47-.8 8.29-2.55 10.27-7h9.37c-1.78 3.14-3.56 6.29-5.29 9.47-1.27 3-2.55 6.05-3.76 9.12l1.09 2.42-1.25-2.66c2.51.13 5 .27 7.54.43l-.1.25a2.87 2.87 0 0 1 .43-1.85l.2-.45-.31.8-4.15-8.4c3.32.44 6.65.87 10 1.28l.44.3-.58-.5c-1.52-3.42-3-6.83-4.64-10.2l-8.8-.12-11.74 4.91C543.94 392 545 382 536.36 377l-2.46-4.45s.11-.23.07-.17l-.78 4.65c-1.9 2.78-1 4.12 2 5.41 5.51 2.34 7.06 5.67 1.16 9.66-1.65.58-4 .51-3.22 3.39q7.53 1.71 15.1 3.39a8.14 8.14 0 0 1 1.2 2.78l-8.25 2-12 3.55c-2.88-6.37-6-12.66-8.52-19.17-.88-2.28-.05-5.78-4-4-1.87.85-4.89 1.82-3.81 5.44.86 2.88 1.2 5.9 1.78 8.87l-3.13.17c-4.79-4.33-5.15 0-6.15 3.14h-6.43c1.12-5.85-1.9-9.17-6.87-11.33l1.1-4.26c.92-.43 2.11-.63 2.7-1.34.89-1 .18-1.78-1.07-1-.7.45-.88 1.73-1.31 2.63l-5.11.63-.75-.32.57-.64a3.38 3.38 0 0 0 .58.69l3.47 3.36c-3.6 5.49-9.86 4.07-15 5.74-.9-.39-1.09-3.66-2.79-.69l-.3.47.26-.7 3.11.6 3.06 6.07-3.38 3.26c-3.51 2.55-7.85 4.29-9 9.19l-6.65.06a16.52 16.52 0 0 1 .82-2.47l-.17-4.53c3.82-8.05-3.56-4.3-6.06-5.7l-7-2.71.08-3.52 7.19-2.15c2.83-.05 5.67-.11 8.48-.2l.23-.44-.2.8c-2.75-.56-5.51-2.07-8.3 0-2.76-.42-5.25-.06-7 2.47h-3.56c-.87-1.19-1.75-2.37-2.63-3.52l.34-.17 2.65 3.33v3.48l-1.36-.25 1-.11 3.51.08 7 2.85c.44 3.46 2.42 5.33 5.84 5.72l.24 5c-5 .32-9.72.92-7 8l3.31 3.29 15.48 12.33-.06 3.28-6.3 3.15-3.31-3.31c-1.23-4.86-5.43-6.73-9.14-9.09l-3.22-3.24h-3.1l-5.9 6.17-6.62 3.22c.52-1.86 1-3.72 1.5-5.63a15.77 15.77 0 0 0-4.74-9.89l3.85-3.83a2.37 2.37 0 0 1 .25.31l-3.87 3.76c-1.56 4.85 3 6.7 4.82 9.92a19.58 19.58 0 0 1-14.31-.53l.26-3.46v-3.08l.07-3.52c-1-3.68-3.53-4.91-7-4.68l.74-4.78 7.44-2c1.73-1.07 3.46-2.13 5.18-3.23l.29-.45-.31.79c-1.63 1-3.27 2-5 3l-7.32 2.32-4.17.62-3.3-1.92-.64.75c.16-.21.32-.43.49-.62 1.26.49 2.53 1 3.82 1.46l2.85 4c-3.35 5.5 1.47 4.23 4 4.85v3.55c-1 3 .1 5 2.88 6.27l3.3 12.18-3.28 3.22-5.94 2.91-3.3 3.32-3.48-6.27 3.58-3.58c4.38-2.94 3-5.93.06-8.91l.31-.19c-3.59 1.57-7.19 3.15-10.74 4.66-.17-5.42-.33-10.84-.55-16.26a5.17 5.17 0 0 0-1.07 0 33.33 33.33 0 0 0 1.71 16.09c-2.23 5.51-7.76 3.53-11.71 5.15.12-1 .26-2 .37-2.95l.3.27-3.63 2.68H384.1a7 7 0 0 0-2.61-.11l-.88-.38 1.15.11c-2.69 9.83-14.41 6.16-19.21 12.85l-3.3-3.3c.69-2.88 10.22-1.69 3.8-7.55-2.65-2.41-6.56-4.19-8.89 1.89-.64 1.66-3.17 3.48-4.13 5.79l.29-.28c-6 2-7.48 7.35-9.23 12.5L337.7 467c-5.35.09-9.94-1.3-12.58-6.49l3.26-3.32c3.43-.08 7.64 2.58 9.57-2.72v-3.24l-3.5-3.06c-2-3.76-2.91-7.18 2.6-8.8 4.06 2.66 8.17 5.48 10.84-1.53 1.74-4.57-.13-5.55-4.24-4.17l-.1-.69-.14.35c.7 5.22-3.36 5.4-6.71 6.34l-5.49-3.6v-3.76l3.58-3c5.66-6.23-1.4-9.91-3-14.71l-4-3.94a2 2 0 0 1 .29-.24l4 3.94-.22 12.13-6.46 3.18a23.44 23.44 0 0 1-2.94 0c-3.16-1.7-6.32-2.64-9.5 0l-9.06-2.73-3.96-3.94-.45-7.56c1.91-1.87 3.83-3.74 5.76-5.6l5.79.3 4.82 2.39c.06-.29.2-.82.2-.82-1.78-.55-3.55-1-5.35-1.51l-5.31-.47c-2 2-3.92 4-5.82 6.11.21 2.3.42 4.61.65 6.93l3.89 3.91-3.43 12.47-3-3.89a20.74 20.74 0 0 0-.58-3l.34.3-4.66 1.2c-.52-3.56-1-7.12-1.58-10.66l.26.21c-5.09 4.29-1.82 7.32 1.63 10.28 1.62.47 3.23.94 4.83 1.44l-.45 4.1-3.06 6.1c-3.2-3.82-6.4-1.42-9.6 0Q281.93 439 279 432.7v-3.32a6.79 6.79 0 0 1-.21-2.58l.1.37h-6.49c-.06-1.12-.12-2.25-.17-3.39l3.87-4a12.32 12.32 0 0 0 0-2.29l-4-3.75-3.94-.79-4.31 3.78-3.76 4.27c-2.16 1.66-4.33 3.31-6.44 5l-.13-.39c7.56 5.43 6.45-.38 6.36-4.92l3.82-4.26c1.43-1.13 2.87-2.26 4.34-3.36l4.39.46 4.07 3.75c0 .92-.06 1.84-.07 2.77l-3.92 4 .18 2.82-3 5.83c-2.66 1-1.33 2.05 0 3.06l-3.3 6.36c-4.9 4.37-7.86 11.28-15.59 12l-.35.51.49-.72c8.79 1.91 7.4 9.91 9.47 15.85l-3.21 3.52-6.75.11c-.87-3-2.68-4.39-5.86-3.49-4.93-2.58-8.66-3.08-7.76 4.46-2.22-.73-4.43-1.47-6.7-2.16l-5.38-.31c-1.5-.68-3-1.37-4.53-2l-.51-.31.79.41-2.45 10.57 7.87 5.08h3.42c-2.18-5.21-6.64-5.32-11.28-5.05 2.16-2.86 4.32-5.73 6.52-8.57l5.91.14 6.27 2.25c3.47 1.76 6.18 3.75 2.33 7.74l-.37-.43.64.55c-1 2.82-3.28 5.8-.16 8.48 2.94 2.52 4.52.36 5.65-2.29l-.32.27c7.46 1.26 4.33 8.16 6.51 12.23-6.62 2.34-12.72 5.33-15.51 12.45l-3.34-6.49.28.28c.28-1.66.57-3.33.82-5.06l.1-5.71-.68-.06a2.6 2.6 0 0 1 .59-.13zM207 504l.42.35-.75-.39a2.45 2.45 0 0 0 .33.04zm391.37-28.67v.31l-.37.42zm-402.83 10l-.53-.22.86.29-.19.52a4.2 4.2 0 0 0-.17-.62zm40.33 46.59c-.26-.33-.76-.7-.72-1a12.88 12.88 0 0 1 .68-2.24c-5.86-6.68-6.81 2.19-10.21 3.24l.54 2.78 3.4 3.39 5.55 5.66 3.88 4a2.07 2.07 0 0 1-.25.23l-3.92-4c.39-2 .79-4 1.17-6-.39-.27-1.15-.69-1.11-.8a15 15 0 0 1 1.11-2.07c-.07-1.11-.1-2.11-.16-3.22zM589 510l.41-.53-.41.53-.64.43zM424.75 398.4l-.24.28a2 2 0 0 0 .24-.28zM219.82 509.84l.24.26zm5.18-73.05c1.83-1.64 3.65-2 5.41.1 3.62.54 5.34 3.35 7.17 6 3.73 3.3 8 7.28 12.81 3.72 2.91-2.16-2-4.77-2.69-7.46l.33-.46-.28.76c-3.46 1.21-6.92 2.42-10.32 3.59l4.22-6.88.58-.4-.62.63c-2-1.18-3.91-2.37-5.91-3.57l.23.3c-1.77 1.2-3.55 2.41-5.34 3.58h-5.91l.15-.5s.11.62.17.59zm330.15 4.59a2.53 2.53 0 0 1 .24.3l-3.67 4-.49 6.39c1 3.3 3.51 2.86 6.06 2.42 1.48.62 3 1.24 4.41 1.9l-.33.82.41-.51-4.88-2 10.6-6.91c.21 3.87 2.13 6.21 6 6.79 2.18.47 4.37.95 6.54 1.47.58 1.78 1.16 3.57 1.78 5.32a3.6 3.6 0 0 1 5 0l4.73-3.53 4-4.09a2 2 0 0 1 .22.29l-4 4.08c-2.09.3-4 .82-4.74 3.16l-5.5.09-1.49-5a15.92 15.92 0 0 1 2.61-9.94c5.61-8.59-1.27-7.3-6.22-7.34l3.3-9.85c4-.76 4.67-2.77 2.22-5.91h.29l-12.48 4.34-.55-1.18q1.92-.64.21.94l7.23 1.8-3 9.76-9.2.14-.37-.48.58.36-.42 3.16c-4.38 3.37-8.77 6.74-13.13 10.07.12-2.28.24-4.56.37-6.86zm-314.27-23l-.06-5.6a1 1 0 0 0 0 .31 3.92 3.92 0 0 1 0 5.08s.02.2.04.16zm115.68 11.02l3.25-.08 6.1 3.3c.21 7.41 4.11 6.54 6.91 2.2 2-3.05 1.45-7.73 2-11.68l3.19-.05c.72.49-.06 2.95 2.07 1.59l-2.37-1.31c.19-2 .38-4.07.55-6.1-.16-.37-.5-.77-.45-1.11a15.11 15.11 0 0 1 .65-2.21l-3.66-.21a4.36 4.36 0 0 1-3 .45c-.84-1.09-1.68-2.19-2.55-3.26l-.41-.25.77.2-.76 3.33-2.85 6.46c-5.92 1.54-9.58-7.87-16.12-3.32l.26-.21c-7.17 9.58 6.81 4.13 6.36 9 .12 1.16.23 2.33.34 3.49zm-155.25 46.37l-.23.24-.67-4.39 2.16-1.13c-.73.46-1.47.91-2.16 1.42zm46.06 108.73l.42.32-.76-.28a3.22 3.22 0 0 0 .34-.04zm286.39-232.61l-.38-.42.68.5v.47a5.07 5.07 0 0 0-.3-.55zM259.9 591l.55.2-.82-.36.24-.6s.02.76.03.76zm223.46-229.57l.21-.25 3.85 3.4a2.14 2.14 0 0 1-.31.23zm-2.92 253.67c-1.32-1.89-.22-2.91 1.34-3.78a2.88 2.88 0 0 1-1.64-2.09c2.5-.61 5-1.22 7.43-1.89v.34l-7.41-1.25c-1.92-1.78-3.84-2.51-5.78 0l-4.72.78c-5.46-1.95-5 1.83-4.9 5.15l-.22-.29 5.52-5.1 4.31 2.46c2.41.57 4.82 1.15 7.19 1.74-.44 1.38-.89 2.76-1.32 4.15l-.35.47zm-50.27 25.43l.43.34-.75-.43.93-3.43-2.16-2.34-1 2.38c.84 1.16 1.68 2.33 2.55 3.48zm-52.06-.93l1-3.34s-.08-.24-.11-.21c-.33 1.28-.66 2.56-1 3.87l-.34.46zm77.51-6.22a2.17 2.17 0 0 0 0 .36l-.19.48zm-16 1l-.39.07a2 2 0 0 0 .41-.09zm-139.38-18.86l.36.69-.49-.67c-1 1.56-1.88 1.32-2.74-.1l-.46.48.6-.53 1.37-.18zm-9.24-6.26l.49.25-.81-.24 1-3.11 8.49.13.35.61-.56-.64c-2.7-1.53-5.33-1-8 .24l-4.71.26-3.35-1.89.1 1.13-1.35-1h1.08c1.26.5 2.53 1 3.83 1.47 1.1.95 2.23 1.88 3.44 2.79zm251.6-266.59l.29-.21 3 3.93.22.67s-.45-.41-.46-.43c-.98-1.34-2.01-2.63-3.05-3.96zM471 383.2l3.38-.1c6.46 1.43 8.66-4.52 12.62-7.4.12-.09-.42-1.76-.93-2-5.33-2-8.59 2.15-12.51 4.36-.9.51-1.77 1.07-2.63 1.61.07 1.22.07 2.38.07 3.53zm46.92-9.74l-.53-.24.74.43c1.87-1.24 2.88-.26 3.63 1.4l-.05-1.26 1.42 1.31c-.38-.06-.77-.11-1.16-.2-1.33-.49-2.68-.97-4.03-1.44zM248.65 559.1l-5.34-.54-1 6c-1.12-.55-2.24-1.1-3.4-1.62l.36-.12 5.13 10.25c2.36 2.82 5.23 2.14 8.15 1.17h6.21c-.13 2.32-2.12 5.13 1.13 6.59.74.34 3.19-1 3.42-2 .9-3.7-3.15-3.05-4.76-4.68h-5.9c-2.8-.26-5.6-.52-8.39-.83-.63-3-1.26-6-1.92-9.09.27-1.86.55-3.72.84-5.56l5.85.29a2.69 2.69 0 0 0-.38.14zm151.17 83.64h.81a6 6 0 0 0-.78.33l-.18.47zm98.59-284.49l.42.22-.79-.21 1.08-3.63c.92-1.82 1.83-3.64 2.77-5.47l.74-.31-.59.39a11.75 11.75 0 0 1-2.67 0l.27-.15c-.07 2-.15 3.91-.22 5.89-.34 1.08-.69 2.19-1 3.27zm62 71.52l.34.11-.73-.16v-.81a6.13 6.13 0 0 0 .39.87zM403.18 631.3l-.34-.69.43.57.41.79zm146.9-213.06l1.05-.43a5.54 5.54 0 0 1-.95.38l-8.54-.53c-.57-.78.7-3.2-1.92-2.14.72.64 1.45 1.29 2.2 1.91zm-309.42 8.86l.87.11-1.21-.23-.31-.64a6 6 0 0 0 .65.76zM549 566l-.41-.47.61.52zm21.47-65.14l.26-.24.26.79a7.14 7.14 0 0 0-.57-.54zm27.91-96.74l.48-.81-.45 1-.59.36zm-47.62-23.34l5.57.28c.08-1.54 3.77-1.5 1.74-4-.53 1.29-1.07 2.58-1.64 3.85l-6-.12.08-.68s.14.72.2.68zm-14-19.5l-.38-.51.62.55.77.49zm-323.4 121l.47.31-.76-.42-.53-.56zm365.47 14l1-.93a10.11 10.11 0 0 0-.81 1.34v8.15c-.31 2-.63 4-1 6l-1.14-.46.9.71c2.27-1.61 3.58-3.41 1.17-6zm-11.86-117c-.39.32 2.45-.94.19.32zM595.39 443l-.84.59a11.32 11.32 0 0 0 .87-1l.1-.39zm-303.3-28.5a9.8 9.8 0 0 0 1-.78 7.51 7.51 0 0 0 .66-.91c-.43.55-.87 1.1-1.34 1.63l-1.21-.37zm298-1.48h-.9l1.19.18c.59 2.21 1.18 4.42 1.78 6.65l-.29.47.26-.79c-.65-2.18-1.31-4.37-2.02-6.53zM278.82 596.1l1.3-3.76c-.48 1.34-1 2.68-1.42 4l-.36.44zm167.1-187.91l.17-.25.45 5.56 1.81-.39c-.83-1.63-1.65-3.27-2.44-4.92zm-64.4-.51l.36-.13a45.84 45.84 0 0 0 7.2 2c1.19.14 1.34-1.52 0-1.7a53.44 53.44 0 0 0-7.56-.16zm-155.07 53c6.47 2.58 4.32-3.85 6.22-6l.15.36-6.35 2.25c-.28.34-.82.73-.78 1a14.16 14.16 0 0 0 .75 2.43zm355.33 62.69l.93-.44-1.26.49c-1.57-1.68-2-4.64-5.08-4.66 1.78 1.59 3.56 3.15 5.4 4.65zM580 389.35l-.44-.29.76.24-2.81 6.7c.4.09 1 .39 1.19.23 2.39-1.86 1.7-4.42 1.3-6.88zm-381.24 64.93l-.38-.49.64.55c2.29.81 4.36 3 7.07 1.19.38-.26.55-.82.82-1.25zm203.86-57.66c-2.47 1.82-2.68 4.25-1.5 6.73.82 1.72 2.08 4.22 4.31 2.62.91-.65.43-3.61.15-5.45-.25-1.67.42-4.45-2.96-3.9zm136.15 185.07l-.13-2.51c-.4.06-1.12.1-1.13.19a22.27 22.27 0 0 0 0 2.48zm-197.68 42.24c-.21-.32-.37-.84-.66-.92a1.86 1.86 0 0 0-1.48.09c-1.06.92-.72 1.56.82 1.51.45-.02.89-.45 1.32-.68zm177.69-261.86c-.38-.12-.9-.45-1.11-.31a4.8 4.8 0 0 0-1 1.23 4 4 0 0 0 1.31-.08c.34-.13.54-.55.8-.84zm-295.63 183a3.62 3.62 0 0 0-.66-1c-.09-.08-.55.3-.84.47a3.57 3.57 0 0 0 .66 1c.11.08.55-.29.84-.46zm33.95 15.44l.34 1.62.79-.73zm283.58-191.15v1l.81-.52zM354.85 634.75v-1l-.81.4zm40-204l.19 1 .87-.59z" transform="translate(-38.9 -11.53)"/><path class="b95fc032-116c-411e-9166-a9e739baa597" d="M319.07 575.27l.27 3.26h-6.46l-3.19-3.18c-2.37-5.63-1.77-14-11.62-12.84-.42 0-.82 0-1.22-.06l1.52-.22c-1 2.39-.91 5.53-4.13 6.55l.35.26H291l.44-.22-12.72-2.7c-.2-1-.41-1.93-.59-2.9-.83-4.4 7.93-3.11 5.15-7.15-2.65-3.86-6.94 2.22-10.77.74v-3.32l6.59-9.27-.3.16c5 .44 7.05 7 12.67 6.21l-.4-.25c1.19 1.84 2.36 2.29 3.52 0l-.38.21c2 1.37 3.88 3.9 6.46 2.17 2.07-1.38.41-3.55-.27-5.33l-.28.42c7.69 2.27 12.4 12.15 22.32 8.72v3.37l-6 2.77a3.34 3.34 0 0 0 .36-.11l2.43 9.63-.16 3.08z" transform="translate(-38.9 -11.53)"/><path class="b95fc032-116c-411e-9166-a9e739baa597" d="M285.36 532c3.06-9.31-8.5-23.41 9.16-27.94l-.28-.28v3.39l.11-.34c-3.81 5.76-5.66 11.63-.92 17.86l.47.62-.42-1 10.3 1.45-.32-.24c3.24 5.37 6.48 8.5 9.68 0l-.41.16 6.54 3.22-.19-.39c-2.22 10-17.17 4.5-18.7 15.34l.3.33c-1.41-1.21-3.52-3.74-4.13-3.41-4.17 2.18-1 6.55-2.36 9.73l.38-.21h-3.52l.4.25-6.32-15.82v.41c-.24-.38-.7-.79-.66-1.15a14.63 14.63 0 0 1 .66-2.42zm111.52 12c-8-1.57-9 4.49-10.66 9.86l.33.1c-9-7.34-3 7.71-8.47 5.64l.18.36c0-3.61-.52-7-3.27-9.69l.33.14-6.52-12.62.21.39c-.62-4.56-8.05-1.23-7.44-5.52s5.71-3.13 9-3.76a35.42 35.42 0 0 1 4.58-.29v3.24c-.38.28-1.12.63-1.08.82a11.17 11.17 0 0 0 .88 2.09l2.57 4.1-.2.24c.22-1.48.43-2.93.63-4.38l18.76 3.07-.23 6.55z" transform="translate(-38.9 -11.53)"/><path class="b95fc032-116c-411e-9166-a9e739baa597" d="M300.47 485.48c5.15-5.65 10.44-2.84 15.72-.26 5.32 6.52 3.25 12.82-.58 19.06l.24-.32-3.09-6 .41-.37-.37.56c-1.26.24-2.51.49-3.75.7.54-2.17 1.06-4.31 1.57-6.48.14-1.82.29-3.62.45-5.42h-.72s.63-.14.62-.13c-.1 2-.19 3.94-.28 5.9l-1.6 6c2.38 8.21-.07 11.38-8.58 8.18l.28.23-6.54-3.33.28.28q0-4.77.09-9.55l-.37.37 3.37-6.58-.32.29 3.44-3.44zm2.4 16.19l.66-.38-1 .56c-.07-1.3 2.59-3.16-.77-3.8.35 1.24.7 2.48 1.11 3.62zm31.87-25.42c6.06 0 12.1-3.67 18.18-.11l.39-.34c-4.78 4.23-5.56 9.41-3.11 15 3.17 7.25 1.43 13.48-3.34 19.26l.32.11c-.47-4.37-.2-8.93-3.33-12.6l.19.37c5.55-6.28-.4-9.29-3.69-13a3 3 0 0 0 .29.15l-9.23-3 .33.35v-3.43l-.3.4 3.45-3.45z" transform="translate(-38.9 -11.53)"/><path class="b95fc032-116c-411e-9166-a9e739baa597" d="M335 501c-5-4.44-9.05-9.08-3.24-15.75l-.38.23c5.11 3.27 6.29 10.5 12.64 12.53l-.19-.37-3.45 6.56.27-.22-5.92-3.25zm30.62 74.45l-3.13-3.21-3.19-6.18h-.07c5.83 1.66 10.68-1.68 15.9-3.12l-.3-.16c1.29 3 5.26 6 .11 9.11l.27.25h-3.6l.42-.18-3.45 3.46.22-.32zm-62.07-55.86c6.14-1.47 12.26-6.76 18.46-.11l.37-.26-3.38 3.44.33-.26-6.56 3.32.41-.16c-3.23-1.53-6.46-1.9-9.68 0l.32.24v-6.4zm37.38 24.64c-5.46-8.06 7-7 6.4-12.56l-.37.28c10.33 10.43-4.2 8.13-6.26 12.22z" transform="translate(-38.9 -11.53)"/><path class="b95fc032-116c-411e-9166-a9e739baa597" d="M347.33 531.67c-4.54-.22-7.53-2.71-7.86-7-.18-2.33 2.74-1.94 4.61-1.93l-.26-.28 3.14 9.53zm21.47 6.1a14.06 14.06 0 0 1-12.51 9.28l.18.34c.89-7.54 7.32-7.56 12.53-9.23zm-52.9-52.24c0-6.92 3.92-7.91 9.55-6.23l-.24-.3v3.39l.08-.27zm28.18 37.16c.23-4.36-.5-9 3.1-12.5l-.32-.11c4.66 4.2 1.07 8.39 0 12.59l.22-.27h-3.26zM337.91 563h-3.42v-9.64c6.75 1.28 5 5.51 3.42 9.64zm-13.04-52.79l-2.1 1.44a13.06 13.06 0 0 1-.27-2.5c0-.32.66-.6 1-.9z" transform="translate(-38.9 -11.53)"/><path class="b95fc032-116c-411e-9166-a9e739baa597" d="M334.84 553.73h-3.39l-2-5.75.29.11c.93-.87 2.42-2.66 2.7-2.48 3.08 1.9 1.71 5.33 2.4 8.12zm15.33 24.39l3.3 3.28c-.85 1-2.19 3.07-2.48 2.93-3.22-1.54-2.4-3.87-.82-6.21zm.19-3.01c-2.76-1.87-4-4.15-1.52-7 .33-.38 2-.14 2.64.35 4 3.12.11 4.8-1.4 6.91zm.03-21.66l-6.16-3-.34.24c3.37-1.68 6.61-3.07 6.16 3zm-28.3-30.86l1.84 10.68.22-.17-5.07-4.55.19.39v-6.54l-.33.26 3.44.06z" transform="translate(-38.9 -11.53)"/><path class="b95fc032-116c-411e-9166-a9e739baa597" d="M329.4 548l-12 3.62.19-.1c3.5-2.93 7.75-3.2 12-3.42zm36.6 11.93c0-3.92 1.89-6 5.9-6.08l-.14-.34.32 3.2-6.41 2.95zm-54.12-8.57l-1.43-5.36 1.41-.21c-.09 1.86-.19 3.71-.26 5.56zm47.43 14.7c-.85-5.37 2.18-6.53 6.65-6.13l-.34-.27-6.38 6.44zm-24.56-65.38l-3.23 4-1.31-1.78 4.81-2zm-2.94 52.79c-2.75 2.63-6.17 3.24-9.79 3.29 2.78-2.53 6.23-3.09 9.79-3.29zm-7.88-20.2c2.88-1.14 5.77-2.33 8.05 1.06l.21-.29c-2.66-.34-5.31-.67-8-1zm29.18 20.41c-.36 1.32-.17 3.33-2.46 2.49-.37-.13-.19-1.77-.27-2.72l-.34.25h3.33zm-52.71-43.33c3.21 2.34 3.07 5.83 3.15 9.24l.22-.19c-3.67-2.26-2.48-6.1-3.06-9.36zm.1-3.45l-.1 3.45.31-.31-6.37-3.19-.11.34 6.55-.06zm40.85 61.53l.55 2.3c-.21-.36-.57-.71-.6-1.08a4.79 4.79 0 0 1 .31-1.47zm-9.56-83.22l-6.51-3.09-.08.27h6.55l-.33-.35v3.38zm-9.51 56.15l-1.56 1.64c-.89-2.32 1-1.2 1.8-1.46zm7.17-23.3l.34 1.32s-.12-1.3-.13-1.29z" transform="translate(-38.9 -11.53)"/><path class="b95fc032-116c-411e-9166-a9e739baa597" d="M356.3 547.05l-3.19 6.62.26.06 3.1-6.35zm-33.78-5.48v-3.72l-.24.3a11.92 11.92 0 0 1 .93 2.25c.05.24-.63.63-1 1zm18.42 5.58a4.82 4.82 0 0 1 0-2.92l-.22-.06v3.3zm3.28 3.29l-3.28-3.29-.22.32 3.16 3.2zm-26.79 1.15c-1.83-.09-3.66-.18-5.53-.25a1.32 1.32 0 0 1-.29 0c2 .06 4 .1 6 .15.01.01-.18.1-.18.1zm54.43 2.26l3.46-3.46-.32-.14-3.28 3.26zm-71.48-9.96q-.14 2-.28 3.9l.28-.42.3-3.15zm40.33 47.05v-3.46l3.43 3.43zm12.8-12.43h-3.5l.34-3.43-.28.22zm-26.73-58.17l2.65-2.26a.87.87 0 0 1 .22 0l-3.17 2.08z" transform="translate(-38.9 -11.53)"/><path class="b95fc032-116c-411e-9166-a9e739baa597" d="M326.48 520.19l-4.39 2.4.32.12v-3.5l-.37.26c1.57.27 3.14.55 4.74.84zm-3.91 17.66l-.24.31zm9.43-3.52l-.07.53s.23-.77.25-.79zm-16.39-30.04l.25-.33zm24.79-.13l.28-.24zm152.39-80.68a7.35 7.35 0 0 1-.22 3l.27-.29v3.61l-.34-.32.79 3.57-.22-.27c3.11 3.6 9.6 5.63 5.78 12.44l.33-.34c-2.37.43-4.74.86-7.09 1.26a5.91 5.91 0 0 0 .14-1.45 3.94 3.94 0 0 0-.49-1.08l.57 2.25c.24 4.83-5.84 10 .81 14.5l-.21-.26 3.18 6.32-.12-.31 9.48-2.32-.33-.31-9.57 13.35.08-.34-.87 5.19 7.43-2.79-.2 6.58.33-.3-3.46 3.46.35-.33-3.44 3.43.36-.29-3.34.17.32-.31q-.21 1.79-.41 3.58l.18-.42-6.25 3.54c-1.83-9.78-5-18.6-15.61-22.22l.28.39c-2.14-7.39-4.39-1.86-6.6-.05l.42-.18c-4.91-8.42 6.51-11.71 5.91-18.78 6.21 2.88 1.84 9.47 4.76 13.56 1.92 2.68 3.73 4.78 7.47 2.87 2.77-1.41 5.55-2.1 3.71-6.47-6.57-15.64-1-31.46-.25-47.21l-.32.38h3.5l-.39-.27 3.42 3.43z" transform="translate(-38.9 -11.53)"/><path class="b95fc032-116c-411e-9166-a9e739baa597" d="M449.31 476.16c5.22-4.32 10.61 5.38 15.81-.19l-.42.18 6.6.05-.28-.39-6 9.58c-1.71.92-6.06 0-4 3.63 1.65 2.94 4.9 2.12 7.07-.62.4 15.93-9.38 6.87-15.67 6.39l-3.11-6.59.29.11a6.74 6.74 0 0 1 .08-2.89l-.31.14v-3.58l.36.29-.12-6.45zm-21.42-30.95l-.35-3.39 9.54-6.32c1.78 2 2.8 6.21 6.28 4.39 3.69-1.92.6-4.94-.33-7.43 4.43.41 6.55 4.21 9.65 6.56l-.33-.37.07 3.47.2-.44-3.37 6.6.36-.21c-10.18-1.58-14 9.91-22.84 11.1l.17.29.92-8.26-.29.17c3.81-.07 5.14-2.89 6.4-5.79l.32-.41-.39.72-6.35-1zM424.81 501c-2.78-3.81-7-9.87-4.2-12.24 3.69-3.14 6.54 4.1 10.3 6l-.29-.29 3.48 3.48-.22-.31-9.35 3.1zm-15.95-27.82c1.48-.1 3-.26 4.43-.29 4.8-.1 10.43 2.82 9.46 6.32-1.07 3.84-6.78-.27-10.5-.18l.14.23-3.19-6.41zm-5.79-15.81l.6-9.2h-.31c11.19 4.74 10.22 12.62 5.57 21.47l.33.29c.18-5.42-1.67-9.81-6.47-12.69zm2.62 24.84l.09 3.11.36-.15c-5.28 0-10.18-1.13-14-5.15 4.59-.62 9-4.85 13.82-.75v-.37 3.58z" transform="translate(-38.9 -11.53)"/><path class="b95fc032-116c-411e-9166-a9e739baa597" d="M453 448.65c-.07 2.84-1.63 4.51-4.09 5.73-2.08 1-4 2.43-6 3.66-2.3-4.15 2.11-4.62 3.68-6.64.91-1.17 2-2.22 3-3.32l-.36.21a5.32 5.32 0 0 1 2.73-.68zm-3.41 27.19c-8 1.29-13.73.52-9.07-9.84l-.19.31a4.86 4.86 0 0 0 1.9-.33l-.29-.2c2.34 3.54 7.84 4.84 7.37 10.38zM412.1 495c3.71 3.11 7.5 6.07 12.71 6.06l-.28-.29-2.82 6.45c-3.49-.31-7.14-.18-9.67-3.31.38-.3 1.14-.72 1.09-.87a13.69 13.69 0 0 0-1.12-2.14l.36-6.31zm-15.27-31.16c-6.15-3.71-11.05-7.92-6.31-15.94zm18.32-12.78h3.38l3.23 6.63-.3-.24c-.79 1.93-2.13 4.44-4.17 3.28-3.75-2.15-2.42-6.2-2.14-9.67zm40.36-12l6.37 3-.21-.33.05 3.49.2-.33-8.9 3.72-1-1 .63-5.92-.2.44 3.44-3.43zm-24.6 55.68c-.7-6.15 2.34-5.26 6-3.17l-.26-.28.14 6.62.31-.33h-3.22l.22.31-3.48-3.48zm33.92-52.65l3.38-.32c-1 3.21-1.34 7.79-6.29 3.16l-.2.33 3.4-3.42zm-59.05 43.23c3.41 2.36 6 5.25 6.32 9.63l.27-.41-5.72-2.62.28.25-.79-7zM471.23 451l.07 6.49-5.74 3.74.29.16c-1.5-5.14 1.5-7.97 5.38-10.39z" transform="translate(-38.9 -11.53)"/><path class="b95fc032-116c-411e-9166-a9e739baa597" d="M477.59 450.74l-6.65.61c.91-3.43 3.26-5.42 6.51-6.51l-.14 6.17zm-22.24 6.11l1.17-2.52 1.2 1.49-2.62.74zM442.23 466l10.4-1.93-.27-.24c-2.94 3.33-6.63 2.78-10.39 2zm-1.71 0c-1.59 1.24-3.09 3.08-5.21.9a1.49 1.49 0 0 1 .05-1.46c2-2 3.64-1.26 5 .89zm-43.67 4.13l-.31-6.66 3.29.38-.25-.35 3.56 3.2-6.58 3zm30.76-3.13l.51 3.31-3.72-.31.08.08 3.43-3.44z" transform="translate(-38.9 -11.53)"/><path class="b95fc032-116c-411e-9166-a9e739baa597" d="M474.05 438.69c4 .73 6.56 2.19 3.25 6.55zm-58.52 3.23l-3.31 3.32c-1.6-.76-2.6-2-1.48-3.61 1.54-2.18 3.32-2.06 4.79.29zm21.37 49.65l2.76-3 .72 1.15-3.74 1.59zM412.25 479l-6.56 3.18.3.27v-3.58.37h6.43zm28.05 18.91l6.14-3.09-.29-.36.33 3.48-6.54-.37z" transform="translate(-38.9 -11.53)"/><path class="b95fc032-116c-411e-9166-a9e739baa597" d="M446.44 494.82l3.16-6.5-.29-.11.28 6.58-3.44-.32zm-56.11-53.05h3.42l-.8 6.7.28-.24-1.44-.14-1.43.17q-.02-3.26-.03-6.49zm34.1 3.1l3.47.34-.34-.35v6.52l.29-.17c-2.76-1.21-2.85-3.92-3.42-6.34zm-24.6 18.99l3.24-6.49-.29-.13.33 6.54-3.54-.26zm55.27-7.29c.09 2.79.11 5.56-2.75 7.24l.27.25q1.38-3.58 2.74-7.19zm-28.34 2.61l.85 7.78.29-.35-3.47-.05-.14.09c.9-2.37 1.79-4.74 2.66-7.15-.01-.03-.19-.32-.19-.32zm-4.99-1.51l-.3-.24zm-18.1-9.5l-.79-.28.47.28zm-10.67.3l.29-.26zm25.28 2.99v-3.55c2.04 1.19 2.44 2.38 0 3.55z" transform="translate(-38.9 -11.53)"/><path class="b95fc032-116c-411e-9166-a9e739baa597" d="M424.4 470c0-1.11-.05-2.22-.09-3.33l.13-.09v3.5zm-15.47-.37q0 1.77-.07 3.55l.34-.33c-.36-.3-1.08-.72-1-.89a12 12 0 0 1 1.08-2zm56.63-8.37l-.58-.4s.81.5.84.53a1.72 1.72 0 0 1-.26-.13zm-19.72 21.29l-.28.29zm3.84 2.88c-1.27-1-2.54-1.94-3.83-2.9l-.29.3 4.15-.54-.36-.29v3.58zm-12.9 12.48h3.52l-.36-.33.3 3.38-3.15-3.38zm22.02 55.52c-4.91-3.74-6.75 1.17-9.55 3.39l.33-.32c-5.82 4.07-14.46-8.18-19 3.28l.32-.18h-3.24l.27.3-.48-12.64c4.19-.57 4.73-3 3.21-6.4l9.72.18c-3 4.25-1.77 7.34 2.58 9.6l-.24.29c2.11-3.24 1-6.58.33-9.92h12.57c1 1.34 2.05 1.43 3.1 0l6.52 1v-.37l-.41 5.86.09-.37c.24.38.72.78.68 1.13a14.73 14.73 0 0 1-.68 2.43l-.25-.29-3 6.27.41.18-3.47-3.48z" transform="translate(-38.9 -11.53)"/><path class="b95fc032-116c-411e-9166-a9e739baa597" d="M458.69 572.57c.08 3.29 1.93 8.73-1.35 9.14-3.57.44-3.56-5.11-4-8.48-.9-7.31 2.46-13.51 5.44-19.79l-.28-.07 3.47 3.48-.41-.18c4 6.37 12.14 13.56-3.15 16.16zm-18.69-3.3c4.47.36 12.3 1.78 5.33 6.3-4.31 2.79-2.19 19.3-14.16 8.89l-.27.35c-.26-.38-.78-.79-.73-1.12a14.19 14.19 0 0 1 .73-2.44l.08.37-.4-6.55 3.31-.54.35.6-.42-.35a5.72 5.72 0 0 1-.06-2.91l6.79-.21-.28.23a10.7 10.7 0 0 1 0-2.9zm46.47-18.91l.3 9.57c-4.83-2.36-12.34 7.11-15.31-3.46l-.26.3 3.23-6.44-.25.26a14.64 14.64 0 0 1 3-.29c2 2 4.11 1.35 6.17 0l3.39.26zm-77.26 46.78h-3.33l-3.19-6.46c4.59-1.46 5.74-5.32 6.57-9.41l-.28.35h6.43l-.23-.24.25 6.39zm24.88 9.3c-4.7.76-9.42 1.6-12.74-3.17v-3.34c3.37-.53 7-.27 9.64-3l-.27.26zm12.32-21.73c1.82 2.93 7.73 1.32 7.49 5.83-.16 2.93-4 3.08-6.05 2.27-4.28-1.66-4.6-4.66-1.18-7.86z" transform="translate(-38.9 -11.53)"/><path class="b95fc032-116c-411e-9166-a9e739baa597" d="M421.6 600.32c-4.83-2.93-5.76-7.81-6.43-12.83 5.2 2.75 9.03 6.18 6.43 12.83zm52.78-24.99l-3.14 6.3h-3.42c.79-4.05.42-8.94 6.55-9.19l-.26-.24zm-43.24 9.13c-3.12 1.41-6.26 1.78-9.42.13l-.34.21 3.13-3.5 6.44.32-.08-.37v3.57zm43.29-34.13l-9.8.06.24.29v-3.56l-.09.37c3.24.72 6.91.15 9.41 3.11z" transform="translate(-38.9 -11.53)"/><path class="b95fc032-116c-411e-9166-a9e739baa597" d="M474.38 572.45l1.11-3.86 1.7 1.2-3.07 2.42z" transform="translate(-38.9 -11.53)"/><path class="b95fc032-116c-411e-9166-a9e739baa597" d="M401.39 554.62L401.6 553.72 401.07 554.29 401.39 554.62z"/><path class="b95fc032-116c-411e-9166-a9e739baa597" d="M418.48 581.33h-3.28l.22.24.85-2.22 2 2.22zm34.27 18.83h-6.69c2.21-3.04 4.45-1.68 6.69 0zm-3.5-43.33l.32-.32zm22.21-.36l-.26.31zm-34.18 49.71h-3.62zm-6.28-9.31l-.26.27zm9-.2l-.23.23zm-.26.22l3.44 3.57.2-.21-3.38-3.58zm-9.17-37.1l3.22 3.2.26-.17-3.16-3.21z" transform="translate(-38.9 -11.53)"/><path class="b95fc032-116c-411e-9166-a9e739baa597" d="M433.79 563l3 3.13.24-.28-3.36.28.34-3.31zm6.21 2.83v3.44l.3-.28-3.19-3.15-.24.28h3.46zm-18.28 18.75l-3.24-3.26-.18.29 3.35-.32-.27 3.5zm24.93.42s-.29-.25-.27-.24zM285.18 444.86c.8 8.55 8.46 3.94 12.4 6.46l-.32-.28 3.47 3.47-.27-.32c-1.69 3.42-1.32 8.23-6.36 9.38l.5.15c-4.29-3.32-8.58-2.24-12.88 0l.36-.22-3.41.3.35-.36a9.72 9.72 0 0 1-.08 3l-.53.43.51-.64 3.16.74-.3-.3c-2.73 5.08-1.12 17.89-12.73 7.15l-.24.31c3.85-4.95 2.11-11.27 4.1-16.67l-.27.32v-3.62l.14.42-3.42-3.58.27.2-3.36-9.45zm-.6 11.46l1.31-.24-.83-.71zm-27.45 16.55l3.21-.1a42.62 42.62 0 0 1 4.25 4.14c2.13 2.71 5 6 1.71 9.13-5.25 4.9-5.52-3.68-9-4l.17.24h-6.73l.17-.24c-3.54-3.38-5.28-7.67-6.26-12.35l6.32 3.4zm37.48 21.65c-4.73-.33-6.17 4.41-9.54 6.18l.18.26-3.4-3.42.25.36v-3.45l-.12.28 6.87-13-.24.32a11.65 11.65 0 0 0 2.85.24l-.23-.26c.25 2.37.5 4.73.73 7.07l-.22-.25a12.22 12.22 0 0 1 2.84-.28l-.32-.27v6.6z" transform="translate(-38.9 -11.53)"/><path class="b95fc032-116c-411e-9166-a9e739baa597" d="M303.59 472.85l-6.2 3.38c-3.32-6.25-9-8.77-15.6-9.64l.3.3v-3.42l-.36.22h12.88l-.5-.15 9.62 6.47-.28-.29.07 3.35zM254 513.51c-2.84-3.82-2.79-8.38-3.25-12.81h3.29c3.57 3.48 8.41 2.14 12.59 3.31l-.3-.26c-2.91 4.74-10.22 3.94-12.33 9.76z" transform="translate(-38.9 -11.53)"/><path class="b95fc032-116c-411e-9166-a9e739baa597" d="M269.79 494.57c-4.13 5-11 3.22-15.88 6.44 1.35-11.86 9.92-5.92 15.88-6.44zm27.76-18.72l2.92 9.64.27-.31-3.44 3.44.32-.29h-3.4l.32.28-3.36-6.61.23.26c-.3-4.36 2.66-5.63 6.14-6.41z" transform="translate(-38.9 -11.53)"/><path class="b95fc032-116c-411e-9166-a9e739baa597" d="M278.95 497.61l-9.65-2.94c4.23-3.21 8.45-4 12.64.05l.12-.28-3.4 3.4zm-9.89-23.87l-2.79-6.86 2.28-.35c.1 2.49.2 5 .28 7.49zm3.86-16.36c-2.51.37-5.37.8-6.46-2-.84-2.18.88-3.66 3.17-4.09l-.27-.2 3.46 3.46-.15-.42v3.62zm7.5 26.99l-2.07 1.7a9.77 9.77 0 0 1-.87-2.07c0-.25.75-1 .92-.9a12.61 12.61 0 0 1 2.02 1.27zm-23.17-2.32c-2.15 3.13-4.29 3.57-6.39 0l-.17.25h6.73zm2.88-8.87v-3.59c2.2 1.19 1.95 2.41 0 3.59zm-15.23 15.21l-.31.27zm43.91-6.67l-.25.34zm-16.25 59.62l-3.14-3.2c-.22-1.05-.45-2.1-.66-3.15 1.22-.95 2.42-1.89 3.63-2.84l.16.27-3.49 2.83c-3.91-4.51-2.68-8.18 2.2-10.68 8-4.14 9.13 5.45 14.11 7.45l-.26-.4v3.57-.41c-2.54 3.12-7.89 2-9.57 6.44l.17-.33zm-18.65-24.75v-3.56c2.3 1.2 2.41 2.39 0 3.56zM266.67 504l-.31-.25zm12.05-3.28l.28.28zm6.35-.02c-1 1.81-2 1.64-3 0l-.26.26h3.43z" transform="translate(-38.9 -11.53)"/><path class="b95fc032-116c-411e-9166-a9e739baa597" d="M279 501q0-1.69-.06-3.38l-.29.23h3.44l-.25-.36v3.45l.26-.26h-3.36zm260.43 15.53l-3.27-.34.29.25-3.4-3.41.31.15c-1.08-3.26-3.44-3.93-6.49-3.21l.2.27c0-11.85-2.15-20.12-15.62-9.25-4.74-6.32-12.42-4.28-18.59-6.55l-.18.42 3.43-3.44-.36.29 3.44-3.43-.35.33 3.46-3.46-.33.3 3.28.38c1-1.48 2-1.63 3 .07 14.2-2.38 2.89-10.51 3.59-15.94l.27.29-3.66-6.8-.36.37 9.71-.36c2.44 6.64-.63 16 9.41 18.88l-.28-.28c-1.81.9-3.63 1.8-5.46 2.72a2.59 2.59 0 0 1-.37.1h.75c1.42 5.15 10.69 2.71 9.81 9.51-1.49 11.47 7.08 11.06 14 12.79l-.26-.26z" transform="translate(-38.9 -11.53)"/><path class="b95fc032-116c-411e-9166-a9e739baa597" d="M524 451.06c-.95 4.87 8.82 15.24-6.53 12.7 1.67-4.49-6.47-14.01 6.53-12.7zm-.1-15.15l3-.2c-1.48 9-2.64 9.25-15.75 3l9.51-3.14zm-18.81 12.33c4.58 4.51 3.59 10.09 3 15.59l.36-.37h-3.32l.33.31c-3.77-5.25-1-10.54-.08-15.82zm-.02-3.33v3.33l.27-.28c-3.68 2.2-7 3.69-6.18-3.1l-.33.34h6.53zm-12.5-18.45l9.82-.14c-2.47 3.64-6.22 3.25-9.89 3.14l.34.32v-3.61zm40.69 18.37l.07 6.57h-3.45c.52-2.52.41-5.35 3.38-6.57zm-2.96 6.4z" transform="translate(-38.9 -11.53)"/><path class="b95fc032-116c-411e-9166-a9e739baa597" d="M527.17 451.34h-3.57c1.19-2.03 2.4-2.07 3.57 0z" transform="translate(-38.9 -11.53)"/><path class="b95fc032-116c-411e-9166-a9e739baa597" d="M466.48 433.68L466.72 433.04 466.17 433.38 466.48 433.68z"/><path class="b95fc032-116c-411e-9166-a9e739baa597" d="M337.93 451.15v3.35c-3.3.43-7.51-1.94-9.35 3l-3.12 3.16c-3.5.2-6.92.15-9.22-3.16l-.33.11c5.43-2.19 4.64-4.39 0-6.61l.33.33c-.42-7.45-10.33-13.42-3.44-22h9.65C316 443.51 317.58 446 334.74 448zm30.94 9.54c6 .48 4.51 5.79 5.92 9.23l.23-.32c-6 6.36-11.55 14.35-21.7 6.21l-.39.34c6.86.52 9.44-3.42 9.91-9.54l-.34.3c4.54.24 5.61-3 6.47-6.46zm-71.28-9.38l-.29-3.31 6.22-2.67-.09-.3H307l-.09.31c2.4 1.67 5.49 2.63 6.25 6l-9.68 3 .28-.21h-3.31l.27.32-3.45-3.45zm27.86 27.99c1.48-2.56-1-8.68 5.81-6.47l.34-.17v3.66l-.19-.45v3.5l.3-.4h-6.53z" transform="translate(-38.9 -11.53)"/><path class="b95fc032-116c-411e-9166-a9e739baa597" d="M303.5 454.39c3.34.71 6.3 1.81 6.2 6l.27-.07c-5.25 1.14-6-2.28-6.19-6.18zm43.36 12.48c2.38-3.25 4.69-6.62 9.51-6l-.15-.36v3.32l.16-.34zm-34.1 2.79c-1.83 4.58-4.52 6.7-9.17 3.2l-.07.24 9.62-3.13zm-3.07-9.23l3 6.54.38-.28-3.07-6.33z" transform="translate(-38.9 -11.53)"/><path class="b95fc032-116c-411e-9166-a9e739baa597" d="M362.83 466.61a7.37 7.37 0 0 1-6.44-3.17l-.17.34c2.46.3 5.06.3 6.26 3.12zm-50.08-15.54l3.52.3-.33-.33v6.6l.33-.11zm-.04 15.93l6.78 2.46.2-.29-6.93.51.38.31v-3.28zm31.04-.22h3.58z" transform="translate(-38.9 -11.53)"/><path class="b95fc032-116c-411e-9166-a9e739baa597" d="M319.49 469.44s.16-.26.18-.28-.18.28-.18.28zm21.22-2.53v-3.51l3.41 3.44z" transform="translate(-38.9 -11.53)"/><path class="b95fc032-116c-411e-9166-a9e739baa597" d="M337.54 466.6h3.57c-1.2 2.03-2.4 2.59-3.57 0zm-6.28 6.23l3.48 3.42.15-.33h-3.48l.19.45v-3.66zm71.68 102.6c-2.32-7.11-9.28-13.59-2.95-21.87l-.36.2c10.07-2.18 6.16-9.79 6.17-15.88l6.17 3.17 6.63.05q1.49-.12 3-.29l3.24 6.57c-1.53 2.66-3.89 2.62-6.55 2.24-6.09-.85-5.47 4.61-4.7 7 2 6.07 5.29-.73 8.07.1l-.24-.27-2.89 12.82h-9.59l-6.24 6zm4.1-13.76l-1.6-2.73a11.82 11.82 0 0 0-2.61 2.46c-.23.4.73 1.5 1.15 2.28z" transform="translate(-38.9 -11.53)"/><path class="b95fc032-116c-411e-9166-a9e739baa597" d="M409.27 581.28c-4.51 0-10.15 4.91-12.78-3l6.45-2.83-.26-.18c2.35 1.88 5.71 2.76 6.31 6.38zM390 576.1l-4.36-5.69c.42-.16.94-.58 1.25-.46 3 1.17 2.23 4.15 2.94 6.45zm10-22.53c-4.95-1.92-3.52-5.92-3.12-9.58l-.34.35c3.82 2.23 3.68 5.76 3.1 9.43zm-24.91 28.09l-6.27-6.53-.22.32 3.45-3.46-.42.18h3.6l-.27-.25q.04 4.87.13 9.74zm12.79-17.27l-1.14.45v-1.81c.39.08.9.05 1.13.29s.03.68.01 1.07zm-1.66-10.55l.78.19a3.15 3.15 0 0 0-.43-.1 2.16 2.16 0 0 1-.35-.09zm-8.14 5.74l-3.23 3.24.3.16-.27-3.35 3.39.31zm92.84-139.42c5.73-1.07 10.16-3.94 12.84-9.25l-.31.16h3.33l-.31-.3 3.43 3.43-.28-.3-.1 3.23.34-.21-3.46 3.44.32-.38-6.23 3.52c-3.49-.2-7.18.06-9.57-3.34zm3.08 15.72l6.49-9.68c-1.04 3.95-1.07 8.6-6.49 9.68zm3.32 15.12l1.89 1.63c-2.35.94-1.23-1.13-1.62-1.88zm3.08-24.34v-3.57 3.57zm-102.21 43.29c2.5-2.83-5.87-12.34 5.85-9.51l.35-.16c-.32.38-.95.81-.89 1.13a13.34 13.34 0 0 0 .9 2.48l-.22-.43-2.77 6.5-3.47-.26zm12.29-3.2l6.37 3.38-.3-.42c-.83 1-2 3-2.43 2.9-2.57-1-3.68-3.15-3.59-5.91zm-28.17-9.1l6.56 3 .09-.24-6.33-3.15z" transform="translate(-38.9 -11.53)"/><path class="b95fc032-116c-411e-9166-a9e739baa597" d="M359.3 454.17h3.44q-.21 1.74-.43 3.47l.32-.35h-3.21l.35.14zm15.49 15.75h3.4l-.24-.24.33 3.44-3.28-3.53zm9.21-9.48l3.13 3.29.35-.25h-3.34l.22.43v-3.61zm3.16 3.29l3.32 3-3-3.24zm-3.11-21.84h3.61zm170.88 21.58l3.18 3.2-.38 9.43.26-.31v6.72l-.31-.12-2.84 5.72.24.32h-3.6.4c-4.34-1.42-3-10-6.56-8.43-4.46 2 .83 7.63.1 11.75l.23-.3-6.63.22c-3.3-4.11-7-7.77-12.11-9.55l.28.28-.11-9.36-.24.26c5.74 1.17 11.24 1.3 15.58-3.58l3.16.25 3-3.26 3.1-3.19zM533 451.07h3.38l2.83 6.53.28-.3H533h.12zm6.21 9.33a8.14 8.14 0 0 1-6.19 6.16l.31.32-.18-6.25h-.14 6.47z" transform="translate(-38.9 -11.53)"/><path class="b95fc032-116c-411e-9166-a9e739baa597" d="M533.15 460.63v-3.32h-.13v3.41zm9.46-3.37v3.44l-3.38-.29.27.28v-3.4l-.28.3z" transform="translate(-38.9 -11.53)"/><path class="b95fc032-116c-411e-9166-a9e739baa597" d="M494.12 455.03L493.98 455.45 494.43 455.35 494.12 455.03z"/><path class="b95fc032-116c-411e-9166-a9e739baa597" d="M527.09 473l-.24.26zm-167.51-22v3.54c-2.03-1.16-2-2.33 0-3.54zm-3.21 9.83l3.39-3.41-.35-.14-3.19 3.19zm-6.37-9.48l.29-.28zm201.63 49.4l3.46 6.44-9.65-.26.26.26-.34-3.28 6.54-3zm-2.89 15.68l-1.17 2.3c-2-1.75-.18-2 1-2.45z" transform="translate(-38.9 -11.53)"/><path class="b95fc032-116c-411e-9166-a9e739baa597" d="M506.55 517.32L506.98 516.91 506.31 517.03 506.55 517.32z"/><path class="b95fc032-116c-411e-9166-a9e739baa597" d="M573.45 488.44l-3.07 3.33-6.38-6.39c4.25-9.43 8.54-3.06 12.82 0zm-21.86 3.03v6.49l.27-.27c-2.39-1.79-5.59-2.77-6.22-6.29l-.23.3h6.48z" transform="translate(-38.9 -11.53)"/><path class="b95fc032-116c-411e-9166-a9e739baa597" d="M564.23 485.08v9.8c-2.23-3.28-2.32-6.54 0-9.8zm-6.5-8.99l3.52-.21-3.56 6.49.31.12v-6.72zm12.44-6.45l3.49 3.49zm-15.09 27.96l-3.45 3.14.27.18v-3.25l-.27.27zm6.17 3.4l-3.5-3.5zm-6.4-12.91l-3.26 3.37.32.22v-3.31h-.4 3.6z" transform="translate(-38.9 -11.53)"/><path class="b95fc032-116c-411e-9166-a9e739baa597" d="M558.2 497.83h-3.61c1.2-1.37 2.41-1.15 3.61 0zM328.55 615.74h-3.32l-2.77-9.56-.28.29 3.39-3.4-.42.18 3.34-.21 12.51 3.09v3.38c-4.15 2.03-9.61 1.49-12.45 6.23z" transform="translate(-38.9 -11.53)"/><path class="b95fc032-116c-411e-9166-a9e739baa597" d="M328.58 600.16l-3.44 3.1.42-.18h-3.43l.3.31-3.43-3.48.26.17 2.85-9.46h6.5c.83 3.19 1.58 6.38-.03 9.54z" transform="translate(-38.9 -11.53)"/><path class="b95fc032-116c-411e-9166-a9e739baa597" d="M322.46 606.2c-4.17-.42-9-.51-3.21-6.12l-.26-.17 3.45 3.45-.3-.31v3.45zm-15.83-5.9v-3.48h3.5zm-62.07-90.37l.59 3-2.1-.45 1.75-2.23z" transform="translate(-38.9 -11.53)"/><path class="b95fc032-116c-411e-9166-a9e739baa597" d="M244.8 510.22s-.25-.27-.25-.28zm285.31 52.71l-3.1 3.21a20 20 0 0 0-2.94-.32v.17h-3.62v-.17c-4.11 1.23-8.21 2.42-12.39.25a18.07 18.07 0 0 1 9.65-12l.37-1.09-.11 1.36-9.83-1 .3.31-6.44-3.36.24.34c2-4.28.52-7.38-3.3-9.67l.24.38c-.13-2.92-1-7.12 4-5 3.59 1.5 6.31 5 9.74 7a5.85 5.85 0 0 0 8-2 10.46 10.46 0 0 0 1.69-7c-.44-2.59-3.71-4.77-5.72-3-9.6 8.44-12.19-3.82-18.2-5.72l3.36-3.38c2.18-.64 5.39.86 6.06-2.93h3.41l1.25 2.56 1.18-1.36-2.74-.88v-3.45l6.3-6.22 6.35 3.48-.23-.2c-3.63 11.81 8.51 14.4 12.66 21.66l3.13 6.24v3.26c-2.88 2.34-8.59.08-9.38 5.8l-.15.56.18-.89a12.68 12.68 0 0 1 9.42 6.9 13.9 13.9 0 0 0-9.38 6.16zm-.79-47.12l.57 6.65.3-.27c-1.42-1.92-2-3.92-.61-6.12z" transform="translate(-38.9 -11.53)"/><path class="b95fc032-116c-411e-9166-a9e739baa597" d="M529.58 516.08l3.78-2.89-.31-.15v3.45l.17-.24-3.84-.43z" transform="translate(-38.9 -11.53)"/><path class="b95fc032-116c-411e-9166-a9e739baa597" d="M536.16 516.19l.22 3.49-3.2-3.43-.17.24h3.44zm-9.28-6.19l-3.19 3.25.23.2 3.16-3.18z" transform="translate(-38.9 -11.53)"/><path class="b95fc032-116c-411e-9166-a9e739baa597" d="M490.99 510.93L491.44 511.32 491.29 510.66 490.99 510.93z"/><path class="b95fc032-116c-411e-9166-a9e739baa597" d="M297.66 448.33l-3.5-3.5zm-.45-9.54h3.63zm6.31 6.54h3.41l.07-.33h-3.59zm229.39-68.65h3.57c-1.19 2.61-2.38 2.41-3.57 0zm.04 18.92l3.49-3.48zm-52.41 9.23l-.28-3.31c5.17-3.8 10.36-4.41 15.59-.09l-.32-.22 3.67.29-3.71 12.66.27-.2-6.15-.06.28.3-3.43-3.43.31.3q-.28-3.22-.55-6.44l.26.19-6.21-.26zm28 9.34h-3.47q0-3.32.08-6.63zm-13.05-.03l.28-.21zm-5.98 2.97l3.36 3h.11-3.48l.39.27v-3.47z" transform="translate(-38.9 -11.53)"/><path class="b95fc032-116c-411e-9166-a9e739baa597" d="M492.87 420.1q0 1.69-.08 3.38h.14q0-1.73.06-3.47zm12.22-18.64l3.48.05-3.44 3.49-.04-3.54z" transform="translate(-38.9 -11.53)"/><path class="b95fc032-116c-411e-9166-a9e739baa597" d="M505.35 404.49v3.55c-2.2-1.18-2.16-2.37 0-3.55zm-173.95 28.2a11.78 11.78 0 0 1 .84 2.07c.05.23-.5.59-.78.89-1.15 2.88-3 6.31-6.25 4.33-4.87-2.93 0-7 0-10.62h6.51zm164.37 121.03l.28-3.33-.3.2h6.51l-.24-.34c-.67 3.75-3.27 3.97-6.25 3.47z" transform="translate(-38.9 -11.53)"/><path class="b95fc032-116c-411e-9166-a9e739baa597" d="M469.32 541.85L469.16 542.3 469.62 542.16 469.32 541.85z"/><path class="b95fc032-116c-411e-9166-a9e739baa597" d="M463.28 551.52L463.64 551.01 463.01 551.21 463.28 551.52z"/><path class="b95fc032-116c-411e-9166-a9e739baa597" d="M508.52 565.78l-3.52 3.49zm55.48-124h9.66q0 6.4-.07 12.8l-6.36-6.38z" transform="translate(-38.9 -11.53)"/><path class="b95fc032-116c-411e-9166-a9e739baa597" d="M573.34 442.15v-3.49h3.5zm-151.68 176.7h-3.32l-3-3.3-3.35-3c2.51-3.89 4.45-8.36 9.65-9.53zm24.79-3.2l-3.18 3.18h-3.35l3.16-9.63h3.39zm28-232.53h-3.5v-3.51zM372.07 590.61l-.31.31zm3.08 0v3.44h-3.42l.33-3.42-.31.31zM269.41 435.93v-3.45l6.61.06z" transform="translate(-38.9 -11.53)"/><path class="b95fc032-116c-411e-9166-a9e739baa597" d="M279 429.3v3.47h-3.46zm12.13 155.45c-.67-3.52-3-5.33-6.29-6.27.58-4.32 4.08-6.65 6.59-9.66l-.43.18h3.58l-.35-.26 3.4 6.47-3.14 9.49z" transform="translate(-38.9 -11.53)"/><path class="b95fc032-116c-411e-9166-a9e739baa597" d="M300.81 575.37h-3.61q1.8-2.03 3.61 0zM458.56 423.5l.27-3.41-.28.29 3.45-3.46-.34.32 6.39-3.43 3.25 6.49zm25.2-12.59l-3.19-3.2-.3.18 3.18 3.19z" transform="translate(-38.9 -11.53)"/><path class="b95fc032-116c-411e-9166-a9e739baa597" d="M477.09 404.58l3.46.24-.26-.27v3.33l.3-.18zm49.71 161.24h3.41c-.1 3.6-.12 7.22-3.37 9.73q-.01-4.87-.04-9.73zm-2.73 0h-3.54v.17h3.62zM359.42 429.66l-3.27-3.26 9.63-6.1 2.88-6.45H372l3.16 9.58-6.46 3 .23-.15-3.44 3.44.28-.29zm-9.56-12.32s.26-.24.26-.23zm53.31 173.48zm-58.95 15.59h-3.51v-3.51zm163.95-204.62l3.47-3.47z" transform="translate(-38.9 -11.53)"/><path class="b95fc032-116c-411e-9166-a9e739baa597" d="M365.53 432.84l.26-3.45-.28.29 3.44-3.44-.23.15c3.71 4.52-1.2 4.76-3.19 6.45z" transform="translate(-38.9 -11.53)"/><path class="b95fc032-116c-411e-9166-a9e739baa597" d="M193.35 495.32L192.79 496.17 193.62 495.6 193.35 495.32z"/><path class="b95fc032-116c-411e-9166-a9e739baa597" d="M325.08 565.6l.32.24zm214.05-21.43l3.47-.06v3.5zm-260.05.06l-3.34-3.35-.17.33 3.22 3.18zm145.78-123.97zm-89.97 9.4h-3.47v-3.46zm117.47-.29h3.42q-.13 4.85-.27 9.69l.34-.36h-3.5l.33.37zm12.64 9.25l-.21 3.47.29-.26-3.45-.07.21.33zm114.94-9.02z" transform="translate(-38.9 -11.53)"/><path class="b95fc032-116c-411e-9166-a9e739baa597" d="M452.67 426.27v3.47l-3.43-3.43zm108.65 99.43zM496 550.39l-6.38-3.12.2.25c-.3-4.34-.7-8.61-6.32-9.34h-3.13l-9.33-6.32c2.49-1.44 2.95-3.82 3-6.41 6.06 3.28 9.61-6.27 15.66-3.07l3.3 3.22q0 1.5.07 3v3.42c.77 2.82 1.53 5.64 2.34 8.49a3.47 3.47 0 0 1 .2.43l-.31-.8 3.91 1.16-.24-.38-3.2 9.63z" transform="translate(-38.9 -11.53)"/><path class="b95fc032-116c-411e-9166-a9e739baa597" d="M489.66 547.27l-3.19 3.09.28.22q-.13-1.72-.25-3.44l3.36.38zm-114.87 58.81l3.49 3.5zm21.9 9.73l-3.32-3.3c1.3-2.92 3.76-3.51 6.62-3.3zm-161.11-80.92v3.32h-6.43L226 535v-3.34h6.44z" transform="translate(-38.9 -11.53)"/><path class="b95fc032-116c-411e-9166-a9e739baa597" d="M235.56 528.52v3.5h-3.5zm-9.45-67.7v-3.66 3.66zm3.38 24.62h-3.61c1.2-1.34 2.41-1.33 3.61 0zm68.17 102.44l-3.49-3.49zm161.17-167.79l-3.38.27c.51-3.84 2.3-6.42 6.54-6.52l-.32 3.41.34-.32-3.45 3.46zm-27.78 217.32h-3.59c1.19-1.97 2.39-1.92 3.59 0zm-124.12-40.26h-3.43v-3.42h3.42q.01 1.7.01 3.42zm71.33-183.31q0 1.75-.05 3.5l-3.46-3.46zm43.03 9.36h3.47v3.45zm74.8 161.21v3.43h-6.53v-3.44zm-22.04 25.14v-3.43h6.53v3.43z" transform="translate(-38.9 -11.53)"/><path class="b95fc032-116c-411e-9166-a9e739baa597" d="M495.76 587.5h3.43v3.43h-3.44q.01-1.7.01-3.43zm-96.17-62.17c-5.38 8.6-11.61 2.85-17.65 1a6.94 6.94 0 0 1-.39-.6l.56.92-7.24 2.28c-2.29-8.09-14.36-2.57-16-11.52v.32c7.73-5.78 15.51-8.48 23.47-.47a5.23 5.23 0 0 0-1.48-.37 3.43 3.43 0 0 0-1.15.49L382 517l5.54 2.56-.33-.27c1.77 6.89 7.56 6 12.61 6.49zm-31.11-7.05l1.24.41c.12-.36.43-1 .32-1a1.88 1.88 0 0 0-1.2-.39c-.14-.04-.25.62-.37.98z" transform="translate(-38.9 -11.53)"/><path class="b95fc032-116c-411e-9166-a9e739baa597" d="M387.56 519.6c-.53-5-3.61-8.69-6.76-12.3l.17.22c-4.41-4.54-.16-11.42 1.23-11.87 5.88-1.9 5.92 4.18 6.08 7.56.28 5.78 5.19 6.87 8.12 10l.33-.18v3.59l-.14-.38c-1.2 6.79-6 2.7-9.34 3.11zm24.78-18.91v3.33c-2.71 1.3-3 3.78-3.1 6.34-2.36-1.28-6.89-1.38-5.61-5.11 1.09-3.18 5.14-4.25 8.71-4.56zM361.38 505c-1.92-.1-5.3 3.25-5.09-1.88.07-1.86 1.12-4.55 3.63-3.63.94.35.83 3.52 1.22 5.4a1.26 1.26 0 0 1 .24.11zm-10.88 17.6c2.76-1.4 5.47-.69 5.11 2.36-.4 3.48-3 2.94-5.13.74l-.29.19v-3.6zm16.65-17.69c.34-2.09.68-4.18 1-6.3l-.23.28c3 .52 4.83 2.47 4.09 5.26s-3.37.63-5.13.89zm15.76-18c-.66 0-1.18.21-1.5 0s-.26-.72-.38-1.1zm26.4 26.17l-3.45 6.44.37-.14-6.4-3.14-.18.39zm-13.74-19.24l-3.42 1.63c-.22-.82-.91-2-.6-2.39 2-2.56 2.86.52 4.3 1z" transform="translate(-38.9 -11.53)"/><path class="b95fc032-116c-411e-9166-a9e739baa597" d="M395.85 494c3.5-1.67 7.1-2.79 11.06-1.88l-.26-.24c-3.26 3-7.15 2.45-11.06 1.94zm-17.9-21.23h3.45c-.56 4.1-2.88 6-7 5.59l.28.26zm-12.39 19.28l3.32.48.14-.32c-.34 2.21-.67 4.42-1 6.65l.21-.26c-.8-2.26-1.57-4.54-2.35-6.82zm-6.73 25.37a2.75 2.75 0 0 1 0 .28 2.73 2.73 0 0 1 0-.28zm15.53-39.04l-.38 2.44c-.08-.34-.32-.75-.21-1a6.06 6.06 0 0 1 .89-1.16z" transform="translate(-38.9 -11.53)"/><path class="b95fc032-116c-411e-9166-a9e739baa597" d="M381.08 473.18v-3.59c2.07 1.21 2.12 2.41 0 3.59zm21.7-6.23v-3.52c2.14 1.17 2.33 2.34 0 3.52zM409 510l3.85 3 .2-.26-4.08.79q.03-1.83.03-3.53zm-12.62 3.17l3.25 3.45.18-.39h-3.25l.14.38v-3.59zm-45.9 12.53l-3.39-3.3-.23.27 3.63-.08-.31-.3v3.6zm6.35-37.54l-.25.21zm-.26.21a2.84 2.84 0 0 1 .23-.21zm9.28 3.42l-.29.26zm3.03.74l.3-.77s-.18.42-.17.44zM366.93 505c-1.82-1.55-3.65-1.74-5.53 0 0 0-.25-.11-.27-.09h6l-.2.09zm38.93 14.52c7 6.15 12.7 12.32.23 18.71h-3.34c.31-4.63 1.15-9.38-3.16-12.87l.26.48 6.38-6.44zM403.13 538zm-24.83-2.9h-3.47v-3.43zm21.7 3.01zm-24.84 21.83l-3.45-3.44zm67.97-56.15h6.44l-.44 6.34.35-.19c-10.79 7.14-3.26 9.7 3.13 12.56l-.25 3.23.21-.31c-6.24 7.18-9.33 1.94-12.46-3.16l.24.3-12.79-3.29.3.28-.32-3.35 10.17-3.64-.48.65.29-.41c-3.44-6.27 4.4-5.59 5.61-9.01zm31.19 22.01c-2.57.05-4.87.62-6.22 3.11l-3.27-.41.22.35c-.35-4.79 3.57-6.74 6.29-9.49l-.3.3c.32-.38 1-.81.9-1.12a12.7 12.7 0 0 0-.91-2.43l.24.47 2.73-9.72.25.28c-.91-1.48-2.94-3.55-2.53-4.34 2-3.75 5.72-1.95 8.85-2.1-1.22 8.59-2.51 17.15-6.25 25.1z" transform="translate(-38.9 -11.53)"/><path class="b95fc032-116c-411e-9166-a9e739baa597" d="M455.54 516.61l6.55-3.48-.27.29 2.88-6.18-.2.27c4.83 1.09 3.15 7.06 6.78 9.06l-.24-.47v3.55l.3-.3-15.84.19.26-3.28zm-9.4-18.94l3.17-3.2h3.37c.07 3.63-.13 7.18-3.31 9.7z" transform="translate(-38.9 -11.53)"/><path class="b95fc032-116c-411e-9166-a9e739baa597" d="M449.12 510.15c2.94 1.36 5.84 2.76 6.42 6.46l.22-.34-6.29-6.27zm37.75-12.51l-6.64 3.36zm-24.78 15.5l-.27.29zm6.13-24.51l-3.46-3.46zm-3.52 18.62l-.19.26zm37.51 2.64a61.23 61.23 0 0 1-8.49 2.81c-1.19.23-2.68-1.1-4-1.73 1.11-.61 2.2-1.24 3.32-1.83 5.85-3.06 11.71-6.1 18.67-5.09l-.35-.34q0 3.3-.05 6.59l.31-.31h-6.51l.43.26h-3.64z" transform="translate(-38.9 -11.53)"/><path class="b95fc032-116c-411e-9166-a9e739baa597" d="M517.74 510.31l-3.21-.33.16.29-3.37-6.56.35.34-.4-3.36c5 1.31 13.57.2 6.47 9.62zm-25.06 15.49v-3.35l9.58-6.3v6.5l-3.17 3.17z" transform="translate(-38.9 -11.53)"/><path class="b95fc032-116c-411e-9166-a9e739baa597" d="M505.3 516.19l-3.33.33q.13-3.31.25-6.63l-.35.34h3.64l-.43-.26v6.53zm-12.3 6.49h-3.48c1.19-2.39 2.36-3.02 3.48 0zm15.46-37.17h-3.39v-6.52c4.6.4 5.2 2.84 3.39 6.52zm3.37-15.51l-1.1 1 1.36-.73zm-6.35 9.1zm-77.6 37.42c-5.58-.93-8.22-3.82-6.48-9.66 4.13 1.9 5.37 5.73 6.48 9.66zm12.07-15.84l3.46 3.46zm18.89 40.65h-3.38l.34-12.67-.29.2c3.18 1.27 6.36 2.25 9.54 0l-.22-.35zm-34.38 6.21l-3.18-6.35c3.21-4.49 6.46-2.64 9.71 0l-3.18 6.38zm3.25-25.24c-1.87.36-3.71.59-4.91-1.4l5.07-1.33-.3-.28v3.33zm.16 9.7l-6.32-.55.19.26c2.42-4.58 4.36-3.91 5.93.56zm-9.23 9.27h-6.7c2.24-2.2 4.48-3.27 6.7 0zm21.64-3.39l-1.47-1.77c.33.21.82.34 1 .64a4.5 4.5 0 0 1 .19 1.43zM437 525.63q-2.9 4.94-5.89.05l-.31.15h6.34z" transform="translate(-38.9 -11.53)"/><path class="b95fc032-116c-411e-9166-a9e739baa597" d="M443.38 541.33l-3.39-.05q.14-1.7.29-3.4l-.31.3 3.59.35-.2-.28a17.69 17.69 0 0 0 .02 3.08zm-30.56-28.42l-.43.35s.56-.58.6-.59-.17.24-.17.24zm8.73 18.49l.19.26zm6.12.82a2.17 2.17 0 0 1 .19-.28 2.17 2.17 0 0 1-.19.28z" transform="translate(-38.9 -11.53)"/><path class="b95fc032-116c-411e-9166-a9e739baa597" d="M443.56 538.53a3.19 3.19 0 0 1-.22-.28zm-12.5-12.85l-3.35-3.38-.15.31 3.19 3.21zm9.05-3.4l-3.11 3.35.14.16 3.26-3.21zm15.7 6.39l-3.23-3.23-.21.31 3.16 3.12zm-31.11 52.97h-3.38l3.16-9.54c3.34-1.88 4.72-6.73 9.58-6.31v6.46l-3.21 3.09zm.11-9.35l-6.63-3.35zm-3.17-15.57l-.24-.26z" transform="translate(-38.9 -11.53)"/><path class="b95fc032-116c-411e-9166-a9e739baa597" d="M388.75 548.07L388.26 548.66 389.02 548.37 388.75 548.07z"/><path class="b95fc032-116c-411e-9166-a9e739baa597" d="M483.38 541.37l3.46 6.08-3.22 3.17h-6.51l2.88-6.26.3.17 3.46-3.46zm-18.16.63a3 3 0 0 1-.06-.39 3 3 0 0 1 .06.39zm15.07-4.1h3.37l-.28 3.43.36-.33h-3.47l-.17.11z" transform="translate(-38.9 -11.53)"/><path class="b95fc032-116c-411e-9166-a9e739baa597" d="M480 544.33a12 12 0 0 0 .83-2.17c.06-.29-.45-.69-.71-1l.16-.11v3.49zm-12.17-15.77l3.49 3.49zM408.85 569h3.55c-1.19 1.27-2.4 1.56-3.55 0z" transform="translate(-38.9 -11.53)"/><path class="b95fc032-116c-411e-9166-a9e739baa597" d="M264.82 458.5L265.14 457.92 264.54 458.22 264.82 458.5z"/><path class="b95fc032-116c-411e-9166-a9e739baa597" d="M539.38 491.29l6.34 12.86-9.59-6.62.28.28zm-3.24 6.24l.28.27zm-43.38 34.59v-3.62a15.47 15.47 0 0 1 .63 2.45c.03.37-.39.78-.63 1.17zm15.39-15.92l.31 3.46-3.16-3.47-.2.32h3.33z" transform="translate(-38.9 -11.53)"/><path class="b95fc032-116c-411e-9166-a9e739baa597" d="M511.6 516.53l-3.45-.33.27.31 3.15-3.17-.32-.16z" transform="translate(-38.9 -11.53)"/><path class="b95fc032-116c-411e-9166-a9e739baa597" d="M514.54 510l-3.28 3.2.32.17v-3.35l-.31.31h3.42zm-62.2 12.73l3.44-3.44z" transform="translate(-38.9 -11.53)"/></svg>