<svg id="490ceeec-8926-4d99-89cd-23fba2e42e98" data-name="Layer 1" xmlns="http://www.w3.org/2000/svg" viewBox="0 0 25 19.64"><defs><style>.\35 a4bd609-340d-40e0-8ec1-a79303262845{fill:#010101;}</style></defs><title>email</title><path class="5a4bd609-340d-40e0-8ec1-a79303262845" d="M25,2.23a3.69,3.69,0,0,1-.68,2.11,6.62,6.62,0,0,1-1.7,1.72l-6.53,4.53-.59.43-.75.53q-.3.2-.73.45a4.28,4.28,0,0,1-.8.38,2.23,2.23,0,0,1-.7.13h0a2.23,2.23,0,0,1-.7-.12A4.28,4.28,0,0,1,11,12q-.43-.25-.73-.45L9.51,11l-.59-.43L5.26,8l-2.86-2A6.93,6.93,0,0,1,.77,4.44,3.26,3.26,0,0,1,0,2.54,2.81,2.81,0,0,1,.58.73,2,2,0,0,1,2.23,0H22.77a2.16,2.16,0,0,1,1.57.66A2.14,2.14,0,0,1,25,2.23Zm0,4.1V17.41a2.24,2.24,0,0,1-2.23,2.23H2.23A2.15,2.15,0,0,1,.66,19,2.15,2.15,0,0,1,0,17.41V6.33A7.39,7.39,0,0,0,1.41,7.55Q6.46,11,8.34,12.36q.79.59,1.29.91a7.88,7.88,0,0,0,1.32.67,4,4,0,0,0,1.53.34h0A4,4,0,0,0,14,13.94a7.92,7.92,0,0,0,1.32-.67q.5-.33,1.29-.91Q19,10.65,23.6,7.55A7.72,7.72,0,0,0,25,6.33Z"/></svg>