<svg id="a8151f00-c184-4ee1-8ebf-634cf08a4d4e" data-name="Layer 1" xmlns="http://www.w3.org/2000/svg" viewBox="0 0 19.64 19.64"><defs><style>.\37 27fd2cc-8dd1-4b92-b464-469e46ce3622{fill:#010101;}</style></defs><title>phone</title><path class="727fd2cc-8dd1-4b92-b464-469e46ce3622" d="M19.64,15.51a4.62,4.62,0,0,1-.14,1,5.49,5.49,0,0,1-.29,1,3.74,3.74,0,0,1-1.7,1.48,5.42,5.42,0,0,1-2.59.71,5.28,5.28,0,0,1-.73,0,6.21,6.21,0,0,1-.8-.17l-.66-.2-.77-.29-.68-.25a12.59,12.59,0,0,1-2.44-1.16,20.67,20.67,0,0,1-3.69-3,20.68,20.68,0,0,1-3-3.69A12.68,12.68,0,0,1,1,8.38L.71,7.7.42,6.93q-.08-.22-.2-.66A6.07,6.07,0,0,1,0,5.46a5.28,5.28,0,0,1,0-.73A5.42,5.42,0,0,1,.71,2.13,3.74,3.74,0,0,1,2.19.43a5.58,5.58,0,0,1,1-.29,4.62,4.62,0,0,1,1-.14.78.78,0,0,1,.29,0q.25.08.74,1.06l.42.75.49.89.43.75.24.35a4,4,0,0,1,.3.5.91.91,0,0,1,.1.4,1.16,1.16,0,0,1-.4.7,6.85,6.85,0,0,1-.87.77A8.48,8.48,0,0,0,5,6.93a1.07,1.07,0,0,0-.4.64.94.94,0,0,0,.07.31,3,3,0,0,0,.12.29c0,.07.1.18.2.33l.16.27a14.65,14.65,0,0,0,2.43,3.28,14.63,14.63,0,0,0,3.28,2.43l.27.16.33.2.29.12a.94.94,0,0,0,.31.07,1.06,1.06,0,0,0,.64-.4,8.21,8.21,0,0,0,.74-.87,6.81,6.81,0,0,1,.77-.86,1.16,1.16,0,0,1,.7-.4.91.91,0,0,1,.4.1,4,4,0,0,1,.5.3l.35.24.75.43.89.49.75.42q1,.49,1.06.74A.77.77,0,0,1,19.64,15.51Z"/></svg>