<svg id="8c9700cf-c775-4a2f-b5ca-1f51a85e5ce8" data-name="Layer 1" xmlns="http://www.w3.org/2000/svg" viewBox="0 0 21.24 21.24"><defs><style>.\33 3bf6f87-1a8d-45a5-bf00-d07fda9e84bf{fill:#010101;}</style></defs><title>search</title><path class="33bf6f87-1a8d-45a5-bf00-d07fda9e84bf" d="M21.24,19.61a1.66,1.66,0,0,1-1.63,1.63,1.51,1.51,0,0,1-1.15-.49l-4.38-4.37A8.74,8.74,0,0,1,9,18a8.84,8.84,0,0,1-3.49-.71A8.8,8.8,0,0,1,.71,12.48a9,9,0,0,1,0-7A8.8,8.8,0,0,1,5.5.71a9,9,0,0,1,7,0A8.8,8.8,0,0,1,17.26,5.5,8.84,8.84,0,0,1,18,9a8.73,8.73,0,0,1-1.58,5.09l4.38,4.38A1.56,1.56,0,0,1,21.24,19.61ZM13,13A5.51,5.51,0,0,0,14.7,9a5.51,5.51,0,0,0-1.68-4A5.51,5.51,0,0,0,9,3.27a5.5,5.5,0,0,0-4,1.68A5.51,5.51,0,0,0,3.27,9a5.51,5.51,0,0,0,1.68,4A5.5,5.5,0,0,0,9,14.7,5.51,5.51,0,0,0,13,13Z"/></svg>