<svg id="873116c0-b57c-4033-9fe0-55690d6d2920" data-name="Layer 1" xmlns="http://www.w3.org/2000/svg" viewBox="0 0 29.03 29.26"><defs><style>.\33 0cf4d99-7b45-4f84-a2c5-6f4a2ef3d60e{fill:#010101;}.dde55336-7fb4-471e-ae5e-a0c4e853bb14{fill:#f8ea47;}</style></defs><title>social--pinterest</title><path class="30cf4d99-7b45-4f84-a2c5-6f4a2ef3d60e" d="M14.53,0A14.37,14.37,0,0,1,29,14.54c-.1,8.59-6.38,15-15.21,14.71A14.44,14.44,0,0,1,.07,16C-.82,6.67,6.83-.38,14.53,0Zm9.75,16.4-.17-.16v-.13l-.11.13v0h.12l.17.17.13.14,0,.05,0,.1-.06-.15Zm-18,.23,0-.07v-.22l0,0,0,0v.19l0,.09-.16.17c-.07.21.12.34.17.51l-.16.14h0l.16-.14.34-.14A2.37,2.37,0,0,0,6.36,17a2.71,2.71,0,0,0-.28-.15ZM5.17,10.88h0ZM24,10.77h0ZM5.7,15.59l0-.17h.06l0,0-.09.06-.12.17-.12-.25.1-.34c.13,0,.25-.11.25-.27s-.07-.06-.1-.05-.14.2-.14.33l-.11.34c-.19.17.11.42-.1.59H5s0,.08,0,.12a.15.15,0,0,0,0,.05C5,16.07,5,16,5,16h.39c.34.27.29,0,.34-.22ZM23.16,10.4v-.23h0a.15.15,0,0,1,0,.21h0ZM5.93,9.34h0v.22l.2.09h0l-.18-.09Zm.89,8.73h0a.15.15,0,0,1,0-.21h0Zm17.73-.44h0ZM4.47,17.07l0,0h0Zm18.57,0h0l.16-.16.3,0v.24c-.1.05-.14.12,0,.21h0l.06-.23v-.22l-.3-.07L23,16.66l.26-.11.29.12h0v-.16h0l-.31,0c0-.22,0-.56-.18-.58s0,.36-.19.48c0,0-.05.07-.08.1h-.22v0l0,0h.2l.23.09.16.16a1,1,0,0,0,0,.12ZM9.62,9.79v.16c-.12,0-.13.15-.14.25l.15.14-.26.13-.16-.13c-.12-.53-.26.05-.39,0v.28c-.06.15-.05.36.09.39s0-.19.11-.28a1.54,1.54,0,0,0,.19-.26h.17l.11.43h0c.32.15.56.1.69-.25v-.14a.55.55,0,0,1,.25-.4h0l0,0c.34-.26.59-.54.15-.93l-.68-.4,0-.1-.1.1H9.46c-.09-.17-.26-.1-.4-.13l-.15-.14a.4.4,0,0,1,0-.12L9,8.19h0l-.14.15-.53-.16h0l-.46.2,0-.19H8l0,.18a.13.13,0,0,1,0,.09l-.13.28-.27-.15c-.06.17.08.28.14.42L8,9.4c.11.32.43.3.67.39h0V9.67h.41l0,0,0,0,.28-.14.15.14ZM6.78,9.7h0ZM4.47,13.43h0l-.1-.13,0,0,0,0a.32.32,0,0,1,0,.12h0Zm1.9,2h0Zm18-.36h0Zm-.55-.3,0-.16h0l0,.18Zm.4-.13h0v-.18l.29,0h0l-.23-.15L24,14.12A.25.25,0,0,1,24,14l0,0,0,0-.14.26.45.1-.07.12ZM7.46,21.79h0Zm2-15.74-.08.15h0L9.47,6l0,0Zm6.2-.17s0,0,0-.05a.77.77,0,0,1,0-.1h0v.17l-.16.17-.26.53h0c0,.13.16.15.28.16h0L15.8,7h.26V6.7c0-.45,0-.45-.52-.53,0,0,0-.08,0-.12ZM19,21.79h0l.13.14h0Zm-8.21-16h0ZM21.58,21.94h0v0ZM6.37,20.86h0v0Zm3.51-14a.11.11,0,0,1,0-.11v0l0,0a.58.58,0,0,1,0,.12L9.72,7h0Zm9.63,14.6h.22l.15-.08.09.07v0a.19.19,0,0,1-.09-.08l-.13.09H19.5v0Zm1.68,0h0l-.17,0-.21-.31H20.6l-.09.16v0l.08-.15h.24l0,.31H21l0,.18a1.88,1.88,0,0,0-.09.31c0,.06,0,.07,0,0s0-.22,0-.33Zm0-.39h0v0ZM13.24,4.56l-.18,0L13,4.39a.17.17,0,0,1,0-.1l0,0,0,0,0,0,0,0,.11.18.17.13s.11.14.12.14,0-.18,0-.28Zm-.56,0h0v0Zm1.1.14h0l.12.13L14,5l0,.22h0c.09-.08.07-.14,0-.2l0-.19h.38L14,4.7h-.26Zm-.16,18.86a.38.38,0,0,1,0,.11h0s0-.08,0-.13l.17-.16c.12,0,.32.16.37-.09s-.13-.14-.23-.17h-.15v.15a1,1,0,0,0,0,.12Zm.32,1.11h0l0,0v-.23l-.09-.12h.36c.06,0,.06.17.17.06l-.18,0c-.11,0-.23-.11-.35,0l.09.1Zm2.78.09h0Zm-4.43-.54h0Zm4.72,0h.07l.05,0h0Zm-6.16.19h0l0,0v-.23l0-.11,0,.11Zm2.79-1.8h0v.18l-.28,0-.15-.26,0,0,0,0-.14,0c-.16-.25-.38-.06-.57-.07v-.25h0a.17.17,0,0,1,0,.23c.12.61.38.13.58.07a.49.49,0,0,0,.3.28.62.62,0,0,1-.3.41l-.13.44a1,1,0,0,0,0,.12s0,0,0,0v-.17l.27-.29a.74.74,0,0,0,.41-.5l.12-.16h-.13Zm2,0,0-.18h0l0,0-.13.17h-.11c-.17.24-.17.28-.06.3.32,0,.3.34.44.52l.27.26.13.28h.15s0,0,0,0a.57.57,0,0,0,0-.09L16,23.67q0-.2,0-.4l.19-.24-.05-.14,0-.16h-.13l.12.16,0,.16-.19.24h-.13l-.27-.53ZM15.53,5.21h0l-.16.16h-.06l0,0,.1,0Zm-.83,0h0l-.16,0,0,0,0,0ZM9.19,22.75H9l-.08-.29h0l.08.29h.15l.16-.17h0Zm10.37-.53h0Zm-.39.11h0Zm.65.11.16.16h.14a.88.88,0,0,0,0-.55l.33-.1.12-.07-.11.07a.32.32,0,0,0-.33.1c0,.18,0,.37,0,.55H20l-.17-.16-.16,0,0,.18c0-.06,0-.12,0-.18ZM12.42,5.51h.25V5.23h0l-.26.13h-.15l-.08-.23.09-.58h0a.71.71,0,0,0-.09.58c-.06,0-.16.06-.16.08s.16.08.25.13V5.5h0l0,0Zm.27,17.75h0ZM14.85,4.71a.34.34,0,0,0,0,.11h0s0-.09,0-.13Zm3.47,18.48v-.24h0v.22h0Zm-7.11-18,.16-.14,0,0v0l-.16.14Zm2.84,17.64,0,0,0,0v0ZM10.18,4.92a.14.14,0,0,1-.22,0h.23v0Zm9,18.08,0,0,0,0v0Zm-10.64.13,0,0h0ZM9.34,23l-.16.11v.3h0c0-.11,0-.21,0-.32L9.34,23ZM16.47,4.94h0l-.16.17-.13-.43V4.55h-.14v.14c0,.17,0,.34,0,.52s-.15.08-.06.17l0-.19.26-.09ZM6.29,18.87l.07-.23.18-.08h.12c0,.17,0,.34,0,.52s-.09.18,0,.25h0l0-.28c.23-.15.22-.32,0-.49a.28.28,0,0,1,0-.13h0v0l-.09.12-.19.09-.07.21H6.05s0-.2-.11-.06l0,.35.09.39-.19,0h0l.17,0c.32-.2.1-.29-.08-.39v-.37l.13.07ZM21.35,8a.17.17,0,0,1-.22,0V8h.23ZM6.77,7.78,6.8,8h0l.16-.13H7l-.19,0Zm2,0a.8.8,0,0,0,0,.11h0s0-.09,0-.13l.16-.16H9ZM23.18,18.56h0v-.17l.28,0h0c-.08-.11-.16-.09-.26,0Zm-.65,1.73.14-.13.12,0h0V20l.31-.11a.42.42,0,0,0,.24-.42h0l-.24.42L22.8,20h-.15v-.27h-.11l-.15.26v0h.27v.14l-.15.13Zm-2-13.44h0V7h0l.19,0,0,0h0Zm-.3,13.62h0ZM8.53,7.51h0Zm11.83,0h0l-.13-.15c-.24-.33-.43-.08-.63.06l-.12-.08h-.23v0h.25l.1.07a1.25,1.25,0,0,0,.64-.06ZM5.15,12.09v0l0,0,0,0Zm.69.81h0l-.13-.27h0Zm7.8-8.61h0v0ZM7.43,9.13v0l0,0H7.29c-.1,0-.24-.06-.25.11s.14.25.28.3l.14.27c-.13.09-.1.19,0,.29l.68.11v.14h0l.17,0-.19-.08c-.18-.3-.46,0-.68-.11V9.79c.1,0,.26,0,.21-.19s-.23-.06-.35-.05c0-.14,0-.29,0-.43Zm2.83-3.05h0Zm12.9,3.64V9.48l.3-.2h0l0,0-.27.13c0-.09,0-.18,0-.28v0c-.22.1,0,.17,0,.25a.15.15,0,0,1-.06.09.17.17,0,0,1,0,.22l0,0Zm-2.8-3.28,0,0,0,0H20l0,0,.06,0v.16l-.16.1s0,.08.08.09.19-.06.21-.19V6.43Zm-.94-.29,0-.29a.46.46,0,0,0-.43.08s0,.06,0,.1l.35-.17h.06l0,.31ZM10.81,4.8l0,0,0,0h0Zm8.35,1.65h0a.27.27,0,0,1,0,.12L19,6.73l-.38.52h0A.65.65,0,0,0,19,6.72l.17-.17A.07.07,0,0,0,19.17,6.45ZM7.68,7.28h0l0,0v0ZM5,12.49l0,0,0,0H5Zm19.78,1.75h0l0,0Zm-.28-.39h0l0,0ZM5,19.2h0l0,0Zm17.63-3.32h0l0,0,0,0ZM4.89,14h0v0Zm-.53.68,0,0,0,0h0ZM6,20h0v0Zm15.9-6.61.11-.29c.1-.09.35-.11.16-.34L22,12.62c-.07-.17-.26-.17-.38-.26h0l0,.4h0l.4-.13.16.17-.16.37-.12.28,0,0ZM5.56,18.82h0l0,0Zm16.66,2.1q0-.08,0,0l0,0,0,.21,0,.5h0c.43-.19.07-.32,0-.48ZM15,25.27h0l0,0h0Zm-.41-.1-.26,0,0,0,0,0h.25Zm2.84-.42,0,0h0l0,0ZM7.58,20.56s0,0,0,.05a.73.73,0,0,0,0,.1L7.7,21l.09.09h.06L7.69,21c.13-.17.27-.34.38-.51a.16.16,0,0,0,0-.23.7.7,0,0,1-.1.21.88.88,0,0,1-.22.12Zm4.83-13.8h0l.06.1ZM24.3,15.65,24,15.46h0a.32.32,0,0,0,.28.17ZM23.18,8.46l0,0,0,0,0,0Zm-13,12.88a.15.15,0,0,1-.22,0v.11s0-.07,0-.11h.24l.07.44h.53a.26.26,0,0,0-.36,0h-.19l0-.42.19,0v-.05l-.18,0A.18.18,0,0,1,10.18,21.34Zm7.76,2.31,0,0,0,0-.07.07Zm-1.37.71h0C16.61,24.26,16.56,24.38,16.57,24.36ZM19.82,5.5l0,0,0,0s0,0,0,0,0,0,0,0Zm4.32,6h0Zm-5,12.25h0L19,23.53l-.15-.18,0,.19c-.12.08-.28.13-.26.33l.25-.2Zm.67-.69.26.16v0h0a.27.27,0,0,0-.25-.14Zm3.51-9.65h0l0,.05.05,0ZM4.9,15.2h0l.07.06ZM15.52,4.8h0Zm-11,10.66h0Zm16.28,7.43-.09.07s0,0,0,0l.11-.12ZM5.05,17.58s-.06,0,0,0l0,0v0Zm.54.11v0c0-.09,0-.22-.13-.25h0Zm7.64,7.07s-.12.05,0,.12l0-.13,0,0Zm-6-6.58-.11.13.06,0,0-.17.12-.3c.41-.3.41-.3.28-.53H7.31l-.12.27c-.06,0-.18,0-.18,0s.1.17.18.25Zm5.49,5.88,0,.11.1-.11A.08.08,0,0,1,12.69,24.06Zm2.42-.66h0c.07,0,.11.16.22.08Zm9.42-9.94-.26-.12h0c0,.31.18,0,.25.1l0,0Zm-4.72,7.25c-.06.05-.18.1-.08.19s.15,0,.22-.06l.36.08a.44.44,0,0,0-.36-.21ZM19.29,6.87s0,.18.11.15l-.12-.16h0ZM13.23,24.33h0a.63.63,0,0,1,.27-.41v0l0,0A.29.29,0,0,0,13.23,24.33Zm7-16.26.43-.1V8l-.43-.19,0,0,0,0a.34.34,0,0,1,0,.13Zm3.22,9.69h0l-.23-.09,0,.1ZM16.73,5.35,16.89,5,16.8,5l-.07.36ZM5.27,16.52a3.63,3.63,0,0,0-.11.38,0,0,0,1,0,.08,0,3.4,3.4,0,0,0,0-.39l.05,0Zm15.36,3.69h0c.08.1,0,.27.2.3s.09-.1.09-.15C20.91,20.14,20.74,20.23,20.62,20.21ZM16.44,5.95v0c0,.16,0,.31,0,.47v0h.19C16.72,5.86,16.72,5.86,16.44,5.95ZM12,23.41l.26.18,0-.12-.31,0,.2-.27a.29.29,0,0,0,0-.06.14.14,0,0,0,0,0l0,.12c-.22,0-.54-.23-.57.23h0ZM7.86,10.62h0a1.25,1.25,0,0,0,.4.52c0-.05.08-.1.08-.15C8.34,10.66,8,10.74,7.86,10.62Zm3.2,12.86c.1,0,.11,0,.11-.1a.21.21,0,0,0-.19-.23c-.06,0-.16,0-.13.07A1.07,1.07,0,0,0,11.07,23.47ZM12.62,5.92c-.09,0-.1.07-.08.14s0,.21.08.23.11-.08.1-.16S12.74,5.94,12.62,5.92ZM11.54,24.2c0,.11-.08.16-.07.21a.5.5,0,0,0,.09.16.48.48,0,0,0,.06-.16A.78.78,0,0,0,11.54,24.2Zm-7-7.48,0-.09-.07-.11s0,.07,0,.09A.62.62,0,0,0,4.53,16.72Zm5.74,6.38s-.05-.07-.08-.07-.12,0-.08.11a.12.12,0,0,0,.1.05S10.24,23.13,10.27,23.09ZM5.84,8.91l0,0,0,0s0,0,0,0ZM19.59,23.52l0,0-.09.06,0,0Zm-4.28,1.21-.1,0s0,0,0,0l.1,0Zm-7.4-2.78v0l0,0Zm14.8-3.64,0,0h0s0,0,0,0Zm-13,3.37,0,0,0,0ZM6.42,15.07s0,0,0,0,0,0,0-.05,0,0,0,0S6.41,15.05,6.42,15.07ZM17,6.33v0h0ZM7.1,21.46v0l0,0Zm6-16.13,0,0,0,0Z"/><path class="dde55336-7fb4-471e-ae5e-a0c4e853bb14" d="M20.76,11a7.26,7.26,0,0,1,0,7.24,7.18,7.18,0,0,1-2.62,2.62,7.2,7.2,0,0,1-5.67.67A5.78,5.78,0,0,0,13.2,20l.51-2a1.56,1.56,0,0,0,.69.63,2.23,2.23,0,0,0,1.07.27,3.38,3.38,0,0,0,2-.64,4.17,4.17,0,0,0,1.38-1.77A6.32,6.32,0,0,0,19.36,14a3.86,3.86,0,0,0-.56-2,4.23,4.23,0,0,0-1.62-1.53,4.84,4.84,0,0,0-2.39-.59,6,6,0,0,0-1.84.27,4.78,4.78,0,0,0-1.45.72,4.93,4.93,0,0,0-1,1,4.29,4.29,0,0,0-.63,1.22,4.09,4.09,0,0,0-.2,1.26A3.74,3.74,0,0,0,10,16.07a2.12,2.12,0,0,0,1.1,1c.19.08.31,0,.36-.19l.07-.29.08-.28a.43.43,0,0,0-.1-.4A2.13,2.13,0,0,1,11,14.53a3.42,3.42,0,0,1,3.55-3.45,3,3,0,0,1,2.21.77,2.66,2.66,0,0,1,.79,2A5.35,5.35,0,0,1,17,16.55a1.89,1.89,0,0,1-1.65,1.12,1.15,1.15,0,0,1-.92-.41,1.06,1.06,0,0,1-.22-1q.07-.33.25-.88t.28-1a2.9,2.9,0,0,0,.11-.71,1.19,1.19,0,0,0-.25-.78.88.88,0,0,0-.72-.31,1.2,1.2,0,0,0-1,.53,2.15,2.15,0,0,0-.4,1.33,2.5,2.5,0,0,0,.23,1.15l-.93,3.92a6.24,6.24,0,0,0-.12,1.66A7.18,7.18,0,0,1,8.5,18.6,7.23,7.23,0,0,1,8.27,11,7.18,7.18,0,0,1,10.9,8.39a7.26,7.26,0,0,1,7.24,0A7.18,7.18,0,0,1,20.76,11Z"/></svg>