<svg id="b926dca3-d225-4182-b377-2eaced62ab62" data-name="Layer 1" xmlns="http://www.w3.org/2000/svg" viewBox="0 0 14.42 14.42"><title>social--instagram-nob</title><path d="M14.42,7.21q0,2.15,0,3a4.41,4.41,0,0,1-1.16,3,4.4,4.4,0,0,1-3,1.16q-.83,0-3,0t-3,0a4.4,4.4,0,0,1-3-1.16,4.4,4.4,0,0,1-1.16-3q0-.83,0-3t0-3a4.4,4.4,0,0,1,1.16-3A4.4,4.4,0,0,1,4.23,0q.83,0,3,0t3,0a4.41,4.41,0,0,1,3,1.16,4.41,4.41,0,0,1,1.16,3Q14.42,5.06,14.42,7.21ZM7.93,1.29H5.5l-.91,0a7.34,7.34,0,0,0-1,.09A3.72,3.72,0,0,0,3,1.59,2.46,2.46,0,0,0,1.59,3a3.81,3.81,0,0,0-.17.67,7.44,7.44,0,0,0-.09,1q0,.57,0,.91t0,1q0,.65,0,.72s0,.28,0,.72,0,.76,0,1,0,.53,0,.91a7.45,7.45,0,0,0,.09,1,3.78,3.78,0,0,0,.17.67A2.46,2.46,0,0,0,3,12.83a3.76,3.76,0,0,0,.67.17,7.44,7.44,0,0,0,1,.09l.91,0H8.92l.91,0a7.47,7.47,0,0,0,1-.09,3.81,3.81,0,0,0,.67-.17,2.46,2.46,0,0,0,1.37-1.37,3.69,3.69,0,0,0,.17-.67,7.47,7.47,0,0,0,.09-1c0-.38,0-.68,0-.91s0-.56,0-1,0-.67,0-.72,0-.28,0-.72,0-.76,0-1,0-.53,0-.91a7.45,7.45,0,0,0-.09-1A3.72,3.72,0,0,0,12.83,3a2.45,2.45,0,0,0-1.37-1.37,3.77,3.77,0,0,0-.67-.17,7.38,7.38,0,0,0-1-.09l-.91,0Zm1.9,3.3a3.57,3.57,0,0,1,1.08,2.62A3.56,3.56,0,0,1,9.83,9.83a3.56,3.56,0,0,1-2.62,1.08A3.57,3.57,0,0,1,4.59,9.83,3.56,3.56,0,0,1,3.51,7.21,3.56,3.56,0,0,1,4.59,4.59,3.57,3.57,0,0,1,7.21,3.51,3.56,3.56,0,0,1,9.83,4.59ZM8.91,8.91a2.31,2.31,0,0,0,.7-1.7,2.4,2.4,0,0,0-2.4-2.4,2.4,2.4,0,0,0-2.4,2.4,2.4,2.4,0,0,0,2.4,2.4A2.32,2.32,0,0,0,8.91,8.91Zm2.76-6.16a.86.86,0,0,1,0,1.22.86.86,0,0,1-1.47-.61.86.86,0,0,1,1.47-.61Z"/></svg>