<svg id="8d7d5f36-b121-4e98-8fd2-667e24adb1c8" data-name="Layer 1" xmlns="http://www.w3.org/2000/svg" viewBox="0 0 29.03 29.26"><defs><style>.\39 518450e-db1b-4302-ba4a-f8eeba5a55b3{fill:#010101;}.\37 c7d8d78-6717-4e8d-beb3-0a4795f63be1{fill:#f8ea47;}</style></defs><title>social--linkedin</title><path class="9518450e-db1b-4302-ba4a-f8eeba5a55b3" d="M14.53,0A14.37,14.37,0,0,1,29,14.54c-.1,8.59-6.38,15-15.21,14.71A14.44,14.44,0,0,1,.07,16C-.82,6.67,6.83-.38,14.53,0Z"/><path class="7c7d8d78-6717-4e8d-beb3-0a4795f63be1" d="M10.78,9.34a1.48,1.48,0,0,1-.47,1.15A1.77,1.77,0,0,1,9,10.95H9a1.69,1.69,0,0,1-1.24-.46,1.54,1.54,0,0,1-.47-1.15,1.51,1.51,0,0,1,.48-1.15,1.77,1.77,0,0,1,1.26-.46,1.72,1.72,0,0,1,1.25.46A1.57,1.57,0,0,1,10.78,9.34Zm-.2,2.87v9.3H7.49v-9.3Zm11.14,4v5.33H18.64v-5A2.71,2.71,0,0,0,18.26,15a1.34,1.34,0,0,0-1.19-.56,1.52,1.52,0,0,0-1,.32,2,2,0,0,0-.6.8,2.26,2.26,0,0,0-.1.76v5.19H12.29q0-3.75,0-6.07t0-2.78v-.45h3.09v1.35h0a4.05,4.05,0,0,1,.38-.53,3.93,3.93,0,0,1,.53-.49,2.44,2.44,0,0,1,.82-.41A3.73,3.73,0,0,1,18.17,12a3.34,3.34,0,0,1,2.58,1.07A4.47,4.47,0,0,1,21.73,16.19Z"/></svg>