<svg id="c13184ed-0ff1-4ce9-8bc6-8024e89a896d" xmlns="http://www.w3.org/2000/svg" viewBox="0 0 53.11 57.31"><title>tomato</title><path d="M27.57,13.33H25.65l.76,1.74a12.09,12.09,0,0,1,.52,7.51c-.32,1.49-1.28,1.74-2.41.64a14.54,14.54,0,0,1-3.92-7.14l-.14-.54-.37.43a10.75,10.75,0,0,1-8.41,3.86c-1,0-1.2-.49-1-1.28a6.94,6.94,0,0,1,1.81-3.32,10.62,10.62,0,0,1,2.41-2.45.38.38,0,0,0,.19-.5h0c-.1-.23-.33-.19-.52-.19-1.53,0-2.69-.89-3.89-1.66A1.2,1.2,0,0,1,10,9.11c.13-.57.54-.76,1.09-.94A12.32,12.32,0,0,1,18.33,8c.69.19.51-.16.44-.55A10.06,10.06,0,0,0,17,3.15C16,1.63,16.5.93,18.16.15a1.2,1.2,0,0,1,1.73.72,25.1,25.1,0,0,1,2.2,5.21,4.43,4.43,0,0,0,.2.56c.09-.16.18-.32.28-.47a8.2,8.2,0,0,1,6.59-3.74c.93-.05,1.09.42,1,1.19a7.69,7.69,0,0,1-1.56,3c-.5.74-.34.95.5.87A10,10,0,0,1,34.66,9c1.42.74,1.45,1.64,0,2.43A13.48,13.48,0,0,1,27.57,13.33Zm-7.95-1,.11.16.09-.18h.27c0,.2,0,.39.24.47l.11.33h-.08l.05.05.14-.35A1.49,1.49,0,0,1,22,13v.27l-.46.3c-.11-.14,0-.43-.22-.47s-.4.16-.46.41l-.06.07v-.1h.75a.46.46,0,0,1-.33.44h0c.32,0,.44.24.52.51v0l.45-.22c.16.08,0,.71.46.29l.43-.21c-.05-.09,0-.09,0,0l-.41.25-.51-.3V14h0c-.59-.06-.23-.5-.31-.77.17,0,.27-.11,0-.22l.25-.49c.41.09.59-.18.74-.5.42-.48.2-1.15.47-1.67l.37.56c-.1.06-.37-.09-.26.22l.23-.22c.59.07,1,0,1.12-.75l-.38-.49.23-.5c.36.15.46.71,1,.64V9.75l-.08.05c-.11-.49-.33-.84-.9-.81l-.15-.39-.2-.23c.2,0,.4-.19.6,0H24.8c-.22-.3-.39-.1-.57,0,.07.07,0,.27.21.21L24.36,9l-.5.21h0l-.17.47-.25.27c-.61-.15-.45.76-1,.71.51-.73-.44-1.26-.27-1.94,0,0-.13.07-.13.11a2.31,2.31,0,0,0,.12,1.72l.07.1L22,10.9c-.2,0-.24-.44-.4-.27a1.4,1.4,0,0,0-.07,1c-.38-.1-.12-.64-.51-.74.13-.44.33-.9-.11-1.25a6.12,6.12,0,0,0-.79.74C20,10,19.69,10,19.4,10h.08l.15.56v.06h0c0-.36.36-.2.53-.31-.21.45.59.39.42.82-.28,0-.6-.18-.74.23l-.62-.13c-.11.28-.25.34-.43.05-.13.09-.19.36-.43.2v.05h.07c.12.2,0,.34-.13.49L17.63,12h-.06c.24.08.46.24.74.14v.43h-.09s.05,0,.08.07c.77-.36.48.55.83.71l.15.55h0V14h-.09l.1-.14.42.13v-.17l-.42.09-.17-.52c.15-.24.3-.26.47,0h-.07a2.85,2.85,0,0,1-.81-1.81l.48-.06c0,.28,0,.51.35.59v.24l-.18.11Zm6.7-2.3h-.08V9.91a.27.27,0,0,1,.08.11Zm.23.75v-.05h-.23l.13-.12Zm-8,2.8v.12a.27.27,0,0,1,0,.09h.07s-.06-.07-.06-.1a.87.87,0,0,1,.09-.17l-.06.06v-.09ZM26,8.11l-.08.14-.05-.16H26a2.06,2.06,0,0,0,0,.3,1.41,1.41,0,0,0,.07.25Zm-2.27,4-.1-.31-.12.13.25.15v.27c0,.48-1.17.37-.58,1.15l-.26-.16h-.07l.32.12,1.11-.7h-.18s.07-.16.18-.15c.19-.63-.29-.46-.58-.51Zm-.32-3.34-.29-.28s-.1.11-.09.14a1.64,1.64,0,0,0,.17.26Zm1.71,2.9.18.07s.05-.07,0-.09l-.12-.14Zm-7.46-.6h.08V11s-.05,0-.08,0Zm5.46-1.6c.07,0,.2,0,.21-.08s-.12-.14-.21-.15a1.5,1.5,0,0,0-.22,0S23,9.44,23.09,9.47Zm3.16-.12h-.16s.05.06.08.06,0,0,.07,0Zm-8,3.55-.16.09.06.08.16-.1Zm6.29-1.39h-.16v.07l.12-.07ZM18.44,11h0Zm3.24-1V10h.07Zm3.83.49v.05h.06Z"/><path d="M22.25,10.91v-.27h.27v.27h-.27Z"/><path d="M19.82,11.35c.28,0,.58.14.72-.24h.27v.56h-1Z"/><polygon points="20.64 10.28 20.71 10.26 20.7 10.32 20.64 10.28"/><path d="M21.09,10.86l-.29.29Z"/><path d="M23,12.1c-.31.06-.68,0-.73.49a.92.92,0,0,1-.51-.51c.41.09.58-.18.73-.49C22.74,11.67,23,11.67,23,12.1Z"/><path d="M22.45,10.9c.38.16-.05.3,0,.45h0V10.9Z"/><path d="M23.42,9.91h.28l-.27.27Z"/><path d="M23.45,10.14Z"/><path d="M22.49,11.67c-.17,0-.26-.09-.24-.28h.27Z"/><path d="M24.17,9.91c.16.34.49.18.74.25-.4.21-.86.63-1-.25Z"/><path d="M23.66,9.95V9.67l.28.28Z"/><path d="M20.54,12.1l.24-.52.28.53Z"/><path d="M20.57,12.34h-.48l.51-.27Z"/><path d="M21.5,12.11v-.52c.23.1.19.34.27.52Z"/><path d="M21,12.07h.52C21.36,12.29,21.19,12.54,21,12.07Z"/><path d="M20.58,12.83H20.3l.27-.27Z"/><path d="M20.55,12.59v0Z"/><path d="M22,10.87h.27v.5h0C21.93,11.32,22,11.08,22,10.87Z"/><path d="M24.17,12.55v.28c-.2,0-.27-.09-.27-.27Z"/><path d="M23.66,12.31l.28.28Z"/><path d="M24.38,8.95h.28v.28C24.47,9.22,24.37,9.14,24.38,8.95Z"/><path d="M19.58,12.34v-.27a.27.27,0,0,1,.28.26h-.28Z"/><path d="M19.57,11.87l.29-.29Z"/><path d="M24.42,9.67l-.29.28Z"/><path d="M23.91,9.21H24V9.14Z"/><path d="M53.09,31a26.34,26.34,0,0,1-2.88,13.17,22.05,22.05,0,0,1-9.78,9.71,40.06,40.06,0,0,1-6.65,2.68,17.92,17.92,0,0,1-3.85.66c-7,.57-13.52-.74-18.83-5.76S1.74,40.93.37,33.82c-1.25-6.51.48-14.25,8.27-18,.28-.13.61-.44.88-.21s0,.65-.17,1c-.47,1.21-.69,2.4.21,3.51s2.06,1.26,3.53,1a15.54,15.54,0,0,0,5.72-2.3c.64-.37.86-.37,1.19.36a13.88,13.88,0,0,0,4.61,5.56,2.16,2.16,0,0,0,2.73-.12A4.53,4.53,0,0,0,28.91,22a14.36,14.36,0,0,0-.06-6.29c-.22-.84-.11-1.09.81-1.19A14.66,14.66,0,0,0,36.28,12a2.31,2.31,0,0,0,1.23-2.72c-.26-.87.15-.93.82-.94a12.63,12.63,0,0,1,10.62,5.49c2.62,3.49,3.53,7.51,3.94,11.74C53,27.26,53.09,28.92,53.09,31Zm-38,6.52V38l-.52.13-.26-.23-.41-.34v.11c0,.23.21.3.39.36l.34.08c-.15.61.14.79.7.72.29,1.13.91.36,1.42.25v.54c.31.09.38-.19.43-.4.12-.5.49-.53.88-.52.1,0,.26.06.28.13.14.48-.39.39-.54.62s-.32.62-.48.92h-.56v.08l.56-.08.62.38.26.26-.47.23h0l.43.75v.25c-.07.39.07.64.48.69a1.74,1.74,0,0,1,.24,1h0v-.05h.22l.51.5c.12.14.09.61.46.23l.23-1H21l.26.26c.17.2.34.49.5,0,0,0-.09,0-.09-.05a.9.9,0,0,1,.05-.17v-.28c.37,0,.42-.23.48-.49h0L22,42.35l1,.24a.77.77,0,0,1,0,.23h0l.11-.15c.35,0,.32.21.27.44h0l-.56.51h0l.22.49h0c.41,0,.41.26.29.56l-.33.2-.66.06c-.16-.59-.31-.07-.47,0-.43-.07-.56.47-1,.48l-.26-.26.24-.47h0a.43.43,0,0,0-.42.44v0l-.25.25h.25l.26.26.74,1.17-.25.25h0V47l.24-.26.7.08h.24c.36-.09.74-.14.95-.5l.26-.26.46.22v0l.72-.25a4,4,0,0,1-.63-.2.76.76,0,0,0-.76,0h-1v-.28a1.25,1.25,0,0,0,.66-.76h.57c.51-.41.51.94,1,.32.3-.37.08-.76-.31-1v-.28l.73-.49.25.26c0,.54-.56,1.23.45,1.43h.26V44c.34-.29,1,.47,1.18-.41h0l.54.15a1.66,1.66,0,0,0-.25,1l-.14-.13h-.43c0,.05-.22-.06-.17.13l.15-.12h.46c-.12.47-.58.66-.83,1l-.5.28-.45-.47h.06c-.14.36.1.62.21.92l-.39.58h0l.37-.36.29.31c0,.13,0,.35.2.32s.15-.22.22-.34l.28-.31.05-.17v.19l-.28.3H26l-.29-.31v-.27l.48-.18.23-.54c.42-.19,1.07-.13,1-.89h.5a.64.64,0,0,0,.48.52h.25c.64.69-.31.63-.45,1h-.28c-.09-.13,0-.44-.31-.35s-.25.32-.16.55l.27.27v.22L27,47.4h0a1.34,1.34,0,0,0,.75-.45c.7.14.38-.42.47-.69l.71.23.27.23V47h-.11l-.08.06.16-.13h.51c.45-.32.91-.75,1.31,0l-.7.14c-.11.13-.18.26.06.33h0v-.33l.7-.13a.17.17,0,0,1,.14-.07v.48h0l.21-.44.26-.26c.23-.17.17-.34,0-.5-.08.12-.15.11-.23,0L30.93,46l.5-.47h0a.44.44,0,0,1,.23,0h.74l.46-.78.3.31a1.58,1.58,0,0,1,0,.18h0a.39.39,0,0,1,0-.13l-.3-.31.53-.71.38.82h.44l.06-.07v.06H33.8l-.14-.8c.28-.07.24-.3.24-.5l1-.3v.44c-.19.18-.31.38-.16.64l.33.2a.2.2,0,0,1-.1.13v.45l.44.09v.6h.44v0h-.48v-.59L35,45.12v-.45l.55.13h.23l.36-.05v.06H36l-.31-.19-.26-.25v-.22h0v.06l-.45.21-.36.05.2-.68v-.41l.46-.48.19.56h0a.45.45,0,0,0-.18-.55l-.51-.44.74-.5a.93.93,0,0,0,.47.76h0l.25.48c.45.6,1.24,0,1.71.49a.28.28,0,0,1-.12.14c.11.14.32.23.18.47v.36h0v-.42l-.18-.49c.38-.17.75-.34.32-.83v-.26a.87.87,0,0,0,.74-.48h.19v-.71s.07-.05.07-.08a.68.68,0,0,0,0-.16L38.94,41l-.24-.49q0-.6,0-1.2l.25-.26c.33.24.09.76.48,1h0l.76,1.19h0v-.06l-.48-2.1h0a.51.51,0,0,1,.45-.52l.33.3v.34a.47.47,0,0,0-.07.58,2.37,2.37,0,0,0,.14.57h0l.12-.57c.37-.32-.13-.4-.18-.61v-.29l-.33-.3a.49.49,0,0,1,0-.22l.49-.49.22-.47.47-.23.26-.27.26-.24.43-.72.57-.2h0l-.75-.07h0l-.06.24c-.28.05-.59.2-.71-.23l.25-.46h0v.07l-.49.18-.72.5c0-.27.09-.56-.23-.72L39.87,35h-.2l-.26.26-.22.25H38.9v-.73s.08-.05.07-.07a1,1,0,0,0-.07-.17v-.8l-.5.33-.24-.5.25-.44h0v.05c-.44-.65.17-.81.51-1.1.1.15-.18.76.4.34l.31-.31h0v.07l-.31.32-.44-.34c-1.13-.83-.79.52-1.18.79h-.3c-.05-.15-.11-.21-.2,0l-.75.24c-.65,0-.06-.95-.71-1a1.08,1.08,0,0,1,.25-1l.21.54.11.2.09-.14h-.22v-.56l.78.18a6.09,6.09,0,0,1-.1.73v0a.61.61,0,0,0,.09-.69,1.86,1.86,0,0,1-.3-1.41c.2.05.58-.22.49.35,0,.2.09.86.65.35a1.2,1.2,0,0,0,.93-.26l.64-.17a1,1,0,0,0,.79-.54h.73l-.41.73c-.1.23-.2.47-.29.71l.08.19-.1-.21h.58a.22.22,0,0,1,0-.14h0v.06l-.32-.65.77.1h0l-.36-.79h-.68l-.91.38c-.31-.57-.22-1.34-.9-1.72L38.15,28h0l-.06.36c-.15.21-.08.32.16.42.43.18.55.44.09.75-.13,0-.31,0-.25.26l1.17.26a.63.63,0,0,1,.09.22l-.64.16-.93.27c-.22-.49-.47-1-.66-1.48-.07-.18,0-.45-.31-.31-.14.07-.38.14-.29.42a5.63,5.63,0,0,1,.14.69h-.24c-.37-.34-.4,0-.48.24h-.5a.74.74,0,0,0-.53-.88L35,29.1a.2.2,0,0,0,.21-.1c0-.1,0-.14-.08-.08s-.07.13-.1.2h-.46v.05l.27.26c-.28.43-.76.32-1.16.44-.07,0-.08-.28-.22-.05h0v-.05h.24l.24.47-.26.25c-.27.2-.61.33-.69.71h-.51a1.29,1.29,0,0,1,.06-.19v-.35c.3-.62-.28-.33-.47-.44L31.53,30v-.34l.55-.17h.66v.06c-.21,0-.43-.16-.64,0a.5.5,0,0,0-.54.19h-.28l-.2-.27h0l.21.26V30h.24l.54.22a.46.46,0,0,0,.45.44v.39c-.39,0-.75.07-.55.62l.26.25,1.2,1v.25l-.49.24-.26-.26c-.09-.38-.42-.52-.71-.7l-.25-.25h-.24l-.46.48-.51.25a1.93,1.93,0,0,1,.12-.44,1.22,1.22,0,0,0-.37-.77l.3-.3h0l-.3.29c-.12.38.24.52.37.77a1.52,1.52,0,0,1-1.11,0v-.78a.46.46,0,0,0-.54-.36h0L29,31l.58-.16.4-.25h0v.06l-.38.23-.57.18h-.32l-.26-.15v.06h0l.3.11.22.31c-.26.43.11.33.31.38V32a.35.35,0,0,0,.16.47l.06,0,.26.94-.25.25-.46.23-.26.26-.27-.49.28-.28c.34-.23.23-.46,0-.69h0l-.83.36V31.83h-.08A2.58,2.58,0,0,0,28,33.07c-.17.43-.6.27-.91.4v-.23h0l-.28.21h-.49a.54.54,0,0,0-.2,0h0c-.21.76-1.12.48-1.49,1l-.26-.26c.05-.22.79-.13.29-.58-.2-.19-.51-.32-.69.15,0,.13-.25.27-.32.45h0c-.46.15-.58.57-.71,1l-.26.26a1,1,0,0,1-1-.5l.25-.26c.27,0,.59.2.74-.21v-.25L22.47,34c-.16-.29-.22-.56.2-.68.31.21.63.42.84-.12.13-.35,0-.43-.33-.32h0c.05.4-.26.42-.52.49l-.43-.28v-.29l.28-.23c.44-.48-.11-.77-.23-1.14l-.31-.3h0l.31.3v.94l-.5.25h-.23a.6.6,0,0,0-.73,0l-.7-.21-.3-.3v-.58l.45-.43h.45l.37.18v-.06l-.41-.12h-.41l-.45.47.05.54.3.3-.27,1-.23-.3a1.59,1.59,0,0,0,0-.23h0l-.36.09a5.59,5.59,0,0,0-.12-.82h0c-.39.33-.14.57.13.8l.37.11v.32l-.24.47c-.25-.3-.5-.11-.74,0l-.45-1V32.6a.53.53,0,0,1,0-.2h-.17v-.26l.3-.31a1,1,0,0,0,0-.18l-.3-.54L17.78,31l-.33.29-.36.33-.5.39h0c.59.42.5,0,.49-.38l.3-.33.34-.26h.34l.31.29v.21l-.3.31v.22l-.23.45c-.21.08-.1.16,0,.24l-.26.49c-.38.34-.61.87-1.21.93h0v-.06c.68.15.57.77.73,1.23l-.25.27h-.52a.33.33,0,0,0-.36-.29l-.09,0c-.38-.2-.67-.24-.6.35l-.52-.17h-.42L14,35.42H14l-.19.82.61.39h.26c-.17-.4-.51-.41-.87-.39l.5-.66h.46l.49.17c.27.14.48.29.18.6h0c-.08.22-.25.45,0,.66s.35,0,.44-.18h0c.58.1.34.63.5.95a1.76,1.76,0,0,0-1.2,1l-.26-.5h0a.89.89,0,0,1,.06-.39v-.44h0Zm-2,.6Zm30.2-2.22Zm-31.2.8Zm3.12,3.61s-.06-.05-.06-.08a1,1,0,0,1,0-.17c-.45-.52-.53.17-.79.25v.22l.26.26.43.44.3.31h0l-.3-.31.09-.46-.09-.06.09-.16a.56.56,0,0,0,.05-.27Zm27.33-1.7ZM29.86,29.92ZM14,38.54Zm.4-5.65a.26.26,0,0,1,.42,0c.14.15.41.26.55.47s.62.56,1,.29-.15-.37-.21-.58h0v.06l-.8.28.33-.53h0l-.46-.28h0l-.41.28H14.4Zm25.55.36h0l-.28.31V34c.08.26.27.22.47.19l.34.15v.06h0l-.39-.17.82-.53a.5.5,0,0,0,.47.53h0l.51.11.14.41a.28.28,0,0,1,.38,0l.37-.27.31-.32h0l-.31.32a.35.35,0,0,0-.37.25H42l-.11-.39a1.23,1.23,0,0,1,.21-.72c.43-.67-.1-.56-.48-.57l.26-.76c.31-.06.36-.21.17-.46h0l-1,.34v-.09q.15,0,0,.07l.56.14-.23.75h-.71v.24l-1,.78v-.53ZM15.63,31.46V31a.3.3,0,0,1,0,.39Zm9,.86h.25l.47.26c0,.57.32.51.53.17a2.4,2.4,0,0,0,.16-.9h.25c.06,0,0,.23.16.12l-.18-.1v-.56a1.17,1.17,0,0,1,.05-.17H26a.34.34,0,0,1-.23,0l-.2-.25h.06l-.06.26-.23.5c-.46.12-.74-.61-1.25-.26h0c-.56.74.53.32.49.69v.24Zm-12,3.59h0l0-.34.17-.09-.17.11Zm3.46,8.41Zm22.16-18ZM17.09,44.82Zm17.3-17.76h0l.3.26h0Zm-.22,19.61c-.1-.15,0-.23.1-.29a.22.22,0,0,1-.13-.16l.57-.15h0l-.57-.1c-.15-.14-.3-.19-.45,0l-.37.06c-.42-.15-.38.14-.38.4h0l.43-.39.33.19.56.13-.1.32h0Zm-3.89,2h-.06l.07-.27-.17-.18L30,48.4Zm-4-.07.08-.26h0l-.08.3h0Zm6-.48ZM31,48.2ZM20.25,46.74v0c-.08.12-.15.1-.21,0h.21Zm-.72-.48h-.06l.08-.24h.66a.63.63,0,0,0-.62,0h-.36L19,45.87V46l-.1-.08h.08l.3.11ZM39,25.61h0l.24.3V26h0Zm-5.54,3.14h.26c.5.11.67-.35,1-.57,0,0,0-.14-.07-.15-.41-.16-.66.17-1,.34l-.2.12ZM37.09,28h.06c.14-.1.22,0,.28.11V28l.11.1h-.09ZM16.23,42.36h-.41l-.08.46-.26-.13h0l.4.79c.18.22.4.17.63.09H17c0,.18-.16.4.09.51.06,0,.25-.08.26-.15.07-.29-.24-.24-.37-.36h-.46l-.65-.06-.15-.7.07-.43h.45Zm11.7,6.47h0Zm7.63-22H35.5l.08-.28.21-.42h-.13v.46Zm4.8,5.54h0v0ZM28.19,47.94v-.05h0v.06ZM39.56,31.45h-.65c0-.06.05-.25-.15-.17l.17.15Zm-24,.69h0ZM39.47,42.89Zm1.66-5h0v0Zm2.16-7.49v0h0ZM39.6,28.59H40c0-.12.29-.12.13-.31l-.13.3h-.46v-.05l0,0Zm-1.08-1.51Zm-25,9.37ZM41.8,37.54l.08-.07-.06.1v.63l-.07.46h-.09l.07.05c.18-.12.28-.26.09-.46Zm-.92-9.06Zm2.21,4.89H43l.07-.08h0Zm-23.5-2.21.07-.06.05-.07-.1.13h0ZM42.65,31h0l.14.51h0V31.5ZM18.56,45.22l.1-.29-.11.31h0ZM31.49,30.67h0v.43h.14Zm-5,0h0a3.54,3.54,0,0,0,.56.15c.09,0,.1-.12,0-.13a4.13,4.13,0,0,0-.54,0Zm-12,4.1c.5.2.33-.3.48-.47h0l-.49.17s-.06.06-.06.08a1.11,1.11,0,0,0,.09.19ZM42,39.62h0c-.12-.13-.15-.36-.39-.36Zm-.14-10.37h.06l-.22.52h.09c.18-.16.12-.36.09-.55Zm-29.51,5h0c.18.06.34.23.55.09a.13.13,0,0,1,.06-.1Zm15.78-4.46a.38.38,0,0,0-.12.52c.06.13.16.33.33.2s0-.28,0-.42.08-.35-.19-.31ZM38.66,44.11v-.19h-.09a1.71,1.71,0,0,0,0,.19Zm-15.3,3.27s0-.06-.05-.07a.14.14,0,0,0-.11,0c-.08.07-.06.12.06.12s.09,0,.12-.06ZM37.09,27.11H37a.37.37,0,0,0-.08.1H37S37.09,27.13,37.09,27.11ZM14.25,41.27a.28.28,0,0,0,0-.08h-.06l0,.07S14.23,41.28,14.25,41.27Zm2.63,1.2v.13l.06-.06Zm21.95-14.8v.08h.06ZM24.45,48.21v-.08h-.06Zm3.1-15.79v.07h.07Z"/><path d="M21.68,43.61v.25h-.5l-.25-.25c-.18-.44-.14-1.08-.9-1h0c-.08.18-.07.43-.32.51h-.28l-1-.21v-.22c-.06-.34.61-.24.4-.55s-.54.17-.83.06v-.26l.51-.72h0c.39,0,.55.54,1,.48h0c.09.14.18.18.27,0h0c.15.11.3.3.5.17s0-.27,0-.41h0c.59.18,1,.94,1.73.67v.26l-.46.21h0l.19.75Z"/><path d="M19.09,40.26c.24-.72-.66-1.81.71-2.16h0v.24a1.09,1.09,0,0,0-.11,1.33h0V39.6l.8.11h0c.25.42.5.66.75,0h0l.51.25h0c-.17.77-1.33.35-1.45,1.19h0c-.11-.09-.27-.29-.32-.26-.32.17-.08.51-.18.75h-.27l-.44-1.17h0s-.05-.06-.05-.09a1.12,1.12,0,0,1,.05-.19Z"/><path d="M27.7,41.19c-.62-.12-.7.35-.82.76h0c-.69-.57-.23.6-.66.44h0a1,1,0,0,0-.25-.75h0l-.5-1h0c0-.35-.62-.1-.58-.43s.44-.24.7-.29h.35v.25s-.09,0-.08.06a.87.87,0,0,0,.07.16l.2.32h0v-.34l1.45.24v.51Z"/><path d="M20.24,36.67c.4-.44.81-.22,1.22,0a1.16,1.16,0,0,1,0,1.48h0l-.27-.48h0l-.29.05.12-.5V36.8h0v.46l-.12.46c.18.64,0,.88-.66.63h0l-.51-.26h0v-.74h0l.26-.51h0l.27-.27Zm.19,1.25h0c0-.1.2-.24-.06-.29,0,.1,0,.19.08.28Z"/><path d="M22.89,35.94c.47,0,.94-.28,1.41,0h0a.93.93,0,0,0-.21,1.13,1.34,1.34,0,0,1-.26,1.49h0a1.64,1.64,0,0,0-.26-1h0c.43-.49,0-.72-.29-1h0l-.71-.23h0v-.27h0l.27-.27Z"/><path d="M22.91,37.86c-.39-.34-.7-.7-.25-1.22h0c.4.25.49.81,1,1h0l-.27.51h0l-.46-.25Z"/><path d="M25.28,43.67,25,43.42l-.25-.48h0c.45.13.83-.13,1.23-.24h0c.1.23.41.47,0,.7h-.25l-.27.27h-.22Z"/><path d="M20.48,39.3c.48-.11.95-.52,1.43,0h0l-.26.27h0l-.51.26h0a.75.75,0,0,0-.75,0h0v-.5Z"/><path d="M23.37,41.2c-.42-.62.54-.54.5-1h0c.8.81-.32.63-.48.95Z"/><path d="M23.87,40.23a.57.57,0,0,1-.61-.53v0c0-.18.21-.15.36-.15h0l.24.74Z"/><path d="M25.53,40.67a1.09,1.09,0,0,1-1,.72h0c.07-.58.57-.59,1-.71Z"/><path d="M21.43,36.67c0-.54.3-.61.74-.48h0v.24Z"/><path d="M23.61,39.54a1.51,1.51,0,0,1,.24-1h0c.36.32.08.65,0,1h-.24Z"/><path d="M23.09,42.67h-.26v-.75C23.39,42,23.26,42.34,23.09,42.67Z"/><path d="M22.09,38.57l-.16.11a1,1,0,0,1,0-.19s.05,0,.08-.07Z"/><path d="M22.9,41.94h-.26l-.16-.45h0c.07-.07.19-.21.21-.19C22.95,41.46,22.85,41.72,22.9,41.94Z"/><path d="M24.09,43.83l.26.25c-.07.08-.17.24-.19.23C23.9,44.19,24,44,24.09,43.83Z"/><path d="M24.09,43.59c-.21-.14-.31-.32-.12-.55h.2c.31.24,0,.37-.11.53Z"/><path d="M24.09,41.92l-.48-.23h0C23.87,41.56,24.12,41.45,24.09,41.92Z"/><path d="M21.91,39.53l.14.83h0L21.66,40h0V39.5h.24Z"/><path d="M22.48,41.49l-.93.28h0a1.47,1.47,0,0,1,.93-.26Z"/><path d="M25.31,42.42a.41.41,0,0,1,.34-.47h.12v.25l-.5.23Z"/><path d="M21.09,41.76,21,41.34h.11v.43Z"/><path d="M24.79,42.89c-.07-.42.17-.51.51-.47h0l-.49.5Z"/><path d="M22.89,37.83l-.25.31-.1-.14.37-.15Z"/><path d="M22.66,41.92a1,1,0,0,1-.76.25A1.16,1.16,0,0,1,22.66,41.92Z"/><path d="M22.09,40.36c.22-.09.45-.18.62.08h0Z"/><path d="M24.31,41.94c0,.1,0,.26-.19.19s0-.14,0-.21h.24Z"/><path d="M20.23,38.58c.25.18.24.45.24.72h0C20.19,39.13,20.28,38.83,20.23,38.58Z"/><path d="M20.24,38.32v.27h0l-.49-.25h.51Z"/><path d="M23.4,43.08v.1a.37.37,0,0,1,0-.11Z"/><path d="M22.66,36.67l-.5-.24h.51v.24Z"/><path d="M21.93,41l-.12.13c-.07-.18.08-.09.14-.11Z"/><polygon points="22.48 39.18 22.51 39.28 22.5 39.18 22.48 39.18"/><path d="M24.56,41.42l-.25.51h0l.24-.49Z"/><path d="M21.95,41v-.33h0a.92.92,0,0,1,.07.17l-.08.07Z"/><path d="M23.37,41.43a.37.37,0,0,1,0-.23h0v.23Z"/><path d="M23.62,41.67l-.25-.25h0l.24.25Z"/><path d="M21.55,41.77h0Z"/><path d="M25.76,41.95l.27-.27h0l-.25.25Z"/><path d="M20.23,41.18v.3h0v-.3Z"/><path d="M23.35,44.82v-.27l.27.27Z"/><path d="M24.34,43.86h-.25v-.27h0Z"/><path d="M22.27,39.36l.21-.18h0l-.25.16Z"/><path d="M22.25,39.34l-.34.19h0v-.27h0l.37.06Z"/><path d="M21.95,40.67Z"/><polygon points="22.68 40.44 22.67 40.48 22.69 40.42 22.68 40.44"/><path d="M21.41,38.11Z"/><path d="M23.33,38.1Z"/><path d="M35.09,31.86a.57.57,0,0,1,0,.23h0v.28h0l.06.28h0c.24.28.74.44.45,1h0l-.55.1a.46.46,0,0,0,0-.11.3.3,0,0,0,0-.08v.17c0,.37-.45.78.06,1.12h0l.25.49h0l.73-.18h0l-.74,1h0l-.07.4.58-.22v.51h0l-.27.27h0l-.27.27h-.23v.28h0l-.48.28a1.93,1.93,0,0,0-1.21-1.72h0c-.17-.57-.34-.14-.51,0h0c-.38-.65.5-.91.46-1.45.48.22.14.73.37,1s.29.37.58.22.43-.16.29-.5c-.51-1.21-.07-2.43,0-3.65h.27l.26.27Z"/><path d="M31.76,35.94c.4-.33.82.42,1.22,0h.48l-.46.74c-.13.07-.47,0-.31.28s.38.16.55,0c0,1.23-.73.53-1.21.49l-.24-.51h0a.52.52,0,0,1,0-.22h0v-.28h0v-.5Z"/><path d="M30.09,33.54v-.26l.74-.49c.14.16.22.48.49.34s0-.38,0-.58c.34,0,.51.33.75.51h0v.27h0l-.26.51h0c-.79-.12-1.08.77-1.77.86h0l.07-.64h0c.3,0,.4-.22.5-.45h0v.06l-.52-.16Z"/><path d="M29.86,37.86c-.21-.29-.54-.76-.33-.95s.51.32.8.46h0l.27.27h0l-.72.24Z"/><path d="M28.63,35.67H29c.37,0,.81.22.73.49s-.52,0-.81,0h0l-.25-.5Z"/><path d="M28.18,34.48v-.71h0c.87.37.79,1,.43,1.66h0a1,1,0,0,0-.5-1Z"/><path d="M28.38,36.41v.26h0a1.42,1.42,0,0,1-1.08-.4c.35,0,.69-.38,1.07-.06v.2Z"/><path d="M32.09,33.81a.49.49,0,0,1-.32.44c-.16.08-.31.19-.46.28-.18-.32.16-.36.28-.51s.15-.17.23-.26h0a.41.41,0,0,1,.21-.05Z"/><path d="M31.78,35.91c-.62.1-1.06,0-.7-.76h.15c.18.27.61.37.57.8Z"/><path d="M28.88,37.39a1.53,1.53,0,0,0,1,.47h0l-.22.5a.83.83,0,0,1-.75-.26S29,38,29,38a1.06,1.06,0,0,0-.09-.17v-.49Z"/><path d="M27.7,35c-.48-.29-.86-.61-.49-1.23Z"/><path d="M29.09,34h.26l.25.51h0c-.06.15-.16.34-.32.25S29.09,34.26,29.09,34Z"/><path d="M32.24,33.07l.49.23h0v.27h0l-.69.29L32,33.78v-.46h0l.27-.27Z"/><path d="M30.33,37.37c-.05-.48.18-.41.46-.25h0v.51h-.25l-.27-.27Z"/><path d="M33,33.3h.26c-.08.25-.1.6-.49.24h0l.26-.26Z"/><path d="M28.39,36.67a1,1,0,0,1,.49.75h0l-.44-.2h0l-.06-.54Z"/><path d="M33.45,34v.5l-.44.29h0C32.92,34.4,33.15,34.18,33.45,34Z"/><path d="M33.95,34h-.51a.71.71,0,0,1,.5-.5V34Z"/><path d="M32.22,34.44l.09-.19.09.12-.2.06Z"/><path d="M31.21,35.15,32,35h0A.75.75,0,0,1,31.21,35.15Z"/><path d="M31.09,35.15c-.12.1-.24.24-.4.07a.12.12,0,0,1,0-.11c.16-.15.28-.1.38.07Z"/><path d="M27.7,35.47v-.52h.25l.28.25-.51.23Z"/><path d="M30.09,35.22v.26H29.8l.27-.27Z"/><path d="M33.67,33c.31.06.51.17.25.51Z"/><path d="M29.14,33.29l-.26.26c-.12-.06-.2-.16-.11-.28A.21.21,0,0,1,29.14,33.29Z"/><path d="M30.8,37.13,31,36.9l.06.09-.29.12Z"/><path d="M28.89,36.16l-.51.25h0v-.28h.5Z"/><path d="M31.09,37.67l.48-.24h0v.27h-.51Z"/><path d="M31.54,37.38l.24-.5h0v.51h-.24Z"/><path d="M27.19,33.27h.26l-.06.52h-.22Z"/><path d="M29.83,33.52h.27V34h0C29.88,33.91,29.88,33.67,29.83,33.52Z"/><path d="M27.93,35l.25-.5h0V35h-.25Z"/><path d="M32.21,34.42c0,.22,0,.43-.21.56h0Z"/><path d="M30,34.67l.07.6H29.8l.21-.55Z"/><path d="M29.63,34.51Z"/><polygon points="28.23 33.77 28.16 33.75 28.2 33.77 28.23 33.77"/><path d="M27.4,33.79Z"/><path d="M29.36,34v-.27C29.51,33.84,29.54,33.93,29.36,34Z"/><path d="M29.83,35.46V35.2h0v.27Z"/><path d="M28.63,35.43v.24h0s-.08-.06-.08-.07a.93.93,0,0,1,.08-.16Z"/><polygon points="33.01 34.78 32.97 34.75 33.03 34.79 33.01 34.78"/><path d="M31.49,36.43Z"/><path d="M31.79,36.67l-.3-.22h.32v.22Z"/><path d="M30.79,37.62h.3v.26l-.24-.26Z"/><path d="M32.49,41.92c-.38-.29-.52.09-.74.26h0c-.45.31-1.12-.63-1.47.25h-.19v-1c.32,0,.37-.23.25-.5h.75c-.23.33-.14.57.2.74h0a1,1,0,0,0,0-.77h1c.08.1.16.11.24,0L33,41h0v.45h0s.06.06.05.09a1.13,1.13,0,0,1-.05.19h0l-.24.48h0l-.27-.27Z"/><path d="M32.48,43.4c0,.25.15.68-.1.71s-.28-.4-.31-.66a2.76,2.76,0,0,1,.42-1.53h0l.27.27h0c.31.49.94,1-.24,1.25Z"/><path d="M31,43.14c.35,0,1,.14.41.49-.33.22-.17,1.49-1.1.69h0s-.06-.06-.06-.09a1.1,1.1,0,0,1,.06-.19h0v-.51h.26a.44.44,0,0,1,0-.22h.53a.83.83,0,0,1,0-.22Z"/><path d="M34.63,41.67v.74c-.37-.18-1,.55-1.18-.27h0l.25-.5h.23c.16.16.32.1.48,0h.26Z"/><path d="M28.65,45.3h-.26l-.25-.5c.35-.11.44-.41.51-.73h.44v.49Z"/><path d="M30.58,46c-.36.06-.73.12-1-.25v-.26a.89.89,0,0,0,.75-.24h0Z"/><path d="M31.53,44.34c.14.23.6.1.58.45s-.31.24-.47.18c-.33-.13-.36-.36-.09-.61Z"/><path d="M29.61,45.55a1.21,1.21,0,0,1-.5-1C29.52,44.77,29.81,45,29.61,45.55Z"/><path d="M33.7,43.61l-.24.49h-.27c.06-.31,0-.69.51-.71h0Z"/><path d="M30.35,44.32a.79.79,0,0,1-.73,0h0l.24-.27h.5v.27Z"/><path d="M33.7,41.67h-.76v-.25c.25.06.53,0,.73.24Z"/><path d="M33.7,43.39l.09-.3.13.09-.24.19Z"/><polygon points="31.06 42.9 31.08 42.83 31.03 42.88 31.06 42.9"/><path d="M29.37,44.08h-.28l.07-.17.16.17Z"/><path d="M32,45.53H31.5C31.68,45.3,31.85,45.4,32,45.53Z"/><path d="M31.75,42.18Z"/><path d="M33.47,42.15Z"/><path d="M30.83,46Z"/><path d="M30.34,45.28Z"/><path d="M31,45.26Z"/><path d="M31,45.28l.27.28h0L31,45.28Z"/><path d="M30.31,42.41l.25.25h0l-.24-.25Z"/><path d="M30.56,42.67l.24.24h-.26v-.26Z"/><path d="M31,42.88v.27h0l-.25-.24h.3Z"/><path d="M29.62,44.33l-.25-.25h.26v.25Z"/><path d="M31.55,44.36Z"/><path d="M19.09,33.51c.06.66.65.3,1,.5h0l.27.27h0c-.13.26-.1.64-.49.73h0a.86.86,0,0,0-1,0h-.26a.75.75,0,0,1,0,.23h0l.24.06h0c-.21.39-.09,1.38-1,.55h0c.3-.38.16-.87.32-1.29h0v-.25L17.9,34h0l-.26-.73Zm0,.89h.1l-.1-.07Z"/><path d="M16.88,35.67h.21a3.3,3.3,0,0,1,.33.32c.16.21.39.47.13.71s-.43-.29-.7-.31h-.46a1.76,1.76,0,0,1-.48-1l.49.26Z"/><path d="M19.79,37.36c-.37,0-.48.34-.74.48h0l-.26-.26h0v-.25l.53-1h.22l.06.55h.22v.51Z"/><path d="M20.48,35.67l-.48.26a1.46,1.46,0,0,0-1.21-.75h0v-.26h1l.74.5h0v.25Z"/><path d="M16.64,38.83a1.87,1.87,0,0,1-.25-1h.25c.28.27.65.17,1,.26h0C17.37,38.44,16.81,38.38,16.64,38.83Z"/><path d="M17.86,37.36c-.32.39-.85.25-1.23.5C16.74,36.94,17.4,37.4,17.86,37.36Z"/><path d="M20,35.91l.23.75h0l-.27.27h-.26l-.26-.51h0C19.51,36.07,19.74,36,20,35.91Z"/><path d="M18.57,37.6l-.75-.23a.67.67,0,0,1,.95-.05l.05.05h0l-.26.26Z"/><path d="M17.81,35.75l-.22-.53h.18v.58Z"/><path d="M18.09,34.48c-.19,0-.42.06-.5-.16s.07-.28.25-.32h0l.27.27h0v.28Z"/><path d="M18.69,36.57l-.16.13a.76.76,0,0,1-.07-.16s.06-.08.07-.07Z"/><path d="M16.89,36.39c-.17.24-.33.28-.49,0h.49Z"/><path d="M17.09,35.67v-.28C17.29,35.52,17.27,35.61,17.09,35.67Z"/><path d="M15.94,36.88Z"/><path d="M19.34,36.37Z"/><path d="M18.09,41l-.24-.25-.05-.24.28-.22h0l-.27.22c-.3-.35-.21-.63.17-.83.62-.32.71.42,1.09.58h0v.24c-.2.24-.61.16-.74.5h-.24Z"/><path d="M16.64,39.07v-.28C16.81,38.88,16.82,39,16.64,39.07Z"/><path d="M17.62,38.09Z"/><path d="M18.56,37.84Z"/><path d="M19.09,37.84c-.08.14-.15.13-.23,0h.23Z"/><path d="M18.58,37.86V37.6h.27v.27h-.27Z"/><path d="M38.73,39.06h-.25l-.26-.26h0a.37.37,0,0,0-.45-.27l0,0h0c0-.92-.17-1.56-1.21-.72-.37-.49-1-.33-1.44-.51h0l.27-.27h0l.27-.27h0l.27-.27h.25c.08-.11.16-.13.23,0,1.1-.18.22-.81.28-1.23h0l-.28-.53h.75c.19.51,0,1.24.73,1.46h0l-.42.21h0c.11.4.83.21.76.74-.12.89.55.86,1.09,1h0Z"/><path d="M37.54,34c-.07.38.68,1.18-.51,1C37.16,34.67,36.53,33.89,37.54,34Z"/><path d="M37.53,32.82h.24c-.11.7-.2.72-1.22.23l.74-.24Z"/><path d="M36.09,33.78A1.31,1.31,0,0,1,36.32,35h-.23c-.29-.41-.08-.82,0-1.22Z"/><path d="M36.09,33.52v.26h0c-.28.17-.54.29-.48-.24h.48Z"/><path d="M35.09,32.09h.76c-.19.28-.48.25-.77.24h0v-.24Z"/><path d="M38.25,33.51V34H38C38,33.83,38,33.61,38.25,33.51Z"/><path d="M38,34Z"/><path d="M37.78,34H37.5C37.6,33.86,37.69,33.86,37.78,34Z"/><polygon points="36.1 33.54 36.12 33.49 36.07 33.52 36.1 33.54"/><path d="M23.09,34v.26c-.26,0-.58-.15-.72.23l-.24.24a.71.71,0,0,1-.71-.24h0c.42-.17.36-.34,0-.51h0c0-.58-.8-1-.27-1.7h.75c-.5,1.09-.38,1.28.95,1.44Z"/><path d="M25.53,34.74c.47,0,.35.45.46.71h0c-.46.49-.89,1.11-1.68.48h0c.53,0,.73-.26.77-.74h0c.35,0,.43-.23.5-.5Z"/><path d="M20,34v-.26l.48-.21h.28c.19.13.42.2.48.47l-.75.23h-.26L20,34Z"/><path d="M22.17,36.18c.11-.2-.08-.67.45-.5h0V36h0v.27h-.51Z"/><path d="M20.47,34.25c.26.05.49.14.48.47h0c-.41.09-.46-.18-.48-.48Z"/><path d="M23.83,35.22c.18-.25.36-.51.74-.47v.2Z"/><path d="M21.19,35.43c-.14.35-.35.52-.71.25h0l.74-.24Z"/><path d="M20.95,34.67l.23.51h0l-.24-.49Z"/><path d="M25.09,35.2a.57.57,0,0,1-.5-.25h0c.19,0,.39,0,.48.24Z"/><path d="M21.19,34h.27v.51h0Z"/><path d="M21.19,35.23l.52.19h-.54v-.25Z"/><path d="M23.59,35.21Z"/><path d="M21.71,35.42Z"/><path d="M23.35,35.22v-.27l.26.27Z"/><path d="M23.09,35.2h.28C23.29,35.35,23.2,35.4,23.09,35.2Z"/><path d="M22.62,35.67l.27.26h-.27Z"/><path d="M28.17,43.62c-.18-.55-.72-1.05-.23-1.69h0c.78-.17.48-.76.48-1.23l.48.25h.74l.25.51c-.12.21-.3.2-.51.17-.47-.07-.42.36-.36.54.15.47.41-.06.62,0h0l-.22,1h-.74l-.48.46Zm.32-1.06-.12-.21a.92.92,0,0,0-.2.19l.09.18Z"/><path d="M28.66,44.07c-.35,0-.79.38-1-.23l.5-.22h0c.18.15.44.21.49.49Z"/><path d="M27.17,43.67l-.34-.44h.1c.23.09.17.32.23.5Z"/><path d="M27.94,41.93c-.38-.15-.27-.46-.24-.74h0c.3.17.28.45.24.73Z"/><path d="M26,44.1l-.49-.51h0l.27-.27H26Z"/><path d="M27,42.77h-.09v-.1H27S27,42.74,27,42.77Z"/><polygon points="26.87 41.95 26.93 41.96 26.9 41.95 26.87 41.95"/><path d="M26.25,42.39l-.25.25h0v-.26h.25Z"/><path d="M33.43,31.6a1.31,1.31,0,0,0,1-.72h.23l.27.27h0v.25h0l-.27.27h0l-.48.27C33.9,31.85,33.61,31.87,33.43,31.6Z"/><path d="M33.67,32.82l.5-.75C34.09,32.38,34.09,32.74,33.67,32.82Z"/><path d="M33.93,34l.15.13c-.18.07-.09-.09-.13-.15Z"/><path d="M34.16,32.11Z"/><path d="M26.25,35.46c.19-.22-.45-1,.45-.74h0s-.07.06-.07.09a1,1,0,0,0,.07.19h0l-.21.5h-.27Z"/><path d="M27.2,35.21l.49.26h0c-.06.08-.16.24-.19.22a.43.43,0,0,1-.28-.46Z"/><path d="M25,34.5l.51.24h0l-.44-.26Z"/><path d="M24.79,34.23h.3v.27h-.22Z"/><path d="M26,35.45h.26v.27L26,35.44Z"/><path d="M26.71,34.67l.24.25h-.26v-.25Z"/><path d="M26.95,35l.26.23h0L27,34.95Z"/><path d="M26.71,33.28Z"/><path d="M39.93,34.95l.25.25v.73h0v.52h0l-.22.44h-.25c-.34-.11-.23-.77-.51-.65s.06.59,0,.91h-.51a2.11,2.11,0,0,0-.94-.74h0v-.74h0A1.15,1.15,0,0,0,39,35.39h.24l.23-.25.24-.25Z"/><path d="M38.23,34h.26l.22.51h-.49Z"/><path d="M38.71,34.67a.63.63,0,0,1-.48.48h0v-.48h.48Z"/><path d="M38.25,34.73v-.26h0Z"/><path d="M39,34.47v.27h-.26v-.26H39Z"/><polygon points="38.24 35.19 38.23 35.23 38.26 35.22 38.24 35.19"/><path d="M37.78,35.67Z"/><path d="M24.81,34v.27Q24.58,34.12,24.81,34Z"/><path d="M24.56,34.75l.26-.26h0l-.25.25Z"/><path d="M24.09,34Z"/><path d="M39.68,37.84l.27.5H39.2v-.25l.51-.23Z"/><path d="M39.45,39l-.09.18c-.15-.14,0-.15.08-.19Z"/><polygon points="39.2 40.01 39.23 39.98 39.18 39.99 39.2 40.01"/><path d="M41.36,36.89l-.24.26-.5-.49c.33-.73.66-.24,1,0Z"/><path d="M39.67,37.12v.5h0c-.18-.14-.43-.21-.48-.49h.48Z"/><path d="M40.65,36.67v.76A.61.61,0,0,1,40.65,36.67Z"/><path d="M40.15,35.93h.27l-.28.5h0v-.5Z"/><path d="M41.09,35.43l.27.27Z"/><path d="M39.94,37.6l-.27.24h0v-.25h.27Z"/><path d="M40.42,37.86l-.27-.27Z"/><path d="M39.93,36.86l-.25.26h0v-.26Z"/><path d="M40.18,37.61H39.9A.17.17,0,0,1,40.18,37.61Z"/><path d="M22.41,46.74h-.26L21.94,46h0l.26-.26h.26l1,.24v.26C23.09,46.41,22.63,46.37,22.41,46.74Z"/><path d="M22.41,45.53l-.27.24h-.23l-.27-.27h0l.22-.73h.5A1,1,0,0,1,22.41,45.53Z"/><path d="M21.94,46c-.32,0-.69,0-.25-.47h0l.27.27h0v.27Z"/><path d="M20.71,45.54v-.27H21Z"/><path d="M15.91,38.55v.23h-.16l.14-.17Z"/><path d="M15.93,38.57Z"/><path d="M38,42.67l-.24.25h-.5a1.22,1.22,0,0,1-1,0A1.4,1.4,0,0,1,37,42v0l-.76-.08h0l-.5-.26h0a.53.53,0,0,0-.2-.72l-.06,0h0c0-.23-.08-.55.31-.39a7.09,7.09,0,0,1,.75.54.45.45,0,0,0,.62-.15h0a.81.81,0,0,0,.13-.54c0-.2-.29-.37-.44-.23-.74.65-.94-.3-1.41-.44l.26-.26c.17,0,.42.07.47-.23h.26l.1.2.09-.11-.21-.07V39l.49-.48.49.27h0c-.28.91.66,1.11,1,1.68l.24.48v.25c-.22.18-.66,0-.73.45h0a1,1,0,0,1,.73.53A1.08,1.08,0,0,0,38,42.67Z"/><path d="M37.95,39v.51h0a.39.39,0,0,1,0-.47Z"/><path d="M38,39l.29-.22h0v.25H38Z"/><path d="M38.48,39v.27L38.23,39h.25Z"/><path d="M37.76,38.55l-.25.25h0l.24-.25Z"/><polygon points="37.99 39.52 38.03 39.55 38.02 39.5 37.99 39.52"/><path d="M20,33.78l-.27-.27Z"/><path d="M20,33Z"/><path d="M20.47,33.55h0Z"/><path d="M38.23,28.24h.28C38.41,28.44,38.32,28.42,38.23,28.24Z"/><path d="M38.23,29.67l.27-.27Z"/><path d="M34.17,30.42v-.26a.89.89,0,0,1,1.21,0h.28l-.29,1h-.48l-.27-.27h0v-.5h-.48Z"/><path d="M36.34,31.14h-.25v-.47Z"/><path d="M35.33,31.14Z"/><path d="M34.87,31.37l.26.23h-.26v-.23Z"/><path d="M35.09,31.6v.26h0v-.27Z"/><path d="M36.09,30.16h.27l-.27.27Z"/><path d="M36.09,30.39v.28C35.92,30.57,35.93,30.48,36.09,30.39Z"/><path d="M22.63,32.57a.91.91,0,0,1,.06.16l-.06.07c-.09.22-.23.49-.48.33s0-.54,0-.82h.5Z"/><path d="M35.35,41.94v-.26h.5C35.78,42,35.58,42,35.35,41.94Z"/><polygon points="36.32 41.91 36.3 41.95 36.34 41.94 36.32 41.91"/><polygon points="35.85 42.66 35.88 42.62 35.83 42.64 35.85 42.66"/><path d="M36.34,42.87l-.27.27Z"/><path d="M40.63,33.28h.75v1l-.49-.49Z"/><path d="M41.36,33.3V33h.27Z"/><path d="M29.62,47h-.26l-.23-.25-.26-.24c.19-.3.34-.65.75-.74Z"/><path d="M31.54,46.73l-.25.25H31l.24-.75h.26Z"/><path d="M33.7,28.74h-.27v-.27Z"/><path d="M25.78,44.79Z"/><path d="M26,44.79v.27h-.26V44.8H26Z"/><path d="M17.83,32.82v-.27h.51Z"/><path d="M18.58,32.31v.27h-.27Z"/><path d="M19.52,44.34a.61.61,0,0,0-.49-.49c0-.33.32-.51.51-.75h.28l.26.5-.24.73Z"/><path d="M20.26,43.61H20a.16.16,0,0,1,.22,0Z"/><path d="M32.47,31.86V31.6h0l.27-.27h0l.49-.27.25.5Z"/><path d="M34.42,30.89l-.24-.22h0l.25.25Z"/><path d="M33.91,30.4h.27v.27h0Z"/><path d="M37.75,42.88H38a.87.87,0,0,1-.26.75Z"/><path d="M37.54,42.88Z"/><path d="M24.8,32.34l-.25-.25.74-.47.22-.5h.26l.24.74-.5.23h0l-.27.27h0Z"/><path d="M24.09,31.38Z"/><path d="M28.19,44.81Z"/><path d="M23.62,46h-.27v-.27Z"/><path d="M36.31,30.18l.27-.27Z"/><path d="M25.27,32.58v-.27h0l.27-.27h0C25.81,32.43,25.43,32.45,25.27,32.58Z"/><polygon points="14.96 38.31 14.92 38.38 14.98 38.33 14.96 38.31"/><path d="M22.14,42.86Z"/><path d="M38.71,41.2H39v.27Z"/><path d="M18.58,41.2l-.26-.26h0l.25.25Z"/><path d="M29.87,31.61Z"/><path d="M22.9,32.34h-.27v-.27Z"/><path d="M32,32.32h.26v.75H32Z"/><path d="M33,33v.27H32.7Z"/><path d="M41.87,32.33Z"/><path d="M32,32.08v.27l-.27-.27Z"/><path d="M40.43,39.77Z"/><path d="M35.37,41.67l-.49-.24h0c0-.34-.05-.67-.49-.72h-.24l-.72-.49a.51.51,0,0,0,.23-.5c.47.25.74-.49,1.21-.24l.26.25v.49l.18.66h0v-.06l.3.09h0l-.25.75Z"/><path d="M34.88,41.44l-.25.24h0v-.27h.26Z"/><path d="M26,46l.27.27Z"/><path d="M27.69,46.74l-.26-.26a.45.45,0,0,1,.51-.26Z"/><path d="M15.22,40.48v.26h-.5l-.25-.25v-.26H15Z"/><path d="M15.22,40v.27h-.27Z"/><path d="M14.48,34.75Z"/><path d="M14.75,36.67h-.28a.16.16,0,0,1,.28,0Z"/><path d="M20,44.58l-.27-.27Z"/><path d="M32.49,31.6h-.26a.47.47,0,0,1,.51-.5v.26h0l-.27.27Z"/><path d="M30.34,48.42h-.25C30.16,48.26,30.25,48.27,30.34,48.42Z"/><path d="M20.74,45.3h-.27V45h.26Z"/><path d="M26.26,31.11v.27L26,31.11Z"/><path d="M29.59,31.84h.27v.27Z"/><path d="M35.38,44.31v.27h-.51v-.27Z"/><path d="M33.67,46.26V46h.51v.27Z"/><path d="M35.35,44.55h.27v.27h-.27Z"/><path d="M27.91,39.74c-.42.67-.9.22-1.37.08h0v.07l-.56.18c-.18-.63-1.11-.2-1.24-.89h0c.6-.45,1.2-.66,1.82,0h0l.43.2h0c.14.53.58.46,1,.5Zm-2.41-.55h.1v-.08h-.09a.39.39,0,0,1,0,.09Z"/><path d="M27,39.3a1.75,1.75,0,0,0-.52-1h0a.66.66,0,0,1,.1-.92c.45-.15.46.32.47.59,0,.45.4.53.63.77h0V39c-.09.53-.47.21-.72.24Z"/><path d="M28.9,37.83v.26c-.21.1-.23.29-.24.49-.18-.1-.53-.11-.43-.4S28.62,37.86,28.9,37.83Z"/><path d="M24.95,38.17c-.15,0-.41.25-.39-.15,0-.14.09-.35.28-.28s.06.27.09.42Z"/><path d="M24.09,39.53c.21-.11.42-.05.4.18s-.23.23-.4.06h0v-.24Z"/><path d="M25.4,38.16l.08-.49h0a.32.32,0,0,1,.32.41c-.05.22-.26,0-.4.07Z"/><path d="M26.62,36.77H26.5s0-.06,0-.09Z"/><path d="M28.66,38.79l-.27.5h0l-.5-.24h0Z"/><path d="M27.6,37.3l-.26.13c0-.06-.07-.15,0-.19.15-.2.22,0,.33.07Z"/><path d="M27.62,37.32a1.28,1.28,0,0,1,.86-.15h0A1,1,0,0,1,27.62,37.32Z"/><path d="M26.23,35.67h.27a.44.44,0,0,1-.44.44H26Z"/><path d="M25.28,37.17h.26l-.08.51h0l-.18-.53Z"/><path d="M24.76,39.13Z"/><path d="M26,36.11v.11l.07-.09Z"/><path d="M26.48,35.67v-.28C26.64,35.52,26.64,35.61,26.48,35.67Z"/><path d="M28.16,35.22v-.27C28.32,35,28.34,35.13,28.16,35.22Z"/><path d="M28.64,38.55l.3.23h0l-.32.06Z"/><path d="M27.66,38.8l.25.27h-.25v-.28Z"/><path d="M24.09,39.77l-.26-.26h.26v.26Z"/><path d="M24.6,36.87Z"/><path d="M24.58,36.88Z"/><path d="M25.3,37.15Z"/><polygon points="25.53 37.2 25.56 37.14 25.54 37.18 25.53 37.2"/><path d="M25.38,38.17a.29.29,0,0,0-.41,0l0,0Z"/><path d="M28.39,39.29c.54.48,1,1,0,1.45h-.26c0-.36.09-.73-.24-1h0l.49-.5Z"/><path d="M28.18,40.72Z"/><path d="M26.26,40.5H26v-.27Z"/><path d="M27.94,40.73Z"/><path d="M26,42.42l-.27-.27Z"/><path d="M31.28,38.07h.5v.49h0c-.83.55-.25.75.24,1v.25h0c-.48.56-.72.15-1-.24h0l-1-.25h0v-.26l.79-.28v.05h0C30.58,38.29,31.19,38.34,31.28,38.07Z"/><path d="M33.69,39.78a.5.5,0,0,0-.48.24H33c0-.37.28-.52.49-.73h0s.07-.06.07-.09a1,1,0,0,0-.07-.19h0l.21-.75h0c-.07-.11-.23-.27-.2-.34.15-.29.44-.15.68-.16A6.71,6.71,0,0,1,33.69,39.78Z"/><path d="M32.24,39.07l.51-.27h0l.22-.48h0c.37.08.24.55.52.7h0v.27H32.24v-.22Z"/><path d="M31.51,37.6l.25-.25H32a.84.84,0,0,1-.26.75Z"/><path d="M31.74,38.57c.23.11.45.21.5.5h0l-.49-.49Z"/><path d="M34.66,37.6l-.51.26Z"/><path d="M32.75,38.8Z"/><path d="M33.22,36.9l-.27-.27Z"/><path d="M32.95,38.34Z"/><path d="M35.85,38.55a4.74,4.74,0,0,1-.66.22c-.09,0-.21-.09-.31-.13l.26-.14a2.35,2.35,0,0,1,1.44-.39h0v.51h-.77Z"/><path d="M37.09,38.58h-.25l-.26-.51h0v-.26C36.94,37.94,37.6,37.85,37.09,38.58Z"/><path d="M35.09,39.78v-.26l.74-.49v.5l-.25.25Z"/><path d="M36.09,39h-.26v-.51h.26Z"/><path d="M35.14,39.54h-.27C35,39.35,35.09,39.3,35.14,39.54Z"/><path d="M36.33,36.67h-.24v-.5C36.43,36.19,36.48,36.38,36.33,36.67Z"/><path d="M36.6,35.46l-.09.08.11-.06Z"/><path d="M36.09,36.16Z"/><path d="M30.09,39.06c-.43-.07-.64-.3-.5-.75A1,1,0,0,1,30.09,39.06Z"/><path d="M31,37.83l.27.27Z"/><path d="M32.49,41h-.26V40h0A.72.72,0,0,0,33,40h0Z"/><path d="M29.83,41.46,29.58,41c.25-.35.5-.2.75,0l-.25.49Z"/><path d="M30.09,39.51a.46.46,0,0,1-.38-.11l.39-.1h0v.21Z"/><path d="M30.09,40.25H29.6c.19-.35.34-.3.46,0Z"/><path d="M29.38,41h-.52C29,40.81,29.21,40.73,29.38,41Z"/><path d="M31.09,40.67,31,40.53H31a.35.35,0,0,1,0,.11Z"/><path d="M30.8,39.76q-.22.38-.46,0Z"/><path d="M31.3,41H31v-.26h.28A1.37,1.37,0,0,0,31.3,41Z"/><polygon points="28.93 38.78 28.9 38.81 28.95 38.76 28.93 38.78"/><path d="M29.61,40.21Z"/><path d="M30.09,40.27Z"/><path d="M31.31,40.76Z"/><path d="M30.35,39.77l-.26-.26h0l.25.25Z"/><path d="M31.09,39.51l-.24.26h0l.25-.25Z"/><path d="M32.26,40,32,39.75h0l.24.24Z"/><path d="M29.85,44.1h-.26l.24-.74c.26-.15.37-.52.74-.49v.5l-.25.24Z"/><path d="M29.86,43.38l-.51-.26Z"/><path d="M29.62,42.17Z"/><polygon points="30.08 42.39 30.04 42.44 30.1 42.42 30.08 42.39"/><path d="M34.39,41l.27.47-.25.25h-.5l.22-.48h0l.27-.27Z"/><path d="M33,41Z"/><path d="M34.15,40.67h.26v.27h-.28Z"/><path d="M34.09,41.21a.93.93,0,0,0,.06-.17A.1.1,0,0,0,34.1,41h0v.25Z"/><path d="M33.19,40l.27.27Z"/><path d="M28.63,43.12h.27C28.81,43.22,28.72,43.24,28.63,43.12Z"/><polygon points="20.49 35.46 20.52 35.42 20.47 35.44 20.49 35.46"/><path d="M38.73,37.11l.49,1-.74-.51h0Z"/><path d="M38.48,37.59Z"/><path d="M35.09,40.27V40a1.19,1.19,0,0,1,0,.19Z"/><path d="M36.31,39v.27L36.07,39h.24Z"/><path d="M36.58,39.06h-.27l.24-.25h0Z"/><path d="M36.81,38.55l-.25.25h0v-.26h.25Z"/><path d="M32,39.54l.27-.27Z"/></svg>