<svg id="4c6cb41c-daa0-4a34-a8f8-24aa49936310" data-name="Layer 1" xmlns="http://www.w3.org/2000/svg" viewBox="0 0 29.03 29.26"><defs><style></style></defs><path class="90a53e47-440a-453c-b116-f2343ac228b0" d="M14.53 0A14.37 14.37 0 0129 14.54c-.1 8.59-6.38 15-15.21 14.71A14.44 14.44 0 01.07 16C-.82 6.67 6.83-.38 14.53 0z"/><path class="7d6cb73a-e149-49fe-8f86-f468495d6f9a" d="M18.57 6.93v2.48H17.1a1.38 1.38 0 00-1.1.34 1.55 1.55 0 00-.28 1v1.77h2.75l-.37 2.78h-2.37v7.13h-2.87v-7.12h-2.4v-2.77h2.39v-2a3.63 3.63 0 011-2.71 3.54 3.54 0 012.6-1 15.53 15.53 0 012.12.1z"/></svg>