<svg id="88a99a59-5769-4e99-8ce9-791f4ddc1b11" data-name="Layer 1" xmlns="http://www.w3.org/2000/svg" viewBox="0 0 29.03 29.26"><defs><style>.df2459e9-5e31-4133-9618-8547dbe88fce{fill:#010101}.\33 04608c4-9439-42ac-85cb-8913e6bcbf92{fill:#f8ea47}</style></defs><title>social--pinterest</title><path class="df2459e9-5e31-4133-9618-8547dbe88fce" d="M14.53 0A14.37 14.37 0 0 1 29 14.54c-.1 8.59-6.38 15-15.21 14.71A14.44 14.44 0 0 1 .07 16C-.82 6.67 6.83-.38 14.53 0z"/><path class="304608c4-9439-42ac-85cb-8913e6bcbf92" d="M20.76 11a7.26 7.26 0 0 1 0 7.24 7.18 7.18 0 0 1-2.62 2.62 7.2 7.2 0 0 1-5.67.67A5.79 5.79 0 0 0 13.2 20l.51-2a1.56 1.56 0 0 0 .69.63 2.22 2.22 0 0 0 1.07.27 3.38 3.38 0 0 0 2-.64 4.18 4.18 0 0 0 1.38-1.77 6.32 6.32 0 0 0 .51-2.49 3.86 3.86 0 0 0-.56-2 4.23 4.23 0 0 0-1.62-1.53 4.84 4.84 0 0 0-2.39-.59 6 6 0 0 0-1.84.27 4.75 4.75 0 0 0-1.45.72 4.9 4.9 0 0 0-1 1 4.28 4.28 0 0 0-.63 1.21 4.09 4.09 0 0 0-.2 1.26 3.74 3.74 0 0 0 .33 1.72 2.12 2.12 0 0 0 1.1 1c.19.08.31 0 .36-.19l.07-.29c0-.15.06-.24.08-.28a.43.43 0 0 0-.1-.4 2.13 2.13 0 0 1-.51-1.37 3.42 3.42 0 0 1 3.55-3.45 3 3 0 0 1 2.21.77 2.66 2.66 0 0 1 .79 2 5.35 5.35 0 0 1-.55 2.7 1.89 1.89 0 0 1-1.65 1.12 1.15 1.15 0 0 1-.92-.41 1.07 1.07 0 0 1-.22-1q.07-.33.25-.88t.28-1a2.9 2.9 0 0 0 .11-.71 1.19 1.19 0 0 0-.25-.78.88.88 0 0 0-.72-.31 1.2 1.2 0 0 0-1 .54 2.15 2.15 0 0 0-.4 1.33 2.5 2.5 0 0 0 .23 1.14l-.93 3.92a6.24 6.24 0 0 0-.12 1.66A7.18 7.18 0 0 1 8.5 18.6a7.23 7.23 0 0 1-.23-7.6 7.18 7.18 0 0 1 2.63-2.61 7.26 7.26 0 0 1 7.24 0A7.18 7.18 0 0 1 20.76 11z"/></svg>