<svg data-name="Layer 1" xmlns="http://www.w3.org/2000/svg" viewBox="0 0 14.42 14.42"><title>social--instagram-nob</title><path d="M14.42 7.21v3a4.41 4.41 0 0 1-1.16 3 4.4 4.4 0 0 1-3 1.16h-6a4.4 4.4 0 0 1-3-1.16 4.4 4.4 0 0 1-1.16-3v-3-3a4.4 4.4 0 0 1 1.16-3A4.4 4.4 0 0 1 4.23 0h6a4.41 4.41 0 0 1 3 1.16 4.41 4.41 0 0 1 1.16 3q.03.9.03 3.05zM7.93 1.29H4.59a7.34 7.34 0 0 0-1 .09 3.72 3.72 0 0 0-.59.21A2.46 2.46 0 0 0 1.59 3a3.81 3.81 0 0 0-.17.67 7.44 7.44 0 0 0-.09 1v5.26a7.45 7.45 0 0 0 .09 1 3.78 3.78 0 0 0 .17.67A2.46 2.46 0 0 0 3 12.83a3.76 3.76 0 0 0 .67.17 7.44 7.44 0 0 0 1 .09h5.16a7.47 7.47 0 0 0 1-.09 3.81 3.81 0 0 0 .67-.17 2.46 2.46 0 0 0 1.37-1.37 3.69 3.69 0 0 0 .17-.67 7.47 7.47 0 0 0 .09-1v-.91-1-.72-.72-1-.91a7.45 7.45 0 0 0-.09-1 3.72 3.72 0 0 0-.21-.53 2.45 2.45 0 0 0-1.37-1.37 3.77 3.77 0 0 0-.67-.17 7.38 7.38 0 0 0-1-.09h-.91zm1.9 3.3a3.57 3.57 0 0 1 1.08 2.62 3.56 3.56 0 0 1-1.08 2.62 3.56 3.56 0 0 1-2.62 1.08 3.57 3.57 0 0 1-2.62-1.08 3.56 3.56 0 0 1-1.08-2.62 3.56 3.56 0 0 1 1.08-2.62 3.57 3.57 0 0 1 2.62-1.08 3.56 3.56 0 0 1 2.62 1.08zm-.92 4.32a2.31 2.31 0 0 0 .7-1.7 2.4 2.4 0 0 0-2.4-2.4 2.4 2.4 0 0 0-2.4 2.4 2.4 2.4 0 0 0 2.4 2.4 2.32 2.32 0 0 0 1.7-.7zm2.76-6.16a.86.86 0 0 1 0 1.22.86.86 0 0 1-1.47-.61.86.86 0 0 1 1.47-.61z"/></svg>