<svg id="0f627eab-d546-4fe0-a2e9-d0f388abf808" data-name="Layer 1" xmlns="http://www.w3.org/2000/svg" viewBox="0 0 29.03 29.26"><defs><style>.\39 064d09d-06c3-4863-a12a-fa2d34872388{fill:#010101}.\35 7936a71-41b1-4928-82ac-f533e4dc489a{fill:#f8ea47}</style></defs><title>social--twitter</title><path class="9064d09d-06c3-4863-a12a-fa2d34872388" d="M14.53 0A14.37 14.37 0 0 1 29 14.54c-.1 8.59-6.38 15-15.21 14.71A14.44 14.44 0 0 1 .07 16C-.82 6.67 6.83-.38 14.53 0z"/><path class="57936a71-41b1-4928-82ac-f533e4dc489a" d="M21.91 10a6.34 6.34 0 0 1-1.52 1.57v.39a8.59 8.59 0 0 1-.39 2.49 8.78 8.78 0 0 1-1 2.33 9.2 9.2 0 0 1-1.73 2 7.72 7.72 0 0 1-2.42 1.37 8.85 8.85 0 0 1-3 .51 8.42 8.42 0 0 1-4.66-1.36 6.64 6.64 0 0 0 .73 0 5.94 5.94 0 0 0 3.7-1.3 3 3 0 0 1-2.83-2.1 3.85 3.85 0 0 0 .57 0 3.15 3.15 0 0 0 .8-.1 3 3 0 0 1-1.74-1 2.93 2.93 0 0 1-.69-1.93 3 3 0 0 0 1.37.38 3 3 0 0 1-1-1.08 3 3 0 0 1 0-3 8.59 8.59 0 0 0 2.76 2.24 8.45 8.45 0 0 0 3.49.93 3.31 3.31 0 0 1-.08-.69 3 3 0 0 1 5.25-2.07 6 6 0 0 0 1.92-.73 2.94 2.94 0 0 1-1.33 1.67 6 6 0 0 0 1.8-.52z"/></svg>