<svg data-name="Layer 1" xmlns="http://www.w3.org/2000/svg" viewBox="0 0 29.03 29.26"><path d="M14.53 0A14.37 14.37 0 0 1 29 14.54c-.1 8.59-6.38 15-15.21 14.71A14.44 14.44 0 0 1 .07 16C-.82 6.67 6.83-.38 14.53 0z" fill="#010101"/><path d="M10.78 9.34a1.48 1.48 0 0 1-.47 1.15 1.77 1.77 0 0 1-1.31.46 1.69 1.69 0 0 1-1.24-.46 1.54 1.54 0 0 1-.47-1.15 1.51 1.51 0 0 1 .48-1.15 1.77 1.77 0 0 1 1.26-.46 1.71 1.71 0 0 1 1.25.46 1.57 1.57 0 0 1 .5 1.15zm-.2 2.87v9.3H7.49v-9.3zm11.14 4v5.33h-3.08v-5a2.71 2.71 0 0 0-.38-1.54 1.34 1.34 0 0 0-1.19-.56 1.52 1.52 0 0 0-1 .32 2 2 0 0 0-.6.8 2.25 2.25 0 0 0-.1.76v5.19h-3.08v-6.07-3.23h3.09v1.35a4.06 4.06 0 0 1 .38-.53 4 4 0 0 1 .53-.49 2.44 2.44 0 0 1 .82-.41 3.73 3.73 0 0 1 1.06-.13 3.34 3.34 0 0 1 2.58 1.07 4.47 4.47 0 0 1 .98 3.12z" fill="#f8ea47"/></svg>