<svg id="b05743bd-af08-41d4-9dc3-9dec044935ad" data-name="Layer 1" xmlns="http://www.w3.org/2000/svg" viewBox="0 0 29.03 29.26"><defs><style></style></defs><path class="4f5bbdc9-acfe-4ccd-88f0-c231ff92315d" d="M14.53 0A14.37 14.37 0 0129 14.54c-.1 8.59-6.38 15-15.21 14.71A14.44 14.44 0 01.07 16C-.82 6.67 6.83-.38 14.53 0z"/><path d="M21.73 14.63v3a4.41 4.41 0 01-1.16 3 4.4 4.4 0 01-3 1.16h-6a4.4 4.4 0 01-3-1.16 4.4 4.4 0 01-1.16-3v-3-3a4.4 4.4 0 011.16-3 4.4 4.4 0 013-1.16h6a4.4 4.4 0 013 1.16 4.41 4.41 0 011.16 3v3zm-6.5-5.92H11.9a7.44 7.44 0 00-1 .09 3.68 3.68 0 00-.67.17 2.46 2.46 0 00-1.37 1.37 3.81 3.81 0 00-.17.67 7.42 7.42 0 00-.09 1v5.26a7.42 7.42 0 00.09 1 3.79 3.79 0 00.17.67 2.46 2.46 0 001.37 1.37 3.68 3.68 0 00.67.17 7.44 7.44 0 001 .09h5.24a7.47 7.47 0 001-.09 3.72 3.72 0 00.67-.17 2.45 2.45 0 001.37-1.37 3.7 3.7 0 00.17-.67 7.44 7.44 0 00.09-1v-.91-1-.72-.72-1-.91a7.44 7.44 0 00-.09-1 3.72 3.72 0 00-.17-.67A2.45 2.45 0 0018.77 9a3.72 3.72 0 00-.67-.17 7.47 7.47 0 00-1-.09h-.91zm1.9 3.3a3.71 3.71 0 010 5.24 3.71 3.71 0 01-5.24 0 3.72 3.72 0 010-5.24 3.71 3.71 0 015.24 0zm-.92 4.32a2.4 2.4 0 10-3.4-3.4 2.4 2.4 0 103.4 3.4zM19 10.17a.86.86 0 11-.61-.25.83.83 0 01.61.25z" fill="#f8ea47"/></svg>