<svg id="da215411-116d-4a6f-be6d-88bc7f58236b" data-name="Layer 1" xmlns="http://www.w3.org/2000/svg" viewBox="0 0 29.03 29.26"><defs><style>.b77c9874-eb78-432d-95a7-b2a8548ebd30{fill:#010101}.\32 b10207c-81a9-423f-9914-5091aefc6c08{fill:#f8ea47}</style></defs><title>social--twitter</title><path class="b77c9874-eb78-432d-95a7-b2a8548ebd30" d="M14.53 0A14.37 14.37 0 0 1 29 14.54c-.1 8.59-6.38 15-15.21 14.71A14.44 14.44 0 0 1 .07 16C-.82 6.67 6.83-.38 14.53 0zm9.75 16.4l-.17-.16v-.13l-.11.13h.12l.17.17.13.14V16.7l-.06-.15zm-18 .23V16.34v.28l-.16.17c-.07.21.12.34.17.51l-.16.14.16-.14.34-.14a2.37 2.37 0 0 0-.27-.16 2.71 2.71 0 0 0-.28-.15zm-1.11-5.75zM24 10.77zM5.7 15.59v-.17h.06l-.09.06-.12.17-.12-.25.1-.34c.13 0 .25-.11.25-.27s-.07-.06-.1-.05-.14.2-.14.33l-.11.34c-.19.17.11.42-.1.59H5v.12a.15.15 0 0 0 0 .05V16h.39c.34.27.29 0 .34-.22zm17.46-5.19v-.23a.15.15 0 0 1 0 .21zM5.93 9.34v.22l.2.09-.18-.09zm.89 8.73a.15.15 0 0 1 0-.21zm17.73-.44zm-20.08-.56zm18.57 0l.16-.16h.3v.24c-.1.05-.14.12 0 .21l.06-.23v-.22l-.3-.07-.26-.18.26-.11.29.12v-.16h-.31c0-.22 0-.56-.18-.58s0 .36-.19.48c0 0-.05.07-.08.1h-.22.2l.23.09.16.16a1 1 0 0 0 0 .12zM9.62 9.79v.16c-.12 0-.13.15-.14.25l.15.14-.26.13-.16-.13c-.12-.53-.26.05-.39 0v.28c-.06.15-.05.36.09.39s0-.19.11-.28a1.54 1.54 0 0 0 .19-.26h.17l.11.43c.32.15.56.1.69-.25v-.14a.55.55 0 0 1 .25-.4c.34-.26.59-.54.15-.93l-.68-.4v-.1l-.1.1h-.34c-.09-.17-.26-.1-.4-.13l-.15-.14a.4.4 0 0 1 0-.12l.09-.2-.14.15-.53-.16-.46.2v-.19H8v.18a.13.13 0 0 1 0 .09l-.13.28-.27-.15c-.06.17.08.28.14.42L8 9.4c.11.32.43.3.67.39v-.12h.41l.28-.14.15.14zM6.78 9.7zm-2.31 3.73l-.1-.13a.32.32 0 0 1 0 .12zm1.9 2zm18-.36zm-.55-.3v-.16.18zm.4-.13v-.18h.29l-.23-.15-.28-.19a.25.25 0 0 1 0-.12l-.14.26.45.1-.07.12zM7.46 21.79zm2-15.74l-.08.15.09-.2zm6.2-.17v-.05a.77.77 0 0 1 0-.1v.17l-.16.17-.26.53c0 .13.16.15.28.16l.28.24h.26v-.3c0-.45 0-.45-.52-.53v-.12zM19 21.79l.13.14zm-8.21-16zm10.79 16.15zM6.37 20.86zm3.51-14a.11.11 0 0 1 0-.11.58.58 0 0 1 0 .12L9.72 7zm9.63 14.6h.22l.15-.08.09.07a.19.19 0 0 1-.09-.08l-.13.09h-.25zm1.68 0h-.17l-.21-.31h-.21l-.09.16.08-.15h.24v.31H21v.18a1.88 1.88 0 0 0-.09.31c0 .06 0 .07 0 0v-.33zm0-.39zM13.24 4.56h-.18L13 4.39a.17.17 0 0 1 0-.1l.11.18.17.13s.11.14.12.14 0-.18 0-.28zm-.56 0zm1.1.14l.12.13.1.17v.22c.09-.08.07-.14 0-.2v-.19h.38L14 4.7h-.26zm-.16 18.86a.38.38 0 0 1 0 .11v-.13l.17-.16c.12 0 .32.16.37-.09s-.13-.14-.23-.17h-.15v.15a1 1 0 0 0 0 .12zm.32 1.11v-.23l-.09-.12h.36c.06 0 .06.17.17.06h-.18c-.11 0-.23-.11-.35 0l.09.1zm2.78.09zm-4.43-.54zm4.72 0H17.13zm-6.16.19v-.34.11zm2.79-1.8v.18h-.28l-.15-.26h-.14c-.16-.25-.38-.06-.57-.07v-.25a.17.17 0 0 1 0 .23c.12.61.38.13.58.07a.49.49 0 0 0 .3.28.62.62 0 0 1-.3.41l-.13.44a1 1 0 0 0 0 .12v-.17l.27-.29a.74.74 0 0 0 .41-.5l.12-.16h-.13zm2 0v-.18l-.13.17h-.11c-.17.24-.17.28-.06.3.32 0 .3.34.44.52l.27.26.13.28h.15a.57.57 0 0 0 0-.09l-.33-.2v-.4l.19-.24-.05-.14v-.16h-.13l.12.16v.16l-.19.24h-.13l-.27-.53zm-.11-17.4l-.16.16h-.06.1zm-.83 0h-.16zM9.19 22.75H9l-.08-.29.08.29h.15l.16-.17zm10.37-.53zm-.39.11zm.65.11l.16.16h.14a.88.88 0 0 0 0-.55l.33-.1.12-.07-.11.07a.32.32 0 0 0-.33.1v.55H20l-.17-.16h-.16v0zm-7.4-16.93h.25v-.28l-.26.13h-.15l-.08-.23.09-.58a.71.71 0 0 0-.09.58c-.06 0-.16.06-.16.08s.16.08.25.13v.16zm.27 17.75zm2.16-18.55a.34.34 0 0 0 0 .11v-.13zm3.47 18.48v-.24.22zm-7.11-18l.16-.14-.16.14zm2.84 17.64zM10.18 4.92a.14.14 0 0 1-.22 0h.23zm9 18.08zm-10.64.13zm.8-.13l-.16.11V23.09l.16-.09zm7.13-18.06l-.16.17-.13-.43v-.13h-.14v.66c0 .18-.15.08-.06.17v-.19l.26-.09zM6.29 18.87l.07-.23.18-.08h.12v.52c0 .18-.09.18 0 .25v-.28c.23-.15.22-.32 0-.49a.28.28 0 0 1 0-.13l-.09.12-.19.09-.07.21h-.26s0-.2-.11-.06v.35l.09.39h-.19.17c.32-.2.1-.29-.08-.39v-.37l.13.07zM21.35 8a.17.17 0 0 1-.22 0h.23zM6.77 7.78L6.8 8l.16-.13H7h-.19zm2 0a.8.8 0 0 0 0 .11v-.13l.16-.16H9zm14.41 10.78v-.17h.28c-.08-.11-.16-.09-.26 0zm-.65 1.73l.14-.13h.12V20l.31-.11a.42.42 0 0 0 .24-.42l-.24.42-.3.11h-.15v-.27h-.11l-.15.26h.27v.14l-.15.13zm-2-13.44V7h.19zm-.3 13.62zM8.53 7.51zm11.83 0l-.13-.15c-.24-.33-.43-.08-.63.06l-.12-.08h-.23.25l.1.07a1.25 1.25 0 0 0 .64-.06zM5.15 12.09zm.69.81l-.13-.27zm7.8-8.61zM7.43 9.13h-.14c-.1 0-.24-.06-.25.11s.14.25.28.3l.14.27c-.13.09-.1.19 0 .29l.68.11v.14h.17l-.19-.08c-.18-.3-.46 0-.68-.11v-.37c.1 0 .26 0 .21-.19s-.23-.06-.35-.05v-.43zm2.83-3.05zm12.9 3.64v-.24l.3-.2-.27.13v-.28c-.22.1 0 .17 0 .25a.15.15 0 0 1-.06.09.17.17 0 0 1 0 .22zm-2.8-3.28H20h.06v.16l-.16.1s0 .08.08.09.19-.06.21-.19v-.17zm-.94-.29v-.29a.46.46 0 0 0-.43.08v.1l.35-.17h.06v.31zM10.81 4.8zm8.35 1.65a.27.27 0 0 1 0 .12l-.16.16-.38.52a.65.65 0 0 0 .38-.53l.17-.17a.07.07 0 0 0 0-.1zm-11.48.83zM5 12.49zm19.78 1.75zm-.28-.39zM5 19.2zm17.63-3.32zM4.89 14zm-.53.68zM6 20zm15.9-6.61l.11-.29c.1-.09.35-.11.16-.34l-.17-.14c-.07-.17-.26-.17-.38-.26v.4l.4-.13.16.17-.16.37-.12.28zM5.56 18.82zm16.66 2.1q0-.08 0 0v.71c.43-.19.07-.32 0-.48zM15 25.27zm-.41-.1h-.26.25zm2.84-.42zm-9.85-4.19v.05a.73.73 0 0 0 0 .1l.12.29.09.09h.06L7.69 21c.13-.17.27-.34.38-.51a.16.16 0 0 0 0-.23.7.7 0 0 1-.1.21.88.88 0 0 1-.22.12zm4.83-13.8l.06.1zm11.89 8.89l-.3-.19a.32.32 0 0 0 .28.17zm-1.12-7.19zm-13 12.88a.15.15 0 0 1-.22 0v0h.24l.07.44h.53a.26.26 0 0 0-.36 0h-.19v-.42h.19v-.05h-.18a.18.18 0 0 1-.08.03zm7.76 2.31l-.07.07zm-1.37.71c.04-.1-.01.02 0 0zM19.82 5.5zm4.32 6zm-5 12.25l-.14-.22-.15-.18v.19c-.12.08-.28.13-.26.33l.25-.2zm.67-.69l.26.16a.27.27 0 0 0-.25-.14zm3.51-9.65v.05h.05zM4.9 15.2l.07.06zM15.52 4.8zm-11 10.66zm16.28 7.43l-.09.07.11-.12zM5.05 17.58s-.06 0 0 0zm.54.11c0-.09 0-.22-.13-.25zm7.64 7.07s-.12.05 0 .12v-.13zm-6-6.58l-.11.13h.06v-.17l.12-.3c.41-.3.41-.3.28-.53h-.27l-.12.27h-.18s.1.17.18.25zm5.49 5.88v.11l.1-.11a.08.08 0 0 1-.13 0zm2.42-.66c.07 0 .11.16.22.08zm9.42-9.94l-.26-.12c0 .31.18 0 .25.1zm-4.72 7.25c-.06.05-.18.1-.08.19s.15 0 .22-.06l.36.08a.44.44 0 0 0-.36-.21zm-.55-13.84s0 .18.11.15l-.12-.16zm-6.06 17.46a.63.63 0 0 1 .27-.41.29.29 0 0 0-.27.41zm7-16.26l.43-.1V8l-.43-.19a.34.34 0 0 1 0 .13zm3.22 9.69l-.23-.09v.1zM16.73 5.35l.16-.35h-.09l-.07.36zM5.27 16.52a3.63 3.63 0 0 0-.11.38h.08a3.4 3.4 0 0 0 0-.39h.05zm15.36 3.69c.08.1 0 .27.2.3s.09-.1.09-.15c-.01-.22-.18-.13-.3-.15zM16.44 5.95v.47h.19c.09-.56.09-.56-.19-.47zM12 23.41l.26.18v-.12h-.31l.2-.27a.29.29 0 0 0 0-.06v.12c-.22 0-.54-.23-.57.23zM7.86 10.62a1.25 1.25 0 0 0 .4.52c0-.05.08-.1.08-.15 0-.33-.34-.25-.48-.37zm3.2 12.86c.1 0 .11 0 .11-.1a.21.21 0 0 0-.19-.23c-.06 0-.16 0-.13.07a1.07 1.07 0 0 0 .22.25zm1.56-17.56c-.09 0-.1.07-.08.14s0 .21.08.23.11-.08.1-.16.02-.19-.1-.21zM11.54 24.2c0 .11-.08.16-.07.21a.5.5 0 0 0 .09.16.48.48 0 0 0 .06-.16.78.78 0 0 0-.08-.21zm-7-7.48v-.09l-.07-.11v.09a.62.62 0 0 0 .06.11zm5.74 6.38s-.05-.07-.08-.07-.12 0-.08.11a.12.12 0 0 0 .1.05s.02-.06.05-.1zM5.84 8.91zm13.75 14.61l-.09.06zm-4.28 1.21h-.1.1zm-7.4-2.78zm14.8-3.64zm-13 3.37zm-3.29-6.61v-.05c0-.05 0 0 0 0s-.01.03 0 .05zM17 6.33zM7.1 21.46zm6-16.13z"/><path class="2b10207c-81a9-423f-9914-5091aefc6c08" d="M21.91 10a6.34 6.34 0 0 1-1.52 1.57v.39a8.59 8.59 0 0 1-.39 2.49 8.78 8.78 0 0 1-1 2.33 9.2 9.2 0 0 1-1.73 2 7.72 7.72 0 0 1-2.42 1.37 8.85 8.85 0 0 1-3 .51 8.42 8.42 0 0 1-4.66-1.36 6.64 6.64 0 0 0 .73 0 5.94 5.94 0 0 0 3.7-1.3 3 3 0 0 1-2.83-2.1 3.85 3.85 0 0 0 .57 0 3.15 3.15 0 0 0 .8-.1 3 3 0 0 1-1.74-1 2.93 2.93 0 0 1-.69-1.93 3 3 0 0 0 1.37.38 3 3 0 0 1-1-1.08 3 3 0 0 1 0-3 8.59 8.59 0 0 0 2.76 2.24 8.45 8.45 0 0 0 3.49.93 3.31 3.31 0 0 1-.08-.69 3 3 0 0 1 5.25-2.07 6 6 0 0 0 1.92-.73 2.94 2.94 0 0 1-1.33 1.67 6 6 0 0 0 1.8-.52z"/></svg>