<svg xmlns="http://www.w3.org/2000/svg" viewBox="0 0 53.11 57.31"><path d="M27.57 13.33h-1.92l.76 1.74a12.09 12.09 0 01.52 7.51c-.32 1.49-1.28 1.74-2.41.64a14.54 14.54 0 01-3.92-7.14l-.14-.54-.37.43a10.75 10.75 0 01-8.41 3.86c-1 0-1.2-.49-1-1.28a6.94 6.94 0 011.81-3.32 10.62 10.62 0 012.41-2.45.38.38 0 00.19-.5c-.1-.23-.33-.19-.52-.19-1.53 0-2.69-.89-3.89-1.66A1.2 1.2 0 0110 9.11c.13-.57.54-.76 1.09-.94A12.32 12.32 0 0118.33 8c.69.19.51-.16.44-.55A10.06 10.06 0 0017 3.15c-1-1.52-.5-2.22 1.16-3a1.2 1.2 0 011.73.72 25.1 25.1 0 012.2 5.21 4.43 4.43 0 00.2.56c.09-.16.18-.32.28-.47a8.2 8.2 0 016.59-3.74c.93-.05 1.09.42 1 1.19a7.69 7.69 0 01-1.56 3c-.5.74-.34.95.5.87A10 10 0 0134.66 9c1.42.74 1.45 1.64 0 2.43a13.48 13.48 0 01-7.09 1.9zm-7.95-1l.11.16.09-.18h.27c0 .2 0 .39.24.47l.11.33h-.08l.05.05.14-.35A1.49 1.49 0 0122 13v.27l-.46.3c-.11-.14 0-.43-.22-.47s-.4.16-.46.41l-.06.07v-.1h.75a.46.46 0 01-.33.44c.32 0 .44.24.52.51l.45-.22c.16.08 0 .71.46.29l.43-.21c-.05-.09 0-.09 0 0l-.41.25-.51-.3V14c-.59-.06-.23-.5-.31-.77.17 0 .27-.11 0-.22l.25-.49c.41.09.59-.18.74-.5.42-.48.2-1.15.47-1.67l.37.56c-.1.06-.37-.09-.26.22l.23-.22c.59.07 1 0 1.12-.75l-.38-.49.23-.5c.36.15.46.71 1 .64v-.06l-.08.05c-.11-.49-.33-.84-.9-.81l-.15-.39-.2-.23c.2 0 .4-.19.6 0h-.09c-.22-.3-.39-.1-.57 0 .07.07 0 .27.21.21l-.08.42-.5.21-.17.47-.25.27c-.61-.15-.45.76-1 .71.51-.73-.44-1.26-.27-1.94 0 0-.13.07-.13.11a2.31 2.31 0 00.12 1.72l.07.1-.23.25c-.2 0-.24-.44-.4-.27a1.4 1.4 0 00-.07 1c-.38-.1-.12-.64-.51-.74.13-.44.33-.9-.11-1.25a6.12 6.12 0 00-.79.74C20 10 19.69 10 19.4 10h.08l.15.56v.06c0-.36.36-.2.53-.31-.21.45.59.39.42.82-.28 0-.6-.18-.74.23l-.62-.13c-.11.28-.25.34-.43.05-.13.09-.19.36-.43.2v.05h.07c.12.2 0 .34-.13.49l-.67-.02h-.06c.24.08.46.24.74.14v.43h-.09s.05 0 .08.07c.77-.36.48.55.83.71l.15.55v.1h-.09l.1-.14.42.13v-.17l-.42.09-.17-.52c.15-.24.3-.26.47 0h-.07a2.85 2.85 0 01-.81-1.81l.48-.06c0 .28 0 .51.35.59v.24l-.18.11zm6.7-2.3h-.08v-.12a.27.27 0 01.08.11zm.23.75v-.05h-.23l.13-.12zm-8 2.8v.12a.27.27 0 010 .09h.07s-.06-.07-.06-.1a.87.87 0 01.09-.17l-.06.06v-.09zM26 8.11l-.08.14-.05-.16H26a2.06 2.06 0 000 .3 1.41 1.41 0 00.07.25zm-2.27 4l-.1-.31-.12.13.25.15v.27c0 .48-1.17.37-.58 1.15l-.26-.16h-.07l.32.12 1.11-.7h-.18s.07-.16.18-.15c.19-.63-.29-.46-.58-.51zm-.32-3.34l-.29-.28s-.1.11-.09.14a1.64 1.64 0 00.17.26zm1.71 2.9l.18.07s.05-.07 0-.09l-.12-.14zm-7.46-.6h.08V11h-.08zm5.46-1.6c.07 0 .2 0 .21-.08s-.12-.14-.21-.15a1.5 1.5 0 00-.22 0s.1.2.19.23zm3.16-.12h-.16s.05.06.08.06h.07zm-8 3.55l-.16.09.06.08.16-.1zm6.29-1.39h-.16v.07l.12-.07zM18.44 11zm3.24-1h.07zm3.83.49v.05h.06z"/><path d="M22.25 10.91v-.27h.27v.27h-.27zM19.82 11.35c.28 0 .58.14.72-.24h.27v.56h-1zM20.64 10.28l.07-.02-.01.06-.06-.04zM21.09 10.86l-.29.29zM23 12.1c-.31.06-.68 0-.73.49a.92.92 0 01-.51-.51c.41.09.58-.18.73-.49.25.08.51.08.51.51z"/><path d="M22.45 10.9c.38.16-.05.3 0 .45v-.45zM23.42 9.91h.28l-.27.27zM22.49 11.67c-.17 0-.26-.09-.24-.28h.27zM24.17 9.91c.16.34.49.18.74.25-.4.21-.86.63-1-.25z"/><path d="M23.66 9.95v-.28l.28.28zM20.54 12.1l.24-.52.28.53z"/><path d="M20.57 12.34h-.48l.51-.27zM21.5 12.11v-.52c.23.1.19.34.27.52z"/><path d="M21 12.07h.52c-.16.22-.33.47-.52 0zM20.58 12.83h-.28l.27-.27zM20.55 12.59zM22 10.87h.27v.5c-.34-.05-.27-.29-.27-.5zM24.17 12.55v.28c-.2 0-.27-.09-.27-.27zM23.66 12.31l.28.28zM24.38 8.95h.28v.28c-.19-.01-.29-.09-.28-.28zM19.58 12.34v-.27a.27.27 0 01.28.26h-.28zM19.57 11.87l.29-.29zM24.42 9.67l-.29.28zM23.91 9.21H24v-.07z"/><path d="M53.09 31a26.34 26.34 0 01-2.88 13.17 22.05 22.05 0 01-9.78 9.71 40.06 40.06 0 01-6.65 2.68 17.92 17.92 0 01-3.85.66c-7 .57-13.52-.74-18.83-5.76S1.74 40.93.37 33.82c-1.25-6.51.48-14.25 8.27-18 .28-.13.61-.44.88-.21s0 .65-.17 1c-.47 1.21-.69 2.4.21 3.51s2.06 1.26 3.53 1a15.54 15.54 0 005.72-2.3c.64-.37.86-.37 1.19.36a13.88 13.88 0 004.61 5.56 2.16 2.16 0 002.73-.12A4.53 4.53 0 0028.91 22a14.36 14.36 0 00-.06-6.29c-.22-.84-.11-1.09.81-1.19A14.66 14.66 0 0036.28 12a2.31 2.31 0 001.23-2.72c-.26-.87.15-.93.82-.94a12.63 12.63 0 0110.62 5.49c2.62 3.49 3.53 7.51 3.94 11.74.11 1.69.2 3.35.2 5.43zm-38 6.52V38l-.52.13-.26-.23-.41-.34v.11c0 .23.21.3.39.36l.34.08c-.15.61.14.79.7.72.29 1.13.91.36 1.42.25v.54c.31.09.38-.19.43-.4.12-.5.49-.53.88-.52.1 0 .26.06.28.13.14.48-.39.39-.54.62s-.32.62-.48.92h-.56v.08l.56-.08.62.38.26.26-.47.23.43.75v.25c-.07.39.07.64.48.69a1.74 1.74 0 01.24 1v-.05h.22l.51.5c.12.14.09.61.46.23l.23-1h.7l.26.26c.17.2.34.49.5 0 0 0-.09 0-.09-.05a.9.9 0 01.05-.17v-.28c.37 0 .42-.23.48-.49l-.2-.53 1 .24a.77.77 0 010 .23l.11-.15c.35 0 .32.21.27.44l-.56.51.22.49c.41 0 .41.26.29.56l-.33.2-.66.06c-.16-.59-.31-.07-.47 0-.43-.07-.56.47-1 .48l-.26-.26.24-.47a.43.43 0 00-.42.44l-.25.25h.25l.26.26.74 1.17-.25.25V47l.24-.26.7.08h.24c.36-.09.74-.14.95-.5l.26-.26.46.22.72-.25a4 4 0 01-.63-.2.76.76 0 00-.76 0h-1v-.28a1.25 1.25 0 00.66-.76h.57c.51-.41.51.94 1 .32.3-.37.08-.76-.31-1v-.28l.73-.49.25.26c0 .54-.56 1.23.45 1.43h.26V44c.34-.29 1 .47 1.18-.41l.54.15a1.66 1.66 0 00-.25 1l-.14-.13h-.43c0 .05-.22-.06-.17.13l.15-.12h.46c-.12.47-.58.66-.83 1l-.5.28-.45-.47h.06c-.14.36.1.62.21.92l-.39.58.37-.36.29.31c0 .13 0 .35.2.32s.15-.22.22-.34l.28-.31.05-.17v.19l-.28.3H26l-.29-.31v-.27l.48-.18.23-.54c.42-.19 1.07-.13 1-.89h.5a.64.64 0 00.48.52h.25c.64.69-.31.63-.45 1h-.28c-.09-.13 0-.44-.31-.35s-.25.32-.16.55l.27.27v.22l-.72.51a1.34 1.34 0 00.75-.45c.7.14.38-.42.47-.69l.71.23.27.23V47h-.11l-.08.06.16-.13h.51c.45-.32.91-.75 1.31 0l-.7.14c-.11.13-.18.26.06.33v-.33l.7-.13a.17.17 0 01.14-.07v.48l.21-.44.26-.26c.23-.17.17-.34 0-.5-.08.12-.15.11-.23 0l-.5-.15.5-.47a.44.44 0 01.23 0h.74l.46-.78.3.31a1.58 1.58 0 010 .18.39.39 0 010-.13l-.3-.31.53-.71.38.82h.44l.06-.07v.06h-.47l-.14-.8c.28-.07.24-.3.24-.5l1-.3v.44c-.19.18-.31.38-.16.64l.33.2a.2.2 0 01-.1.13v.45l.44.09v.6h.44-.48v-.59l-.37-.14v-.45l.55.13h.23l.36-.05v.06H36l-.31-.19-.26-.25v-.22.06l-.45.21-.36.05.2-.68v-.41l.46-.48.19.56a.45.45 0 00-.18-.55l-.51-.44.74-.5a.93.93 0 00.47.76l.25.48c.45.6 1.24 0 1.71.49a.28.28 0 01-.12.14c.11.14.32.23.18.47v.36-.42l-.18-.49c.38-.17.75-.34.32-.83v-.26a.87.87 0 00.74-.48h.19v-.71s.07-.05.07-.08a.68.68 0 000-.16l-.21-.24-.24-.49v-1.2l.25-.26c.33.24.09.76.48 1l.76 1.19v-.06l-.48-2.1a.51.51 0 01.45-.52l.33.3v.34a.47.47 0 00-.07.58 2.37 2.37 0 00.14.57l.12-.57c.37-.32-.13-.4-.18-.61v-.29l-.33-.3a.49.49 0 010-.22l.49-.49.22-.47.47-.23.26-.27.26-.24.43-.72.57-.2-.75-.07-.06.24c-.28.05-.59.2-.71-.23l.25-.46v.07l-.49.18-.72.5c0-.27.09-.56-.23-.72l-.29-.25h-.2l-.26.26-.22.25h-.29v-.73s.08-.05.07-.07a1 1 0 00-.07-.17v-.8l-.5.33-.24-.5.25-.44v.05c-.44-.65.17-.81.51-1.1.1.15-.18.76.4.34l.31-.31v.07l-.31.32-.44-.34c-1.13-.83-.79.52-1.18.79h-.3c-.05-.15-.11-.21-.2 0l-.75.24c-.65 0-.06-.95-.71-1a1.08 1.08 0 01.25-1l.21.54.11.2.09-.14h-.22v-.56l.78.18a6.09 6.09 0 01-.1.73.61.61 0 00.09-.69 1.86 1.86 0 01-.3-1.41c.2.05.58-.22.49.35 0 .2.09.86.65.35a1.2 1.2 0 00.93-.26l.64-.17a1 1 0 00.79-.54h.73l-.41.73c-.1.23-.2.47-.29.71l.08.19-.1-.21h.58a.22.22 0 010-.14v.06l-.32-.65.77.1-.36-.79h-.68l-.91.38c-.31-.57-.22-1.34-.9-1.72l-.19-.43-.06.36c-.15.21-.08.32.16.42.43.18.55.44.09.75-.13 0-.31 0-.25.26l1.17.26a.63.63 0 01.09.22l-.64.16-.93.27c-.22-.49-.47-1-.66-1.48-.07-.18 0-.45-.31-.31-.14.07-.38.14-.29.42a5.63 5.63 0 01.14.69h-.24c-.37-.34-.4 0-.48.24h-.5a.74.74 0 00-.53-.88l.09-.28a.2.2 0 00.21-.1c0-.1 0-.14-.08-.08s-.07.13-.1.2h-.46v.05l.27.26c-.28.43-.76.32-1.16.44-.07 0-.08-.28-.22-.05v-.05h.24l.24.47-.26.25c-.27.2-.61.33-.69.71h-.51a1.29 1.29 0 01.06-.19v-.35c.3-.62-.28-.33-.47-.44l-.54-.22v-.34l.55-.17h.66v.06c-.21 0-.43-.16-.64 0a.5.5 0 00-.54.19h-.28l-.2-.27.21.26V30h.24l.54.22a.46.46 0 00.45.44v.39c-.39 0-.75.07-.55.62l.26.25 1.2 1v.25l-.49.24-.26-.26c-.09-.38-.42-.52-.71-.7l-.25-.25h-.24l-.46.48-.51.25a1.93 1.93 0 01.12-.44 1.22 1.22 0 00-.37-.77l.3-.3-.3.29c-.12.38.24.52.37.77a1.52 1.52 0 01-1.11 0v-.78a.46.46 0 00-.54-.36L29 31l.58-.16.4-.25v.06l-.38.23-.57.18h-.32l-.26-.15v.06l.3.11.22.31c-.26.43.11.33.31.38V32a.35.35 0 00.16.47h.06l.26.94-.25.25-.46.23-.26.26-.27-.49.28-.28c.34-.23.23-.46 0-.69l-.83.36v-1.22h-.08a2.58 2.58 0 00.11 1.24c-.17.43-.6.27-.91.4v-.23l-.28.21h-.49a.54.54 0 00-.2 0c-.21.76-1.12.48-1.49 1l-.26-.26c.05-.22.79-.13.29-.58-.2-.19-.51-.32-.69.15 0 .13-.25.27-.32.45-.46.15-.58.57-.71 1l-.26.26a1 1 0 01-1-.5l.25-.26c.27 0 .59.2.74-.21v-.25l-.2-.25c-.16-.29-.22-.56.2-.68.31.21.63.42.84-.12.13-.35 0-.43-.33-.32.05.4-.26.42-.52.49l-.43-.28v-.29l.28-.23c.44-.48-.11-.77-.23-1.14l-.31-.3.31.3v.94l-.5.25h-.23a.6.6 0 00-.73 0l-.7-.21-.3-.3v-.58l.45-.43h.45l.37.18v-.06l-.41-.12h-.41l-.45.47.05.54.3.3-.27 1-.23-.3a1.59 1.59 0 000-.23l-.36.09a5.59 5.59 0 00-.12-.82c-.39.33-.14.57.13.8l.37.11v.32l-.24.47c-.25-.3-.5-.11-.74 0l-.45-1v-.25a.53.53 0 010-.2h-.17v-.26l.3-.31a1 1 0 000-.18l-.3-.54-.31-.11-.33.29-.36.33-.5.39c.59.42.5 0 .49-.38l.3-.33.34-.26h.34l.31.29v.21l-.3.31v.22l-.23.45c-.21.08-.1.16 0 .24l-.26.49c-.38.34-.61.87-1.21.93v-.06c.68.15.57.77.73 1.23l-.25.27h-.52a.33.33 0 00-.36-.29h-.09c-.38-.2-.67-.24-.6.35l-.52-.17h-.42l-.34-.09-.19.82.61.39h.26c-.17-.4-.51-.41-.87-.39l.5-.66h.46l.49.17c.27.14.48.29.18.6-.08.22-.25.45 0 .66s.35 0 .44-.18c.58.1.34.63.5.95a1.76 1.76 0 00-1.2 1l-.26-.5a.89.89 0 01.06-.39v-.44zm-2 .6zm30.2-2.22zm-31.2.8zm3.12 3.61s-.06-.05-.06-.08a1 1 0 010-.17c-.45-.52-.53.17-.79.25v.22l.26.26.43.44.3.31-.3-.31.09-.46-.09-.06.09-.16a.56.56 0 00.05-.27zm27.33-1.7zm-12.68-8.69zM14 38.54zm.4-5.65a.26.26 0 01.42 0c.14.15.41.26.55.47s.62.56 1 .29-.15-.37-.21-.58v.06l-.8.28.33-.53-.46-.28-.41.28h-.42zm25.55.36l-.28.31V34c.08.26.27.22.47.19l.34.15v.06l-.39-.17.82-.53a.5.5 0 00.47.53l.51.11.14.41a.28.28 0 01.38 0l.37-.27.31-.32-.31.32a.35.35 0 00-.37.25H42l-.11-.39a1.23 1.23 0 01.21-.72c.43-.67-.1-.56-.48-.57l.26-.76c.31-.06.36-.21.17-.46l-1 .34v-.09q.15 0 0 .07l.56.14-.23.75h-.71v.24l-1 .78v-.53zm-24.32-1.79V31a.3.3 0 010 .39zm9 .86h.25l.47.26c0 .57.32.51.53.17a2.4 2.4 0 00.16-.9h.25c.06 0 0 .23.16.12l-.18-.1v-.56a1.17 1.17 0 01.05-.17H26a.34.34 0 01-.23 0l-.2-.25h.06l-.06.26-.23.5c-.46.12-.74-.61-1.25-.26-.56.74.53.32.49.69v.24zm-12 3.59v-.34l.17-.09-.17.11zm3.46 8.41zm22.16-18zm-21.16 18.5zm17.3-17.76l.3.26zm-.22 19.61c-.1-.15 0-.23.1-.29a.22.22 0 01-.13-.16l.57-.15-.57-.1c-.15-.14-.3-.19-.45 0l-.37.06c-.42-.15-.38.14-.38.4l.43-.39.33.19.56.13-.1.32zm-3.89 2h-.06l.07-.27-.17-.18-.12.18zm-4-.07l.08-.26-.08.3zm6-.48zM31 48.2zm-10.75-1.46c-.08.12-.15.1-.21 0h.21zm-.72-.48h-.06l.08-.24h.66a.63.63 0 00-.62 0h-.36l-.23-.15V46l-.1-.08h.08l.3.11zM39 25.61l.24.3V26zm-5.54 3.14h.26c.5.11.67-.35 1-.57 0 0 0-.14-.07-.15-.41-.16-.66.17-1 .34l-.2.12zm3.63-.75h.06c.14-.1.22 0 .28.11V28l.11.1h-.09zM16.23 42.36h-.41l-.08.46-.26-.13.4.79c.18.22.4.17.63.09H17c0 .18-.16.4.09.51.06 0 .25-.08.26-.15.07-.29-.24-.24-.37-.36h-.46l-.65-.06-.15-.7.07-.43h.45zm11.7 6.47zm7.63-22h-.06l.08-.28.21-.42h-.13v.46zm4.8 5.54zM28.19 47.94v-.05.06zm11.37-16.49h-.65c0-.06.05-.25-.15-.17l.17.15zm-24 .69zm23.91 10.75zm1.66-5zm2.16-7.49zm-3.69-1.81h.4c0-.12.29-.12.13-.31l-.13.3h-.46v-.05zm-1.08-1.51zm-25 9.37zm28.28 1.09l.08-.07-.06.1v.63l-.07.46h-.09l.07.05c.18-.12.28-.26.09-.46zm-.92-9.06zm2.21 4.89H43l.07-.08zm-23.5-2.21l.07-.06.05-.07-.1.13zM42.65 31l.14.51v-.01zM18.56 45.22l.1-.29-.11.31zm12.93-14.55v.43h.14zm-5 0a3.54 3.54 0 00.56.15c.09 0 .1-.12 0-.13a4.13 4.13 0 00-.54 0zm-12 4.1c.5.2.33-.3.48-.47l-.49.17s-.06.06-.06.08a1.11 1.11 0 00.09.19zM42 39.62c-.12-.13-.15-.36-.39-.36zm-.14-10.37h.06l-.22.52h.09c.18-.16.12-.36.09-.55zm-29.51 5c.18.06.34.23.55.09a.13.13 0 01.06-.1zm15.78-4.46a.38.38 0 00-.12.52c.06.13.16.33.33.2s0-.28 0-.42.08-.35-.19-.31zm10.53 14.32v-.19h-.09a1.71 1.71 0 000 .19zm-15.3 3.27s0-.06-.05-.07a.14.14 0 00-.11 0c-.08.07-.06.12.06.12s.09 0 .12-.06zm13.73-20.27H37a.37.37 0 00-.08.1H37s.09-.08.09-.1zM14.25 41.27a.28.28 0 000-.08h-.06v.07s.04.02.06.01zm2.63 1.2v.13l.06-.06zm21.95-14.8v.08h.06zM24.45 48.21v-.08h-.06zm3.1-15.79v.07h.07z"/><path d="M21.68 43.61v.25h-.5l-.25-.25c-.18-.44-.14-1.08-.9-1-.08.18-.07.43-.32.51h-.28l-1-.21v-.22c-.06-.34.61-.24.4-.55s-.54.17-.83.06v-.26l.51-.72c.39 0 .55.54 1 .48.09.14.18.18.27 0 .15.11.3.3.5.17s0-.27 0-.41c.59.18 1 .94 1.73.67v.26l-.46.21.19.75z"/><path d="M19.09 40.26c.24-.72-.66-1.81.71-2.16v.24a1.09 1.09 0 00-.11 1.33v-.07l.8.11c.25.42.5.66.75 0l.51.25c-.17.77-1.33.35-1.45 1.19-.11-.09-.27-.29-.32-.26-.32.17-.08.51-.18.75h-.27l-.44-1.17s-.05-.06-.05-.09a1.12 1.12 0 01.05-.19zM27.7 41.19c-.62-.12-.7.35-.82.76-.69-.57-.23.6-.66.44a1 1 0 00-.25-.75l-.5-1c0-.35-.62-.1-.58-.43s.44-.24.7-.29h.35v.25s-.09 0-.08.06a.87.87 0 00.07.16l.2.32v-.34l1.45.24v.51z"/><path d="M20.24 36.67c.4-.44.81-.22 1.22 0a1.16 1.16 0 010 1.48l-.27-.48-.29.05.12-.5v-.42.46l-.12.46c.18.64 0 .88-.66.63l-.51-.26v-.74l.26-.51.27-.27zm.19 1.25c0-.1.2-.24-.06-.29 0 .1 0 .19.08.28zM22.89 35.94c.47 0 .94-.28 1.41 0a.93.93 0 00-.21 1.13 1.34 1.34 0 01-.26 1.49 1.64 1.64 0 00-.26-1c.43-.49 0-.72-.29-1l-.71-.23v-.27l.27-.27z"/><path d="M22.91 37.86c-.39-.34-.7-.7-.25-1.22.4.25.49.81 1 1l-.27.51-.46-.25zM25.28 43.67l-.28-.25-.25-.48c.45.13.83-.13 1.23-.24.1.23.41.47 0 .7h-.25l-.27.27h-.22zM20.48 39.3c.48-.11.95-.52 1.43 0l-.26.27-.51.26a.75.75 0 00-.75 0v-.5zM23.37 41.2c-.42-.62.54-.54.5-1 .8.81-.32.63-.48.95z"/><path d="M23.87 40.23a.57.57 0 01-.61-.53c0-.18.21-.15.36-.15l.24.74zM25.53 40.67a1.09 1.09 0 01-1 .72c.07-.58.57-.59 1-.71zM21.43 36.67c0-.54.3-.61.74-.48v.24zM23.61 39.54a1.51 1.51 0 01.24-1c.36.32.08.65 0 1h-.24zM23.09 42.67h-.26v-.75c.56.08.43.42.26.75zM22.09 38.57l-.16.11a1 1 0 010-.19s.05 0 .08-.07z"/><path d="M22.9 41.94h-.26l-.16-.45c.07-.07.19-.21.21-.19.26.16.16.42.21.64zM24.09 43.83l.26.25c-.07.08-.17.24-.19.23-.26-.12-.16-.31-.07-.48zM24.09 43.59c-.21-.14-.31-.32-.12-.55h.2c.31.24 0 .37-.11.53zM24.09 41.92l-.48-.23c.26-.13.51-.24.48.23zM21.91 39.53l.14.83-.39-.36v-.5h.24z"/><path d="M22.48 41.49l-.93.28a1.47 1.47 0 01.93-.26zM25.31 42.42a.41.41 0 01.34-.47h.12v.25l-.5.23zM21.09 41.76l-.09-.42h.11v.43z"/><path d="M24.79 42.89c-.07-.42.17-.51.51-.47l-.49.5zM22.89 37.83l-.25.31-.1-.14.37-.15zM22.66 41.92a1 1 0 01-.76.25 1.16 1.16 0 01.76-.25zM22.09 40.36c.22-.09.45-.18.62.08zM24.31 41.94c0 .1 0 .26-.19.19s0-.14 0-.21h.24zM20.23 38.58c.25.18.24.45.24.72-.28-.17-.19-.47-.24-.72z"/><path d="M20.24 38.32v.27l-.49-.25h.51zM23.4 43.08v.1a.37.37 0 010-.11zM22.66 36.67l-.5-.24h.51v.24zM21.93 41l-.12.13c-.07-.18.08-.09.14-.11zM22.48 39.18l.03.1-.01-.1h-.02zM24.56 41.42l-.25.51.24-.49zM21.95 41v-.33a.92.92 0 01.07.17l-.08.07zM23.37 41.43a.37.37 0 010-.23v.23zM23.62 41.67l-.25-.25.24.25zM21.55 41.77zM25.76 41.95l.27-.27-.25.25zM20.23 41.18v.3-.3zM23.35 44.82v-.27l.27.27zM24.34 43.86h-.25v-.27zM22.27 39.36l.21-.18-.25.16z"/><path d="M22.25 39.34l-.34.19v-.27l.37.06zM22.68 40.44l-.01.04.02-.06-.01.02zM35.09 31.86a.57.57 0 010 .23v.28l.06.28c.24.28.74.44.45 1l-.55.1a.46.46 0 000-.11.3.3 0 000-.08v.17c0 .37-.45.78.06 1.12l.25.49.73-.18-.74 1-.07.4.58-.22v.51l-.27.27-.27.27h-.23v.28l-.48.28a1.93 1.93 0 00-1.21-1.72c-.17-.57-.34-.14-.51 0-.38-.65.5-.91.46-1.45.48.22.14.73.37 1s.29.37.58.22.43-.16.29-.5c-.51-1.21-.07-2.43 0-3.65h.27l.26.27z"/><path d="M31.76 35.94c.4-.33.82.42 1.22 0h.48l-.46.74c-.13.07-.47 0-.31.28s.38.16.55 0c0 1.23-.73.53-1.21.49l-.24-.51a.52.52 0 010-.22v-.78zM30.09 33.54v-.26l.74-.49c.14.16.22.48.49.34s0-.38 0-.58c.34 0 .51.33.75.51v.27l-.26.51c-.79-.12-1.08.77-1.77.86l.07-.64c.3 0 .4-.22.5-.45v.06l-.52-.16zM29.86 37.86c-.21-.29-.54-.76-.33-.95s.51.32.8.46l.27.27-.72.24zM28.63 35.67H29c.37 0 .81.22.73.49s-.52 0-.81 0l-.25-.5zM28.18 34.48v-.71c.87.37.79 1 .43 1.66a1 1 0 00-.5-1zM28.38 36.41v.26a1.42 1.42 0 01-1.08-.4c.35 0 .69-.38 1.07-.06v.2z"/><path d="M32.09 33.81a.49.49 0 01-.32.44c-.16.08-.31.19-.46.28-.18-.32.16-.36.28-.51s.15-.17.23-.26a.41.41 0 01.21-.05zM31.78 35.91c-.62.1-1.06 0-.7-.76h.15c.18.27.61.37.57.8zM28.88 37.39a1.53 1.53 0 001 .47l-.22.5a.83.83 0 01-.75-.26L29 38a1.06 1.06 0 00-.09-.17v-.49zM27.7 35c-.48-.29-.86-.61-.49-1.23zM29.09 34h.26l.25.51c-.06.15-.16.34-.32.25s-.19-.5-.19-.76z"/><path d="M32.24 33.07l.49.23v.27l-.69.29-.04-.08v-.46l.27-.27zM30.33 37.37c-.05-.48.18-.41.46-.25v.51h-.25l-.27-.27zM33 33.3h.26c-.08.25-.1.6-.49.24l.26-.26zM28.39 36.67a1 1 0 01.49.75l-.44-.2-.06-.54zM33.45 34v.5l-.44.29c-.09-.39.14-.61.44-.79zM33.95 34h-.51a.71.71 0 01.5-.5v.5zM32.22 34.44l.09-.19.09.12-.2.06zM31.21 35.15L32 35a.75.75 0 01-.79.15zM31.09 35.15c-.12.1-.24.24-.4.07a.12.12 0 010-.11c.16-.15.28-.1.38.07zM27.7 35.47v-.52h.25l.28.25-.51.23zM30.09 35.22v.26h-.29l.27-.27z"/><path d="M33.67 33c.31.06.51.17.25.51zM29.14 33.29l-.26.26c-.12-.06-.2-.16-.11-.28a.21.21 0 01.37.02zM30.8 37.13l.2-.23.06.09-.29.12zM28.89 36.16l-.51.25v-.28h.5zM31.09 37.67l.48-.24v.27h-.51zM31.54 37.38l.24-.5v.51h-.24zM27.19 33.27h.26l-.06.52h-.22zM29.83 33.52h.27V34c-.22-.09-.22-.33-.27-.48zM27.93 35l.25-.5v.5h-.25zM32.21 34.42c0 .22 0 .43-.21.56zM30 34.67l.07.6h-.27l.21-.55zM28.23 33.77l-.07-.02.04.02h.03zM29.36 34v-.27c.15.11.18.2 0 .27zM29.83 35.46v-.26.27zM28.63 35.43v.24s-.08-.06-.08-.07a.93.93 0 01.08-.16zM33.01 34.78l-.04-.03.06.04-.02-.01zM31.79 36.67l-.3-.22h.32v.22z"/><path d="M30.79 37.62h.3v.26l-.24-.26zM32.49 41.92c-.38-.29-.52.09-.74.26-.45.31-1.12-.63-1.47.25h-.19v-1c.32 0 .37-.23.25-.5h.75c-.23.33-.14.57.2.74a1 1 0 000-.77h1c.08.1.16.11.24 0l.47.1v.45s.06.06.05.09a1.13 1.13 0 01-.05.19l-.24.48-.27-.27z"/><path d="M32.48 43.4c0 .25.15.68-.1.71s-.28-.4-.31-.66a2.76 2.76 0 01.42-1.53l.27.27c.31.49.94 1-.24 1.25zM31 43.14c.35 0 1 .14.41.49-.33.22-.17 1.49-1.1.69s-.06-.06-.06-.09a1.1 1.1 0 01.06-.19v-.51h.26a.44.44 0 010-.22h.53a.83.83 0 010-.22zM34.63 41.67v.74c-.37-.18-1 .55-1.18-.27l.25-.5h.23c.16.16.32.1.48 0h.26zM28.65 45.3h-.26l-.25-.5c.35-.11.44-.41.51-.73h.44v.49zM30.58 46c-.36.06-.73.12-1-.25v-.26a.89.89 0 00.75-.24zM31.53 44.34c.14.23.6.1.58.45s-.31.24-.47.18c-.33-.13-.36-.36-.09-.61z"/><path d="M29.61 45.55a1.21 1.21 0 01-.5-1c.41.22.7.45.5 1zM33.7 43.61l-.24.49h-.27c.06-.31 0-.69.51-.71zM30.35 44.32a.79.79 0 01-.73 0l.24-.27h.5v.27zM33.7 41.67h-.76v-.25c.25.06.53 0 .73.24zM33.7 43.39l.09-.3.13.09-.24.19zM31.06 42.9l.02-.07-.05.05.03.02zM29.37 44.08h-.28l.07-.17.16.17zM32 45.53h-.5c.18-.23.35-.13.5 0zM31 45.28l.27.28-.27-.28zM30.31 42.41l.25.25-.24-.25zM30.56 42.67l.24.24h-.26v-.26z"/><path d="M31 42.88v.27l-.25-.24h.3zM29.62 44.33l-.25-.25h.26v.25zM19.09 33.51c.06.66.65.3 1 .5l.27.27c-.13.26-.1.64-.49.73a.86.86 0 00-1 0h-.26a.75.75 0 010 .23l.24.06c-.21.39-.09 1.38-1 .55.3-.38.16-.87.32-1.29v-.25L17.9 34l-.26-.73zm0 .89h.1l-.1-.07zM16.88 35.67h.21a3.3 3.3 0 01.33.32c.16.21.39.47.13.71s-.43-.29-.7-.31h-.46a1.76 1.76 0 01-.48-1l.49.26zM19.79 37.36c-.37 0-.48.34-.74.48l-.26-.26v-.25l.53-1h.22l.06.55h.22v.51z"/><path d="M20.48 35.67l-.48.26a1.46 1.46 0 00-1.21-.75v-.26h1l.74.5v.25zM16.64 38.83a1.87 1.87 0 01-.25-1h.25c.28.27.65.17 1 .26-.27.35-.83.29-1 .74z"/><path d="M17.86 37.36c-.32.39-.85.25-1.23.5.11-.92.77-.46 1.23-.5zM20 35.91l.23.75-.27.27h-.26l-.26-.51c.07-.35.3-.42.56-.51z"/><path d="M18.57 37.6l-.75-.23a.67.67 0 01.95-.05l.05.05-.26.26zM17.81 35.75l-.22-.53h.18v.58zM18.09 34.48c-.19 0-.42.06-.5-.16s.07-.28.25-.32l.27.27v.28zM18.69 36.57l-.16.13a.76.76 0 01-.07-.16s.06-.08.07-.07zM16.89 36.39c-.17.24-.33.28-.49 0h.49zM17.09 35.67v-.28c.2.13.18.22 0 .28zM18.09 41l-.24-.25-.05-.24.28-.22-.27.22c-.3-.35-.21-.63.17-.83.62-.32.71.42 1.09.58v.24c-.2.24-.61.16-.74.5h-.24zM16.64 39.07v-.28c.17.09.18.21 0 .28zM19.09 37.84c-.08.14-.15.13-.23 0h.23z"/><path d="M18.58 37.86v-.26h.27v.27h-.27zM38.73 39.06h-.25l-.26-.26a.37.37 0 00-.45-.27c0-.92-.17-1.56-1.21-.72-.37-.49-1-.33-1.44-.51l.27-.27.27-.27.27-.27h.25c.08-.11.16-.13.23 0 1.1-.18.22-.81.28-1.23l-.28-.53h.75c.19.51 0 1.24.73 1.46l-.42.21c.11.4.83.21.76.74-.12.89.55.86 1.09 1z"/><path d="M37.54 34c-.07.38.68 1.18-.51 1 .13-.33-.5-1.11.51-1zM37.53 32.82h.24c-.11.7-.2.72-1.22.23l.74-.24zM36.09 33.78a1.31 1.31 0 01.23 1.22h-.23c-.29-.41-.08-.82 0-1.22zM36.09 33.52v.26c-.28.17-.54.29-.48-.24h.48zM35.09 32.09h.76c-.19.28-.48.25-.77.24v-.24zM38.25 33.51V34H38c0-.17 0-.39.25-.49z"/><path d="M37.78 34h-.28c.1-.14.19-.14.28 0zM36.1 33.54l.02-.05-.05.03.03.02zM23.09 34v.26c-.26 0-.58-.15-.72.23l-.24.24a.71.71 0 01-.71-.24c.42-.17.36-.34 0-.51 0-.58-.8-1-.27-1.7h.75c-.5 1.09-.38 1.28.95 1.44zM25.53 34.74c.47 0 .35.45.46.71-.46.49-.89 1.11-1.68.48.53 0 .73-.26.77-.74.35 0 .43-.23.5-.5zM20 34v-.26l.48-.21h.28c.19.13.42.2.48.47l-.75.23h-.26L20 34zM22.17 36.18c.11-.2-.08-.67.45-.5V36.27h-.51zM20.47 34.25c.26.05.49.14.48.47-.41.09-.46-.18-.48-.48zM23.83 35.22c.18-.25.36-.51.74-.47v.2zM21.19 35.43c-.14.35-.35.52-.71.25l.74-.24z"/><path d="M20.95 34.67l.23.51-.24-.49zM25.09 35.2a.57.57 0 01-.5-.25c.19 0 .39 0 .48.24zM21.19 34h.27v.51z"/><path d="M21.19 35.23l.52.19h-.54v-.25zM23.35 35.22v-.27l.26.27z"/><path d="M23.09 35.2h.28c-.08.15-.17.2-.28 0zM22.62 35.67l.27.26h-.27zM28.17 43.62c-.18-.55-.72-1.05-.23-1.69.78-.17.48-.76.48-1.23l.48.25h.74l.25.51c-.12.21-.3.2-.51.17-.47-.07-.42.36-.36.54.15.47.41-.06.62 0l-.22 1h-.74l-.48.46zm.32-1.06l-.12-.21a.92.92 0 00-.2.19l.09.18zM28.66 44.07c-.35 0-.79.38-1-.23l.5-.22c.18.15.44.21.49.49zM27.17 43.67l-.34-.44h.1c.23.09.17.32.23.5z"/><path d="M27.94 41.93c-.38-.15-.27-.46-.24-.74.3.17.28.45.24.73zM26 44.1l-.49-.51.27-.27H26zM27 42.77h-.09v-.1H27v.1zM26.87 41.95l.06.01-.03-.01h-.03zM26.25 42.39l-.25.25v-.26h.25zM33.43 31.6a1.31 1.31 0 001-.72h.23l.27.27v.25l-.27.27-.48.27c-.28-.09-.57-.07-.75-.34zM33.67 32.82l.5-.75c-.08.31-.08.67-.5.75zM33.93 34l.15.13c-.18.07-.09-.09-.13-.15zM26.25 35.46c.19-.22-.45-1 .45-.74s-.07.06-.07.09a1 1 0 00.07.19l-.21.5h-.27zM27.2 35.21l.49.26c-.06.08-.16.24-.19.22a.43.43 0 01-.28-.46zM25 34.5l.51.24-.44-.26z"/><path d="M24.79 34.23h.3v.27h-.22zM26 35.45h.26v.27l-.26-.28zM26.71 34.67l.24.25h-.26v-.25zM26.95 35l.26.23-.21-.28zM39.93 34.95l.25.25v1.25l-.22.44h-.25c-.34-.11-.23-.77-.51-.65s.06.59 0 .91h-.51a2.11 2.11 0 00-.94-.74v-.74a1.15 1.15 0 001.25-.28h.24l.23-.25.24-.25zM38.23 34h.26l.22.51h-.49zM38.71 34.67a.63.63 0 01-.48.48v-.48h.48zM38.25 34.73v-.26zM39 34.47v.27h-.26v-.26H39zM38.24 35.19l-.01.04.03-.01-.02-.03z"/><path d="M24.81 34v.27q-.23-.15 0-.27zM24.56 34.75l.26-.26-.25.25zM39.68 37.84l.27.5h-.75v-.25l.51-.23zM39.45 39l-.09.18c-.15-.14 0-.15.08-.19zM39.2 40.01l.03-.03-.05.01.02.02zM41.36 36.89l-.24.26-.5-.49c.33-.73.66-.24 1 0zM39.67 37.12v.5c-.18-.14-.43-.21-.48-.49h.48z"/><path d="M40.65 36.67v.76a.61.61 0 010-.76zM40.15 35.93h.27l-.28.5v-.5zM41.09 35.43l.27.27zM39.94 37.6l-.27.24v-.25h.27zM40.42 37.86l-.27-.27zM39.93 36.86l-.25.26v-.26z"/><path d="M40.18 37.61h-.28a.17.17 0 01.28 0zM22.41 46.74h-.26l-.21-.74.26-.26h.26l1 .24v.26c-.37.17-.83.13-1.05.5zM22.41 45.53l-.27.24h-.23l-.27-.27.22-.73h.5a1 1 0 01.05.76z"/><path d="M21.94 46c-.32 0-.69 0-.25-.47l.27.27v.27zM20.71 45.54v-.27H21zM15.91 38.55v.23h-.16l.14-.17zM38 42.67l-.24.25h-.5a1.22 1.22 0 01-1 0A1.4 1.4 0 0137 42l-.76-.08-.5-.26a.53.53 0 00-.2-.72h-.06c0-.23-.08-.55.31-.39a7.09 7.09 0 01.75.54.45.45 0 00.62-.15.81.81 0 00.13-.54c0-.2-.29-.37-.44-.23-.74.65-.94-.3-1.41-.44l.26-.26c.17 0 .42.07.47-.23h.26l.1.2.09-.11-.21-.07V39l.49-.48.49.27c-.28.91.66 1.11 1 1.68l.24.48v.25c-.22.18-.66 0-.73.45a1 1 0 01.73.53 1.08 1.08 0 00-.63.49zM37.95 39v.51a.39.39 0 010-.47zM38 39l.29-.22v.25H38z"/><path d="M38.48 39v.27l-.25-.27h.25zM37.76 38.55l-.25.25.24-.25zM37.99 39.52l.04.03-.01-.05-.03.02zM20 33.78l-.27-.27zM20.47 33.55zM38.23 28.24h.28c-.1.2-.19.18-.28 0zM38.23 29.67l.27-.27zM34.17 30.42v-.26a.89.89 0 011.21 0h.28l-.29 1h-.48l-.27-.27v-.5h-.48zM36.34 31.14h-.25v-.47zM34.87 31.37l.26.23h-.26v-.23zM35.09 31.6v.26-.27zM36.09 30.16h.27l-.27.27zM36.09 30.39v.28c-.17-.1-.16-.19 0-.28zM22.63 32.57a.91.91 0 01.06.16l-.06.07c-.09.22-.23.49-.48.33s0-.54 0-.82h.5zM35.35 41.94v-.26h.5c-.07.32-.27.32-.5.26zM36.32 41.91l-.02.04.04-.01-.02-.03zM35.85 42.66l.03-.04-.05.02.02.02zM36.34 42.87l-.27.27zM40.63 33.28h.75v1l-.49-.49z"/><path d="M41.36 33.3V33h.27zM29.62 47h-.26l-.23-.25-.26-.24c.19-.3.34-.65.75-.74zM31.54 46.73l-.25.25H31l.24-.75h.26zM33.7 28.74h-.27v-.27zM26 44.79v.27h-.26v-.26H26zM17.83 32.82v-.27h.51zM18.58 32.31v.27h-.27zM19.52 44.34a.61.61 0 00-.49-.49c0-.33.32-.51.51-.75h.28l.26.5-.24.73z"/><path d="M20.26 43.61H20a.16.16 0 01.22 0zM32.47 31.86v-.26l.27-.27.49-.27.25.5zM34.42 30.89l-.24-.22.25.25zM33.91 30.4h.27v.27zM37.75 42.88H38a.87.87 0 01-.26.75zM24.8 32.34l-.25-.25.74-.47.22-.5h.26l.24.74-.5.23-.27.27zM23.62 46h-.27v-.27zM36.31 30.18l.27-.27z"/><path d="M25.27 32.58v-.27l.27-.27c.27.39-.11.41-.27.54zM14.96 38.31l-.04.07.06-.05-.02-.02zM38.71 41.2H39v.27zM18.58 41.2l-.26-.26.25.25zM22.9 32.34h-.27v-.27zM32 32.32h.26v.75H32zM33 33v.27h-.3zM32 32.08v.27l-.27-.27zM35.37 41.67l-.49-.24c0-.34-.05-.67-.49-.72h-.24l-.72-.49a.51.51 0 00.23-.5c.47.25.74-.49 1.21-.24l.26.25v.49l.18.66v-.06l.3.09-.25.75z"/><path d="M34.88 41.44l-.25.24v-.27h.26zM26 46l.27.27zM27.69 46.74l-.26-.26a.45.45 0 01.51-.26zM15.22 40.48v.26h-.5l-.25-.25v-.26H15z"/><path d="M15.22 40v.27h-.27zM14.75 36.67h-.28a.16.16 0 01.28 0zM20 44.58l-.27-.27zM32.49 31.6h-.26a.47.47 0 01.51-.5v.26l-.27.27zM30.34 48.42h-.25c.07-.16.16-.15.25 0zM20.74 45.3h-.27V45h.26zM26.26 31.11v.27l-.26-.27zM29.59 31.84h.27v.27zM35.38 44.31v.27h-.51v-.27zM33.67 46.26V46h.51v.27z"/><path d="M35.35 44.55h.27v.27h-.27zM27.91 39.74c-.42.67-.9.22-1.37.08v.07l-.56.18c-.18-.63-1.11-.2-1.24-.89.6-.45 1.2-.66 1.82 0l.43.2c.14.53.58.46 1 .5zm-2.41-.55h.1v-.08h-.09a.39.39 0 010 .09z"/><path d="M27 39.3a1.75 1.75 0 00-.52-1 .66.66 0 01.1-.92c.45-.15.46.32.47.59 0 .45.4.53.63.77V39c-.09.53-.47.21-.72.24zM28.9 37.83v.26c-.21.1-.23.29-.24.49-.18-.1-.53-.11-.43-.4s.39-.32.67-.35zM24.95 38.17c-.15 0-.41.25-.39-.15 0-.14.09-.35.28-.28s.06.27.09.42zM24.09 39.53c.21-.11.42-.05.4.18s-.23.23-.4.06v-.24zM25.4 38.16l.08-.49a.32.32 0 01.32.41c-.05.22-.26 0-.4.07zM26.62 36.77h-.12v-.09zM28.66 38.79l-.27.5-.5-.24zM27.6 37.3l-.26.13c0-.06-.07-.15 0-.19.15-.2.22 0 .33.07z"/><path d="M27.62 37.32a1.28 1.28 0 01.86-.15 1 1 0 01-.86.15zM26.23 35.67h.27a.44.44 0 01-.44.44H26zM25.28 37.17h.26l-.08.51-.18-.53zM26 36.11v.11l.07-.09zM26.48 35.67v-.28c.16.13.16.22 0 .28zM28.16 35.22v-.27c.16.05.18.18 0 .27zM28.64 38.55l.3.23-.32.06zM27.66 38.8l.25.27h-.25v-.28zM24.09 39.77l-.26-.26h.26v.26zM25.53 37.2l.03-.06-.02.04-.01.02zM25.38 38.17a.29.29 0 00-.41 0zM28.39 39.29c.54.48 1 1 0 1.45h-.26c0-.36.09-.73-.24-1l.49-.5zM26.26 40.5H26v-.27zM26 42.42l-.27-.27zM31.28 38.07h.5v.49c-.83.55-.25.75.24 1v.25c-.48.56-.72.15-1-.24l-1-.25v-.26l.79-.28v.05c-.23-.54.38-.49.47-.76zM33.69 39.78a.5.5 0 00-.48.24H33c0-.37.28-.52.49-.73s.07-.06.07-.09a1 1 0 00-.07-.19l.21-.75c-.07-.11-.23-.27-.2-.34.15-.29.44-.15.68-.16a6.71 6.71 0 01-.49 2.02z"/><path d="M32.24 39.07l.51-.27.22-.48c.37.08.24.55.52.7v.27h-1.25v-.22zM31.51 37.6l.25-.25H32a.84.84 0 01-.26.75zM31.74 38.57c.23.11.45.21.5.5l-.49-.49zM34.66 37.6l-.51.26zM33.22 36.9l-.27-.27zM35.85 38.55a4.74 4.74 0 01-.66.22c-.09 0-.21-.09-.31-.13l.26-.14a2.35 2.35 0 011.44-.39v.51h-.77zM37.09 38.58h-.25l-.26-.51v-.26c.36.13 1.02.04.51.77zM35.09 39.78v-.26l.74-.49v.5l-.25.25z"/><path d="M36.09 39h-.26v-.51h.26zM35.14 39.54h-.27c.13-.19.22-.24.27 0zM36.33 36.67h-.24v-.5c.34.02.39.21.24.5zM36.6 35.46l-.09.08.11-.06zM30.09 39.06c-.43-.07-.64-.3-.5-.75a1 1 0 01.5.75zM31 37.83l.27.27zM32.49 41h-.26v-1a.72.72 0 00.77 0zM29.83 41.46l-.25-.46c.25-.35.5-.2.75 0l-.25.49zM30.09 39.51a.46.46 0 01-.38-.11l.39-.1v.21zM30.09 40.25h-.49c.19-.35.34-.3.46 0zM29.38 41h-.52c.14-.19.35-.27.52 0zM31.09 40.67l-.09-.14a.35.35 0 010 .11zM30.8 39.76q-.22.38-.46 0zM31.3 41H31v-.26h.28a1.37 1.37 0 00.02.26zM28.93 38.78l-.03.03.05-.05-.02.02z"/><path d="M30.35 39.77l-.26-.26.25.25zM31.09 39.51l-.24.26.25-.25zM32.26 40l-.26-.25.24.24zM29.85 44.1h-.26l.24-.74c.26-.15.37-.52.74-.49v.5l-.25.24zM29.86 43.38l-.51-.26zM30.08 42.39l-.04.05.06-.02-.02-.03zM34.39 41l.27.47-.25.25h-.5l.22-.48.27-.27zM34.15 40.67h.26v.27h-.28zM34.09 41.21a.93.93 0 00.06-.17.1.1 0 00-.05-.04v.25zM33.19 40l.27.27zM28.63 43.12h.27c-.09.1-.18.12-.27 0zM20.49 35.46l.03-.04-.05.02.02.02zM38.73 37.11l.49 1-.74-.51zM35.09 40.27V40a1.19 1.19 0 010 .19zM36.31 39v.27l-.24-.27h.24z"/><path d="M36.58 39.06h-.27l.24-.25zM36.81 38.55l-.25.25v-.26h.25zM32 39.54l.27-.27z"/></svg>